<svg width="64" height="64" viewBox="0 0 64 64" fill="none" xmlns="http://www.w3.org/2000/svg">
<g clip-path="url(#clip0_11_12)">
<path d="M27.8925 57.55L21.7925 55.78C21.1525 55.6 20.7925 54.93 20.9725 54.29L34.6225 7.27C34.8025 6.63 35.4725 6.27 36.1125 6.45L42.2125 8.22C42.8525 8.4 43.2125 9.07 43.0325 9.71L29.3825 56.73C29.1925 57.37 28.5325 57.74 27.8925 57.55ZM16.4925 46.33L20.8425 41.69C21.3025 41.2 21.2725 40.42 20.7625 39.97L11.7025 32L20.7625 24.03C21.2725 23.58 21.3125 22.8 20.8425 22.31L16.4925 17.67C16.0425 17.19 15.2825 17.16 14.7925 17.62L0.3825 31.12C-0.1275 31.59 -0.1275 32.4 0.3825 32.87L14.7925 46.38C15.2825 46.84 16.0425 46.82 16.4925 46.33V46.33ZM49.2125 46.39L63.6225 32.88C64.1325 32.41 64.1325 31.6 63.6225 31.13L49.2125 17.61C48.7325 17.16 47.9725 17.18 47.5125 17.66L43.1625 22.3C42.7025 22.79 42.7325 23.57 43.2425 24.02L52.3025 32L43.2425 39.97C42.7325 40.42 42.6925 41.2 43.1625 41.69L47.5125 46.33C47.9625 46.82 48.7225 46.84 49.2125 46.39V46.39Z" fill="white"/>
</g>
<defs>
<clipPath id="clip0_11_12">
<rect width="64" height="64" fill="white"/>
</clipPath>
</defs>
</svg>
