<svg width="985" height="810" viewBox="0 0 985 810" fill="none" xmlns="http://www.w3.org/2000/svg">
<circle cx="788.424" cy="396.424" r="282.693" fill="#597EF7"/>
<circle cx="249.243" cy="497.243" r="162.19" fill="#FAAD14"/>
<path d="M338.18 570H208.82C203.949 570 200 574.029 200 579C200 583.971 203.949 588 208.82 588H338.18C343.051 588 347 583.971 347 579C347 574.029 343.051 570 338.18 570Z" fill="#E4EBF7"/>
<path d="M861.2 579H658.8C653.94 579 650 583.029 650 588C650 592.971 653.94 597 658.8 597H861.2C866.06 597 870 592.971 870 588C870 583.029 866.06 579 861.2 579Z" fill="#E4EBF7"/>
<path fill-rule="evenodd" clip-rule="evenodd" d="M728.771 279.157H304.512V249.775C304.512 243.402 309.679 238.234 316.052 238.234H717.232C723.605 238.234 728.771 243.402 728.771 249.775V279.157Z" fill="#253368"/>
<path fill-rule="evenodd" clip-rule="evenodd" d="M334.262 257.448C334.262 261.448 331.039 264.691 327.064 264.691C323.09 264.691 319.868 261.448 319.868 257.448C319.868 253.448 323.09 250.205 327.064 250.205C331.039 250.205 334.262 253.448 334.262 257.448Z" fill="#FF7946"/>
<path fill-rule="evenodd" clip-rule="evenodd" d="M361.133 257.448C361.133 261.448 357.911 264.691 353.936 264.691C349.961 264.691 346.739 261.448 346.739 257.448C346.739 253.448 349.961 250.205 353.936 250.205C357.911 250.205 361.133 253.448 361.133 257.448Z" fill="#FAAD14"/>
<path fill-rule="evenodd" clip-rule="evenodd" d="M388.004 257.448C388.004 261.448 384.782 264.691 380.807 264.691C376.833 264.691 373.611 261.448 373.611 257.448C373.611 253.448 376.833 250.205 380.807 250.205C384.782 250.205 388.004 253.448 388.004 257.448Z" fill="#7CB305"/>
<path fill-rule="evenodd" clip-rule="evenodd" d="M316.937 562.394C309.84 562.394 304.086 557.234 304.086 550.869V276.444H728.367V550.869C728.367 557.234 722.613 562.394 715.516 562.394H316.937Z" fill="#4E5C93"/>
<path d="M695.217 297.487H335.878C333.049 297.487 330.757 299.789 330.757 302.629V533.389C330.757 536.229 333.049 538.531 335.878 538.531H695.217C698.046 538.531 700.338 536.229 700.338 533.389V302.629C700.338 299.789 698.046 297.487 695.217 297.487Z" fill="black"/>
<path d="M507.927 331.922H374.573C369.312 331.922 365.048 336.204 365.048 341.487C365.048 346.77 369.312 351.052 374.573 351.052H507.927C513.188 351.052 517.453 346.77 517.453 341.487C517.453 336.204 513.188 331.922 507.927 331.922Z" fill="#FF7946"/>
<path d="M622.231 446.705H374.573C369.312 446.705 365.048 450.987 365.048 456.27C365.048 461.553 369.312 465.835 374.573 465.835H622.231C627.491 465.835 631.756 461.553 631.756 456.27C631.756 450.987 627.491 446.705 622.231 446.705Z" fill="#ADC6FF"/>
<path d="M584.13 484.966H374.573C369.312 484.966 365.048 489.248 365.048 494.531C365.048 499.814 369.312 504.096 374.573 504.096H584.13C589.39 504.096 593.655 499.814 593.655 494.531C593.655 489.248 589.39 484.966 584.13 484.966Z" fill="#7CB305"/>
<path d="M546.028 408.444H374.573C369.312 408.444 365.048 412.726 365.048 418.009C365.048 423.292 369.312 427.574 374.573 427.574H546.028C551.289 427.574 555.554 423.292 555.554 418.009C555.554 412.726 551.289 408.444 546.028 408.444Z" fill="#FAAD14"/>
<path d="M660.332 370.183H374.573C369.312 370.183 365.048 374.465 365.048 379.748C365.048 385.031 369.312 389.313 374.573 389.313H660.332C665.593 389.313 669.857 385.031 669.857 379.748C669.857 374.465 665.593 370.183 660.332 370.183Z" fill="#597EF7"/>
<path d="M204.761 282.676H262.135C283.632 282.676 301.06 300.002 301.06 321.376C301.06 342.749 283.632 360.076 262.135 360.076H204.761C183.263 360.076 165.836 342.749 165.836 321.376C165.836 300.002 183.263 282.676 204.761 282.676Z" fill="#4E5C93"/>
<path fill-rule="evenodd" clip-rule="evenodd" d="M282.307 348.819V369.078C282.307 369.969 281.581 370.691 280.685 370.691C280.265 370.691 279.861 370.529 279.559 370.239L264.584 355.874L282.307 348.819Z" fill="#4E5C93"/>
<path d="M259.499 326.213C256.028 326.213 253.214 323.416 253.214 319.965C253.214 316.514 256.028 313.716 259.499 313.716C262.97 313.716 265.784 316.514 265.784 319.965C265.784 323.416 262.97 326.213 259.499 326.213Z" fill="white"/>
<path d="M233.752 326.213C230.281 326.213 227.467 323.416 227.467 319.965C227.467 316.514 230.281 313.716 233.752 313.716C237.223 313.716 240.037 316.514 240.037 319.965C240.037 323.416 237.223 326.213 233.752 326.213Z" fill="white"/>
<path d="M207.396 326.213C203.925 326.213 201.112 323.416 201.112 319.965C201.112 316.514 203.925 313.716 207.396 313.716C210.867 313.716 213.681 316.514 213.681 319.965C213.681 323.416 210.867 326.213 207.396 326.213Z" fill="white"/>
<path fill-rule="evenodd" clip-rule="evenodd" d="M269.982 462.473C269.982 462.473 269.4 472.135 260.559 471.452C251.544 470.757 252.514 461.004 252.514 461.004C252.514 461.004 252.075 454.943 252.704 446.791C253.195 440.421 253.95 432.102 254.653 428.057C255.411 423.69 259.435 420.809 263.575 421.129C269.869 421.614 272.004 426.685 271.865 431.091C271.729 435.377 271.526 442.428 271.271 447.147C270.783 456.223 269.982 462.473 269.982 462.473Z" fill="#ADC6FF"/>
<path fill-rule="evenodd" clip-rule="evenodd" d="M289.719 474.257C290.783 478.23 299.632 476.881 299.632 476.881L303.969 480.412C304.657 480.887 304.951 480.424 305.325 480.509C306.332 480.738 306.574 479.681 306.574 479.681C306.959 479.594 307.457 479.988 307.827 479.065C307.827 479.065 308.544 479.174 308.789 478.33C308.881 478.016 307.496 473.761 306.67 471.272C306.306 470.179 305.36 469.384 304.222 469.213L293.631 467.618C293.631 467.618 288.288 468.913 289.719 474.257Z" fill="#C99382"/>
<path d="M298.982 474.108C298.861 474.056 298.721 474.113 298.669 474.234C298.623 474.341 298.663 474.464 298.757 474.526L298.795 474.546L301.923 475.881L305.046 480.182C305.115 480.276 305.24 480.305 305.342 480.256L305.379 480.234C305.473 480.166 305.503 480.04 305.454 479.939L305.432 479.902L302.27 475.549C302.253 475.525 302.232 475.505 302.208 475.49L302.171 475.469L298.982 474.108Z" fill="#9B6160"/>
<path d="M301.109 472.796C300.994 472.731 300.849 472.772 300.784 472.886C300.727 472.988 300.753 473.114 300.839 473.187L300.875 473.211L303.746 474.829L306.292 479.281C306.35 479.382 306.472 479.425 306.578 479.387L306.617 479.369C306.719 479.311 306.761 479.19 306.724 479.083L306.706 479.044L304.127 474.536C304.113 474.511 304.095 474.489 304.073 474.47L304.038 474.446L301.109 472.796Z" fill="#9B6160"/>
<path d="M303.169 471.583C303.066 471.501 302.916 471.519 302.835 471.622C302.762 471.714 302.768 471.842 302.843 471.927L302.874 471.957L304.808 473.486L307.13 478.264C307.181 478.369 307.299 478.42 307.408 478.389L307.448 478.374C307.554 478.323 307.604 478.204 307.574 478.096L307.558 478.056L305.212 473.229C305.201 473.207 305.188 473.188 305.172 473.17L305.145 473.146L303.169 471.583Z" fill="#9B6160"/>
<path fill-rule="evenodd" clip-rule="evenodd" d="M261.635 455.73C261.635 455.73 252.725 453.856 250.916 461.25C249.05 468.877 257.514 471.07 257.514 471.07C257.514 471.07 263.508 472.467 270.888 474.221C275.393 475.291 280.392 476.374 284.134 476.639C288.186 476.927 289.103 474.855 290.007 471.157C291.081 466.766 291.079 464.842 287.328 463.337C283.752 461.902 278.725 460.61 274.873 459.432C267.531 457.187 261.635 455.73 261.635 455.73Z" fill="#ADC6FF"/>
<path fill-rule="evenodd" clip-rule="evenodd" d="M291.874 476.04L293.966 467.49L288.34 465.46L285.946 475.242L291.874 476.04Z" fill="#ADC6FF"/>
<path fill-rule="evenodd" clip-rule="evenodd" d="M298.038 491.685C280.341 487.088 262.001 482.516 247.328 479.213C247.328 479.213 236.255 478.609 235.669 488.716C235.096 498.622 247.058 501.565 247.058 501.565L295.114 509.034C295.114 509.034 302.954 510.164 304.264 501.465C305.458 493.53 298.038 491.685 298.038 491.685Z" fill="#597EF7"/>
<path fill-rule="evenodd" clip-rule="evenodd" d="M294.92 538.508C291.778 537.878 288.87 540.34 288.981 543.542C289.109 547.227 289.256 552.205 289.342 557.568C289.431 563.087 289.515 567.661 289.91 568.242C291.65 570.801 295.127 571.753 298.7 574.289C301.528 576.296 302.016 577.249 305.62 577.924C310.728 578.881 308.347 576.714 302.675 569.86C297.622 563.754 297.962 560.89 297.962 560.89L298.902 543.646C299.036 541.182 297.34 538.993 294.92 538.508Z" fill="#C99382"/>
<path fill-rule="evenodd" clip-rule="evenodd" d="M302.162 568.239C305.853 572.341 310.082 575.583 309.98 577.531C309.877 579.479 308.341 581.238 301.987 578.984C297.639 577.44 298.883 576.507 294.733 573.807C292.66 572.458 291.904 572.603 289.993 571.034C288.898 569.625 289.391 562.784 289.391 562.784L296.665 570.754C296.665 570.754 294.774 567.042 296.328 566.238C297.881 565.433 299.312 564.885 300.229 565.545C301.145 566.205 302.162 568.239 302.162 568.239Z" fill="#7D4556"/>
<path fill-rule="evenodd" clip-rule="evenodd" d="M305.763 501.6C303.378 530.558 300.662 558.892 300.662 558.892L288.403 558.883L286.488 500.558C286.488 500.558 287.563 493.866 297.033 492.647C305.742 491.527 305.763 501.6 305.763 501.6Z" fill="#597EF7"/>
<path fill-rule="evenodd" clip-rule="evenodd" d="M217.837 492.306C218.94 480.626 219.233 474.62 220.542 472.426C248.694 473.231 255.706 472.86 255.706 472.86C255.706 472.86 255.993 476.992 257.29 489.711C257.29 489.711 248.623 505.504 237.439 505.504C227.355 505.504 217.837 492.306 217.837 492.306Z" fill="#597EF7"/>
<path fill-rule="evenodd" clip-rule="evenodd" d="M220.542 472.426L221.075 467.129L255.546 467.542L255.707 472.848C255.707 472.848 237.463 473.551 220.542 472.426Z" fill="#597EF7"/>
<path fill-rule="evenodd" clip-rule="evenodd" d="M236.04 402.298C236.04 402.298 231.252 399.364 233.169 394.151C231.227 389.492 233.956 386.813 233.956 386.813C233.956 386.813 234.352 380.846 238.325 380.708C241.124 374.708 247.968 377.46 247.968 377.46C247.968 377.46 252.606 374.046 258.729 379.35C263.381 379.752 263.515 377.439 264.932 379.124C266.349 380.808 266.829 384.61 264.757 385.993C268.129 387.651 264.713 392.97 264.713 392.97C264.713 392.97 265.681 396.198 261.586 398.383C257.491 400.568 255.599 408.03 248.873 410.069C242.401 412.031 235.764 409.657 236.04 402.298Z" fill="#7D4556"/>
<path fill-rule="evenodd" clip-rule="evenodd" d="M237.992 413.627L239.938 403.415L253.496 405.818L253.162 414.827C253.014 418.849 249.578 421.957 245.561 421.702C245.484 421.698 245.408 421.693 245.331 421.688C241.223 421.429 237.492 417.712 237.992 413.627Z" fill="#C99382"/>
<path fill-rule="evenodd" clip-rule="evenodd" d="M243.592 387.826C243.592 387.826 244.326 391.49 241.493 392.326C241.896 397.043 239.863 396.597 239.863 396.597C239.863 396.597 236.67 392.366 234.366 395.972C232.176 399.397 235.777 404.562 239.208 403.832C244.745 413.044 256.122 413.696 259.994 407.789C262.346 404.199 261.602 398.907 261.935 396.432C262.753 390.351 261.661 388.487 261.661 388.487C261.661 388.487 259.322 388.942 256.809 386.987C254.037 388.966 250.154 386.892 250.154 386.892C250.154 386.892 247.468 390.201 243.592 387.826Z" fill="#C99382"/>
<path d="M237.263 396.724C236.48 396.556 235.941 396.751 235.644 397.19C235.511 397.387 235.456 397.582 235.444 397.725C235.431 397.868 235.537 397.993 235.68 398.006C235.822 398.018 235.948 397.912 235.96 397.77C235.966 397.707 235.998 397.593 236.074 397.481C236.248 397.223 236.572 397.106 237.155 397.231C237.705 397.348 238.161 397.773 238.425 398.34C238.535 398.578 238.598 398.818 238.605 399.007C238.611 399.146 238.586 399.217 238.581 399.22C238.047 399.513 237.629 399.936 237.49 400.404C237.312 401.004 237.6 401.59 238.357 402.078C238.477 402.155 238.638 402.121 238.715 402C238.793 401.88 238.758 401.72 238.638 401.642C238.06 401.269 237.882 400.907 237.987 400.551C238.081 400.236 238.405 399.908 238.831 399.674C239.692 399.203 238.68 397.026 237.263 396.724Z" fill="#9B6160"/>
<path d="M238.027 398.629C237.788 398.6 237.54 398.592 237.304 398.615C236.661 398.68 236.229 398.979 236.231 399.579C236.232 399.722 236.348 399.837 236.492 399.837C236.635 399.836 236.75 399.72 236.75 399.576C236.749 399.309 236.946 399.172 237.355 399.131C237.549 399.112 237.76 399.119 237.965 399.144L238.059 399.157C238.085 399.161 238.106 399.164 238.119 399.167C238.26 399.194 238.396 399.102 238.423 398.962C238.45 398.821 238.358 398.685 238.218 398.658L238.12 398.642C238.093 398.638 238.062 398.634 238.027 398.629Z" fill="#9B6160"/>
<path fill-rule="evenodd" clip-rule="evenodd" d="M252.582 396.365C252.366 398.854 250.175 400.698 247.685 400.483C245.196 400.268 243.353 398.076 243.568 395.587C243.782 393.098 245.975 391.254 248.464 391.469C250.954 391.684 252.797 393.876 252.582 396.365Z" fill="white"/>
<path d="M248.491 391.151C251.156 391.381 253.13 393.728 252.9 396.393C252.669 399.057 250.323 401.03 247.658 400.801C244.994 400.571 243.02 398.224 243.251 395.559C243.476 392.939 245.751 390.986 248.361 391.142L248.491 391.151ZM243.886 395.614C243.686 397.928 245.399 399.966 247.713 400.166C250.027 400.365 252.064 398.652 252.264 396.338C252.464 394.024 250.751 391.986 248.437 391.786C246.123 391.586 244.085 393.3 243.886 395.614Z" fill="#7D4556"/>
<path fill-rule="evenodd" clip-rule="evenodd" d="M263.549 396.887C263.334 399.377 261.143 401.22 258.653 401.005C256.164 400.79 254.32 398.598 254.535 396.109C254.75 393.62 256.942 391.776 259.431 391.991C261.921 392.206 263.764 394.398 263.549 396.887Z" fill="white"/>
<path d="M259.459 391.673C262.124 391.904 264.097 394.25 263.867 396.915C263.636 399.58 261.29 401.552 258.625 401.323C255.961 401.093 253.987 398.746 254.218 396.081C254.444 393.461 256.718 391.508 259.328 391.664L259.459 391.673ZM254.853 396.136C254.652 398.45 256.366 400.488 258.68 400.688C260.994 400.887 263.031 399.174 263.232 396.86C263.432 394.546 261.718 392.508 259.404 392.309C257.09 392.109 255.052 393.823 254.853 396.136Z" fill="#7D4556"/>
<path d="M253.694 395.626C253.57 395.697 253.526 395.855 253.597 395.98L253.662 396.098C253.715 396.195 253.774 396.305 253.838 396.427C254.02 396.777 254.202 397.148 254.371 397.527C254.524 397.868 254.659 398.198 254.772 398.511C255.153 399.565 255.241 400.327 255.002 400.602C254.734 400.911 254.383 401.094 253.964 401.169C253.536 401.246 253.07 401.208 252.616 401.097C252.445 401.055 252.318 401.014 252.252 400.988C252.118 400.936 251.968 401.002 251.916 401.135C251.864 401.269 251.93 401.419 252.063 401.471L252.152 401.503C252.238 401.532 252.353 401.567 252.492 401.601C253.011 401.728 253.547 401.771 254.056 401.68C254.586 401.584 255.043 401.346 255.393 400.942C255.809 400.464 255.706 399.569 255.26 398.335C255.142 398.009 255.002 397.667 254.844 397.315C254.67 396.926 254.484 396.546 254.298 396.188L254.174 395.954L254.048 395.724C253.977 395.599 253.819 395.556 253.694 395.626Z" fill="#9B6160"/>
<path fill-rule="evenodd" clip-rule="evenodd" d="M248.916 402.63C248.916 402.63 253.045 403.467 256.065 403.248C256.065 403.248 254.973 406.155 252.025 405.54C249.407 404.994 248.916 402.63 248.916 402.63Z" fill="white"/>
<path d="M248.97 402.363L249.512 402.464C249.942 402.54 250.417 402.617 250.922 402.688C252.002 402.84 253.066 402.947 254.059 402.991C254.785 403.023 255.451 403.019 256.045 402.976C256.243 402.962 256.39 403.158 256.32 403.344L256.285 403.43C256.249 403.513 256.197 403.621 256.128 403.749C255.969 404.044 255.77 404.339 255.53 404.615C254.653 405.623 253.468 406.119 251.969 405.807C250.891 405.582 250.067 405.052 249.47 404.312C249.186 403.96 248.972 403.583 248.818 403.205C248.725 402.977 248.672 402.796 248.649 402.686C248.609 402.494 248.778 402.325 248.97 402.363ZM249.417 403.001L249.316 402.982L249.323 403C249.457 403.33 249.645 403.661 249.894 403.97C250.415 404.615 251.13 405.075 252.081 405.273C253.37 405.542 254.363 405.126 255.119 404.258L255.242 404.109C255.361 403.959 255.466 403.804 255.56 403.647L255.618 403.545L255.609 403.545C255.12 403.564 254.594 403.56 254.035 403.535C253.022 403.491 251.942 403.381 250.846 403.227C250.335 403.155 249.854 403.078 249.417 403.001Z" fill="#7D4556"/>
<path d="M256.245 390.503C256.114 390.427 255.948 390.472 255.872 390.602C255.797 390.732 255.841 390.899 255.971 390.974C257.369 391.785 259.154 392.114 261.025 391.769C261.173 391.742 261.271 391.6 261.243 391.452C261.216 391.304 261.074 391.206 260.926 391.233C259.186 391.554 257.532 391.25 256.245 390.503Z" fill="#7D4556"/>
<path d="M253.96 394.648C253.447 394.582 252.906 394.582 252.397 394.623L252.201 394.641L252.116 394.651L252.2 395.283L252.381 395.264C252.402 395.262 252.425 395.26 252.448 395.258C252.916 395.221 253.416 395.22 253.878 395.28C254.155 395.316 254.402 395.373 254.611 395.451L254.713 395.491L254.966 394.906C254.676 394.781 254.338 394.697 253.96 394.648Z" fill="#7D4556"/>
<path d="M259.134 395.417C258.358 395.35 257.79 395.687 257.43 396.271C257.24 396.579 257.144 396.883 257.109 397.098C257.08 397.272 257.198 397.436 257.372 397.464C257.545 397.493 257.709 397.375 257.738 397.201L257.748 397.15C257.756 397.117 257.768 397.074 257.784 397.023C257.829 396.88 257.891 396.737 257.972 396.606C258.214 396.214 258.562 396.007 259.079 396.052C259.551 396.093 259.822 396.332 259.968 396.735C260.046 396.951 260.077 397.181 260.077 397.381L260.074 397.498C260.059 397.674 260.188 397.828 260.364 397.843C260.525 397.857 260.668 397.749 260.702 397.596L260.71 397.539C260.71 397.533 260.711 397.525 260.712 397.507C260.726 397.212 260.692 396.862 260.567 396.518C260.342 395.895 259.871 395.48 259.134 395.417Z" fill="#7D4556"/>
<path d="M248.291 394.48C247.515 394.413 246.948 394.751 246.587 395.335C246.397 395.643 246.301 395.946 246.266 396.162C246.237 396.335 246.355 396.499 246.528 396.528C246.686 396.554 246.836 396.459 246.884 396.311L246.914 396.177C246.921 396.151 246.93 396.121 246.941 396.087C246.986 395.944 247.048 395.801 247.129 395.67C247.371 395.278 247.719 395.071 248.236 395.116C248.708 395.156 248.979 395.396 249.125 395.799C249.203 396.015 249.234 396.245 249.235 396.444L249.231 396.562C249.216 396.737 249.346 396.892 249.522 396.907C249.682 396.921 249.826 396.813 249.86 396.66L249.868 396.591L249.869 396.571C249.883 396.276 249.849 395.926 249.725 395.582C249.499 394.959 249.029 394.544 248.291 394.48Z" fill="#7D4556"/>
<path d="M243.568 395.587L239.114 395.202" stroke="#7D4556" stroke-width="1.383"/>
<path d="M251.379 390.059C251.322 389.92 251.164 389.852 251.024 389.909C250.525 390.11 249.934 390.252 249.269 390.339C248.262 390.472 247.182 390.472 246.171 390.392L245.962 390.374L245.638 390.34C245.489 390.32 245.352 390.426 245.332 390.575C245.313 390.724 245.418 390.861 245.567 390.88L245.719 390.898L245.911 390.917C245.98 390.923 246.052 390.929 246.128 390.935C247.174 391.018 248.29 391.017 249.34 390.879C250.047 390.786 250.682 390.634 251.228 390.414C251.367 390.358 251.435 390.199 251.379 390.059Z" fill="#7D4556"/>
<path d="M251.802 408.351C251.659 408.345 251.538 408.455 251.531 408.599L251.522 408.733C251.517 408.807 251.509 408.899 251.498 409.004C251.465 409.31 251.417 409.615 251.352 409.899C251.217 410.489 251.022 410.892 250.808 411.01C250.683 411.078 250.636 411.236 250.705 411.362C250.774 411.487 250.932 411.533 251.057 411.464C251.445 411.252 251.691 410.742 251.857 410.015C251.928 409.709 251.978 409.384 252.013 409.059L252.034 408.843L252.049 408.622C252.056 408.479 251.945 408.358 251.802 408.351Z" fill="#9B6160"/>
<path d="M252.706 409.24C252.563 409.239 252.446 409.354 252.444 409.497L252.438 409.707C252.436 409.752 252.434 409.802 252.431 409.857C252.415 410.128 252.389 410.399 252.351 410.651C252.313 410.9 252.265 411.115 252.207 411.284C252.16 411.419 252.232 411.567 252.368 411.614C252.503 411.66 252.65 411.588 252.697 411.453C252.767 411.25 252.821 411.006 252.864 410.729C252.905 410.46 252.932 410.173 252.948 409.886L252.959 409.659C252.961 409.594 252.962 409.541 252.963 409.502C252.964 409.359 252.849 409.242 252.706 409.24Z" fill="#9B6160"/>
<path d="M250.604 409.424C250.467 409.382 250.322 409.459 250.28 409.596L250.259 409.663C250.245 409.704 250.227 409.756 250.205 409.816C250.143 409.983 250.074 410.151 249.999 410.305C249.859 410.593 249.715 410.798 249.601 410.876L249.568 410.896C249.439 410.959 249.386 411.114 249.449 411.243C249.512 411.372 249.667 411.425 249.796 411.362C250.051 411.237 250.264 410.947 250.465 410.532C250.549 410.36 250.625 410.177 250.692 409.994L250.751 409.825C250.761 409.794 250.77 409.768 250.776 409.748C250.818 409.611 250.741 409.466 250.604 409.424Z" fill="#9B6160"/>
<path d="M253.493 409.044C253.366 409.063 253.273 409.172 253.271 409.296L253.274 409.338L253.5 410.889C253.521 411.03 253.652 411.128 253.794 411.108C253.922 411.089 254.014 410.981 254.016 410.856L254.013 410.814L253.787 409.264C253.769 409.136 253.66 409.044 253.535 409.042L253.493 409.044Z" fill="#9B6160"/>
<path d="M244.593 408.93C244.474 408.851 244.313 408.885 244.235 409.004C244.156 409.124 244.189 409.285 244.309 409.363C244.713 409.628 245.129 409.868 245.556 410.085C248.16 411.408 250.878 411.783 253.213 411.623L253.431 411.607C253.629 411.59 253.77 411.574 253.846 411.562C253.988 411.541 254.085 411.409 254.064 411.267C254.042 411.125 253.91 411.028 253.769 411.049L253.65 411.065C253.599 411.07 253.537 411.077 253.464 411.083L253.388 411.09C251.092 411.281 248.377 410.937 245.791 409.623C245.38 409.414 244.981 409.183 244.593 408.93Z" fill="#9B6160"/>
<path d="M249.914 400.821C249.874 400.684 249.73 400.605 249.592 400.646L249.473 400.684C249.381 400.714 249.278 400.75 249.168 400.791C248.853 400.909 248.537 401.047 248.242 401.205C247.252 401.734 246.684 402.36 246.821 403.118C246.847 403.259 246.982 403.352 247.123 403.327C247.264 403.301 247.357 403.166 247.332 403.025C247.248 402.567 247.677 402.095 248.486 401.663C248.76 401.517 249.055 401.387 249.35 401.277L249.491 401.225C249.6 401.187 249.685 401.159 249.739 401.143C249.876 401.103 249.955 400.959 249.914 400.821Z" fill="#9B6160"/>
<path fill-rule="evenodd" clip-rule="evenodd" d="M237.284 414.111L235.836 416.798C235.836 416.798 225.791 418.003 220.886 420.958C216.45 423.629 217.009 451.832 217.692 461.324C215.302 472.468 224.218 471.569 224.218 471.569L256.038 474.194C256.038 474.194 260.695 471.549 258.379 463.696C258.973 457.31 269.342 426.684 265.337 422.678C262.222 419.564 254.704 418.955 254.704 418.955L254.2 415.832C254.2 415.832 249.374 415.281 237.284 414.111Z" fill="#ADC6FF"/>
<path d="M263.805 434.873C263.66 434.859 263.53 434.966 263.516 435.112C263.242 437.925 262.708 441.283 261.957 445.072C261.533 447.206 261.047 449.444 260.511 451.752C259.878 454.476 259.204 457.175 258.526 459.75L258.127 461.25C258.013 461.672 257.904 462.075 257.799 462.458L257.526 463.446L257.295 464.265C257.255 464.406 257.336 464.552 257.477 464.593C257.618 464.633 257.765 464.552 257.805 464.411L258.082 463.426L258.311 462.598C258.468 462.023 258.636 461.402 258.812 460.74C259.567 457.905 260.323 454.905 261.027 451.872C261.565 449.558 262.052 447.315 262.477 445.175L262.647 444.305C263.313 440.855 263.789 437.778 264.044 435.163C264.058 435.017 263.951 434.888 263.805 434.873Z" fill="#597EF7"/>
<path d="M238.312 418.282C238.17 418.245 238.025 418.329 237.988 418.471C237.95 418.613 238.035 418.758 238.176 418.795C243.144 420.104 248.02 420.439 252.126 420.216L252.467 420.197C252.677 420.183 252.867 420.17 253.035 420.156L253.372 420.125C253.384 420.123 253.394 420.122 253.402 420.121C253.548 420.105 253.653 419.974 253.636 419.828C253.62 419.683 253.488 419.578 253.343 419.594L253.111 419.617L252.728 419.648C252.635 419.654 252.537 419.661 252.434 419.667C248.31 419.924 243.355 419.611 238.312 418.282Z" fill="#597EF7"/>
<path fill-rule="evenodd" clip-rule="evenodd" d="M269.836 544.169C266.422 543.605 263.373 546.369 263.611 549.822C263.884 553.794 264.225 559.162 264.514 564.948C264.812 570.902 265.071 575.836 265.519 576.449C267.49 579.147 271.28 580.048 275.23 582.654C278.355 584.717 278.917 585.728 282.832 586.324C288.381 587.17 285.731 584.919 279.357 577.728C273.68 571.322 273.941 568.218 273.941 568.218L274.323 549.57C274.377 546.905 272.467 544.604 269.836 544.169Z" fill="#C99382"/>
<path fill-rule="evenodd" clip-rule="evenodd" d="M278.745 575.997C282.879 580.289 287.563 583.633 287.523 585.74C287.484 587.847 285.89 589.801 278.949 587.601C274.199 586.094 275.507 585.042 270.929 582.279C268.643 580.899 267.832 581.084 265.712 579.459C264.477 577.98 264.758 570.577 264.758 570.577L272.902 578.913C272.902 578.913 270.724 574.976 272.373 574.051C274.02 573.125 275.545 572.481 276.558 573.159C277.572 573.838 278.745 575.997 278.745 575.997Z" fill="#7D4556"/>
<path fill-rule="evenodd" clip-rule="evenodd" d="M279.837 503.524C278.35 534.87 276.482 565.555 276.482 565.555L263.25 566.007L258.993 503.122C258.993 503.122 259.776 493.725 270.078 494.188C279.373 494.605 279.837 503.524 279.837 503.524Z" fill="#597EF7"/>
<path fill-rule="evenodd" clip-rule="evenodd" d="M274.283 493.258C259.976 487.953 241.705 484.096 228.469 481.405C228.469 481.405 218.54 482.729 217.868 492.487C217.211 502.052 227.999 504.486 227.999 504.486L271.394 510.073C271.394 510.073 278.475 510.898 279.782 502.473C280.974 494.788 274.283 493.258 274.283 493.258Z" fill="#597EF7"/>
<path d="M220.173 473.877C220.03 473.877 219.913 473.993 219.913 474.137C219.913 474.265 220.007 474.372 220.131 474.392L220.173 474.396H255.474C255.617 474.396 255.733 474.28 255.733 474.137C255.733 474.008 255.639 473.901 255.516 473.881L255.474 473.877H220.173Z" fill="#253368"/>
<path d="M220.563 477.901C220.42 477.901 220.303 478.017 220.303 478.16C220.303 478.289 220.397 478.396 220.521 478.416L220.563 478.419H255.993C256.136 478.419 256.252 478.303 256.252 478.16C256.252 478.031 256.158 477.924 256.035 477.904L255.993 477.901H220.563Z" fill="#253368"/>
<path d="M244.884 473.813C244.755 473.819 244.653 473.918 244.639 474.042L244.637 474.084L244.832 478.172C244.839 478.315 244.96 478.426 245.103 478.419C245.232 478.413 245.335 478.314 245.349 478.19L245.35 478.148L245.155 474.059C245.148 473.916 245.027 473.806 244.884 473.813Z" fill="#253368"/>
<path fill-rule="evenodd" clip-rule="evenodd" d="M276.306 493.13L236.421 484.48L276.989 474.668L309.652 485.133L276.306 493.13Z" fill="#CCD7EE"/>
<path fill-rule="evenodd" clip-rule="evenodd" d="M277.982 490.41L249.015 484.128L277.792 476.908L302.2 484.602L277.982 490.41Z" fill="#4E5C93"/>
<path fill-rule="evenodd" clip-rule="evenodd" d="M236.328 486.558L236.412 484.493L277.137 492.99L276.317 495.154L236.328 486.558Z" fill="#253368"/>
<path d="M283.052 478.946L259.572 486.077C259.481 486.104 259.429 486.201 259.457 486.292C259.481 486.372 259.558 486.422 259.638 486.414L259.673 486.407L283.153 479.277C283.244 479.249 283.296 479.153 283.268 479.061C283.244 478.981 283.167 478.932 283.087 478.939L283.052 478.946Z" fill="#CCD7EE"/>
<path d="M280.073 477.547L253.845 485.035C253.753 485.061 253.7 485.156 253.726 485.248C253.749 485.329 253.825 485.379 253.906 485.373L253.94 485.367L280.168 477.88C280.26 477.854 280.313 477.758 280.287 477.666C280.264 477.586 280.188 477.535 280.107 477.541L280.073 477.547Z" fill="#CCD7EE"/>
<path d="M283.279 481.06L263.544 487.354C263.453 487.383 263.403 487.48 263.432 487.571C263.457 487.651 263.535 487.699 263.615 487.69L263.649 487.683L283.385 481.389C283.475 481.36 283.526 481.263 283.497 481.172C283.471 481.092 283.394 481.044 283.314 481.053L283.279 481.06Z" fill="#CCD7EE"/>
<path d="M288.542 481.888L268.807 488.181C268.716 488.21 268.665 488.308 268.694 488.399C268.72 488.478 268.797 488.527 268.877 488.518L268.912 488.511L288.647 482.217C288.738 482.188 288.788 482.091 288.759 482C288.734 481.92 288.656 481.872 288.576 481.88L288.542 481.888Z" fill="#CCD7EE"/>
<path d="M293.383 482.996L273.647 489.29C273.556 489.319 273.506 489.416 273.535 489.507C273.56 489.587 273.638 489.635 273.718 489.627L273.752 489.62L293.488 483.326C293.579 483.297 293.629 483.199 293.6 483.108C293.574 483.029 293.497 482.981 293.417 482.989L293.383 482.996Z" fill="#CCD7EE"/>
<path d="M253.867 483.132C253.773 483.115 253.683 483.177 253.666 483.271C253.652 483.353 253.697 483.432 253.772 483.462L253.806 483.472L278.644 487.974C278.738 487.991 278.828 487.929 278.845 487.835C278.86 487.753 278.814 487.674 278.739 487.644L278.705 487.634L253.867 483.132Z" fill="#CCD7EE"/>
<path d="M259.526 481.49C259.432 481.473 259.342 481.535 259.325 481.629C259.31 481.711 259.356 481.79 259.431 481.82L259.465 481.83L284.303 486.332C284.397 486.349 284.487 486.287 284.504 486.193C284.519 486.111 284.473 486.032 284.399 486.002L284.365 485.992L259.526 481.49Z" fill="#CCD7EE"/>
<path d="M266.478 480.574C266.384 480.557 266.294 480.619 266.277 480.713C266.262 480.795 266.308 480.875 266.383 480.905L266.416 480.914L291.255 485.417C291.348 485.434 291.438 485.371 291.455 485.277C291.47 485.195 291.424 485.116 291.35 485.086L291.316 485.076L266.478 480.574Z" fill="#CCD7EE"/>
<path d="M271.325 477.376C271.231 477.359 271.141 477.421 271.124 477.515C271.11 477.597 271.155 477.677 271.23 477.706L271.264 477.716L296.102 482.219C296.196 482.236 296.286 482.173 296.303 482.079C296.318 481.997 296.272 481.918 296.198 481.888L296.164 481.878L271.325 477.376Z" fill="#CCD7EE"/>
<path fill-rule="evenodd" clip-rule="evenodd" d="M276.349 495.157L278.149 495.417L309.731 487.425L325.243 435.679L291.442 440.458L276.349 495.157Z" fill="#253368"/>
<path fill-rule="evenodd" clip-rule="evenodd" d="M278.213 495.423L311.517 487.011C311.821 486.935 312.063 486.703 312.154 486.403L327.117 436.677C327.306 436.052 326.782 435.442 326.136 435.534L294.071 440.113C293.721 440.163 293.432 440.417 293.337 440.759L278.213 495.423Z" fill="#4E5C93"/>
<path fill-rule="evenodd" clip-rule="evenodd" d="M229.971 461.607C229.971 461.607 228.881 471.224 220.088 470.078C211.122 468.908 212.604 459.22 212.604 459.22C212.604 459.22 212.485 453.144 213.542 445.037C214.369 438.702 215.561 430.434 216.475 426.431C217.463 422.111 221.632 419.446 225.75 419.983C232.009 420.799 233.874 425.975 233.503 430.368C233.142 434.64 232.568 441.671 232.066 446.371C231.1 455.407 229.971 461.607 229.971 461.607Z" fill="#ADC6FF"/>
<path fill-rule="evenodd" clip-rule="evenodd" d="M255.405 473.966C256.563 478.29 266.194 476.822 266.194 476.822L270.914 480.665C271.661 481.181 271.983 480.678 272.389 480.77C273.486 481.02 273.748 479.868 273.748 479.868C274.168 479.774 274.71 480.203 275.112 479.198C275.112 479.198 275.893 479.318 276.16 478.398C276.259 478.056 274.752 473.426 273.852 470.717C273.457 469.527 272.428 468.663 271.188 468.476L259.663 466.741C259.663 466.741 253.847 468.148 255.405 473.966Z" fill="#C99382"/>
<path d="M265.486 473.803C265.354 473.747 265.202 473.808 265.145 473.94C265.095 474.058 265.139 474.193 265.245 474.26L265.282 474.28L268.686 475.734L272.085 480.414C272.16 480.517 272.297 480.549 272.407 480.495L272.448 480.471C272.551 480.396 272.582 480.26 272.529 480.149L272.505 480.109L269.063 475.371C269.045 475.346 269.022 475.325 268.996 475.308L268.955 475.285L265.486 473.803Z" fill="#9B6160"/>
<path d="M267.801 472.376C267.676 472.306 267.518 472.35 267.448 472.475C267.385 472.586 267.413 472.723 267.508 472.801L267.546 472.828L270.672 474.589L273.441 479.433C273.505 479.544 273.637 479.59 273.753 479.549L273.795 479.53C273.906 479.466 273.952 479.334 273.911 479.218L273.892 479.176L271.086 474.269C271.07 474.242 271.05 474.218 271.026 474.198L270.988 474.172L267.801 472.376Z" fill="#9B6160"/>
<path d="M270.043 471.055C269.93 470.967 269.767 470.986 269.679 471.098C269.6 471.198 269.606 471.338 269.687 471.43L269.721 471.462L271.826 473.126L274.354 478.326C274.41 478.442 274.541 478.497 274.661 478.462L274.7 478.446C274.816 478.39 274.871 478.259 274.835 478.139L274.82 478.1L272.266 472.846C272.255 472.823 272.24 472.802 272.222 472.783L272.194 472.756L270.043 471.055Z" fill="#9B6160"/>
<path fill-rule="evenodd" clip-rule="evenodd" d="M224.839 453.802C224.839 453.802 215.143 451.762 213.173 459.81C211.142 468.11 220.354 470.497 220.354 470.497C220.354 470.497 226.878 472.018 234.909 473.926C239.813 475.091 245.254 476.269 249.326 476.558C253.736 476.871 254.733 474.616 255.718 470.592C256.887 465.814 256.885 463.719 252.802 462.081C248.91 460.52 243.438 459.113 239.248 457.831C231.257 455.387 224.839 453.802 224.839 453.802Z" fill="#ADC6FF"/>
<path fill-rule="evenodd" clip-rule="evenodd" d="M257.749 475.907L260.027 466.601L253.903 464.393L251.298 475.038L257.749 475.907Z" fill="#ADC6FF"/>
<path d="M233.439 435.653C233.294 435.637 233.163 435.742 233.147 435.888L233.069 436.56C232.891 438.015 232.542 440.463 232.04 443.827L230.289 455.381C230.271 455.513 230.353 455.638 230.481 455.674C232.859 456.33 235.288 457.029 237.733 457.767L239.404 458.272L244.938 459.889L245.839 460.156C248.622 460.986 250.62 461.648 252.314 462.327C254.305 463.126 255.274 464.019 255.599 465.302C255.617 465.374 255.664 465.433 255.727 465.469L255.766 465.487L259.323 466.769L257.16 475.611L253.296 475.092C253.23 475.083 253.164 475.099 253.111 475.136L253.073 475.167C252.179 476.061 250.901 476.432 248.956 476.294C245.524 476.05 241.115 475.212 234.946 473.755L229.824 472.541L220.025 470.239C219.883 470.206 219.74 470.295 219.707 470.437C219.674 470.58 219.762 470.723 219.905 470.756L224.17 471.754C226.266 472.246 228.438 472.758 230.646 473.28L235.188 474.356C241.194 475.768 245.518 476.582 248.918 476.823C250.875 476.962 252.252 476.606 253.253 475.725L253.353 475.634L257.325 476.169C257.445 476.185 257.558 476.119 257.604 476.012L257.618 475.969L259.895 466.664C259.924 466.547 259.87 466.427 259.768 466.37L259.727 466.351L256.076 465.034L256.044 464.931C255.628 463.628 254.59 462.7 252.687 461.907L252.512 461.835L252.152 461.693C250.635 461.101 248.87 460.515 246.543 459.813L244.521 459.216C243.365 458.881 240.743 458.118 239.432 457.727L238.936 457.578C236.484 456.828 234.042 456.116 231.646 455.447L230.848 455.225L232.526 444.158C233.14 440.058 233.532 437.28 233.675 435.944C233.69 435.799 233.585 435.668 233.439 435.653Z" fill="#597EF7"/>
<path fill-rule="evenodd" clip-rule="evenodd" d="M861.844 468.969C877.508 461.504 886.844 481.081 878.966 491.981C869.352 505.283 864.428 520.588 861.685 525.199C859.372 529.089 853.035 538.573 845.404 534.201C838.382 530.179 842.209 514.39 842.209 514.39C842.209 514.39 842.519 478.177 861.844 468.969Z" fill="#5B8C00"/>
<path fill-rule="evenodd" clip-rule="evenodd" d="M814.728 531.162C809.403 523.923 807.458 513.536 813.402 510.872C819.101 508.319 828.541 514.606 832.914 526.708C837.286 538.809 839.809 547.51 835.532 549.022C828.515 551.504 821.762 540.722 814.728 531.162Z" fill="#5B8C00"/>
<path fill-rule="evenodd" clip-rule="evenodd" d="M870.714 531.711C864.691 538.822 855.999 553.127 850.554 548.117C847.253 545.081 851.665 530.702 863.742 522.878C874.014 516.223 876.737 524.6 870.714 531.711Z" fill="#7CB305"/>
<path fill-rule="evenodd" clip-rule="evenodd" d="M813.077 482.363C815.368 480.811 818.249 480.456 820.878 481.305C824.548 482.489 830.116 486.014 835.627 496.133C842.822 509.344 846.567 523.828 845.827 533.002C845.343 539.001 838.006 541.588 833.902 537.213C832.017 535.204 830.022 532.107 828.071 527.409C820.218 508.503 812.876 496.655 812 495.465C809.664 492.291 807.994 485.809 813.077 482.363Z" fill="#7CB305"/>
<path fill-rule="evenodd" clip-rule="evenodd" d="M818.344 489.904C818.422 490.838 817.734 491.658 816.807 491.736C815.881 491.815 815.066 491.121 814.989 490.188C814.911 489.254 815.599 488.434 816.526 488.356C817.452 488.278 818.266 488.971 818.344 489.904Z" fill="white"/>
<path fill-rule="evenodd" clip-rule="evenodd" d="M832.644 497.146C832.722 498.08 832.034 498.9 831.107 498.978C830.181 499.056 829.367 498.363 829.289 497.43C829.211 496.496 829.899 495.676 830.826 495.598C831.752 495.519 832.567 496.213 832.644 497.146Z" fill="white"/>
<path fill-rule="evenodd" clip-rule="evenodd" d="M830.248 516.428C830.337 517.497 829.549 518.436 828.487 518.526C827.426 518.616 826.494 517.822 826.405 516.753C826.316 515.684 827.104 514.744 828.165 514.655C829.226 514.565 830.159 515.359 830.248 516.428Z" fill="white"/>
<path fill-rule="evenodd" clip-rule="evenodd" d="M874.171 487.612C874.171 489.129 872.95 490.359 871.444 490.359C869.938 490.359 868.718 489.129 868.718 487.612C868.718 486.095 869.938 484.865 871.444 484.865C872.95 484.865 874.171 486.095 874.171 487.612Z" fill="white"/>
<path fill-rule="evenodd" clip-rule="evenodd" d="M852.221 496.001C852.221 497.518 851 498.748 849.494 498.748C847.988 498.748 846.767 497.518 846.767 496.001C846.767 494.484 847.988 493.254 849.494 493.254C851 493.254 852.221 494.484 852.221 496.001Z" fill="white"/>
<path fill-rule="evenodd" clip-rule="evenodd" d="M859.33 514.648C859.33 515.282 858.819 515.796 858.19 515.796C857.561 515.796 857.05 515.282 857.05 514.648C857.05 514.013 857.561 513.499 858.19 513.499C858.819 513.499 859.33 514.013 859.33 514.648Z" fill="white"/>
<path fill-rule="evenodd" clip-rule="evenodd" d="M867.54 529.331C867.54 530.268 866.786 531.027 865.857 531.027C864.927 531.027 864.173 530.268 864.173 529.331C864.173 528.395 864.927 527.635 865.857 527.635C866.786 527.635 867.54 528.395 867.54 529.331Z" fill="white"/>
<path d="M828.216 533.093C828.373 532.943 828.622 532.949 828.771 533.107L828.843 533.185L828.897 533.245C828.996 533.357 829.111 533.49 829.239 533.644C829.604 534.082 830.01 534.606 830.446 535.215C831.69 536.949 832.932 539.019 834.091 541.42C837.397 548.272 839.38 556.411 839.38 565.807C839.38 566.025 839.205 566.202 838.988 566.202C838.771 566.202 838.595 566.025 838.595 565.807C838.595 556.535 836.641 548.513 833.384 541.766C832.246 539.407 831.027 537.376 829.81 535.678C829.409 535.12 829.037 534.636 828.7 534.228L828.637 534.152C828.542 534.037 828.455 533.935 828.377 533.846L828.279 533.735C828.242 533.695 828.217 533.667 828.203 533.653C828.053 533.495 828.059 533.244 828.216 533.093Z" fill="#253368"/>
<path d="M857.875 535.862C858.005 535.687 858.251 535.651 858.425 535.781C858.599 535.912 858.634 536.16 858.505 536.335C857.075 538.264 855.755 540.339 854.542 542.538C851.976 547.186 849.993 552.17 848.521 557.154C848.006 558.898 847.591 560.517 847.269 561.97L847.204 562.268C847.127 562.623 847.06 562.947 847.003 563.237L846.967 563.428L846.902 563.786C846.866 564.002 846.663 564.147 846.449 564.111C846.236 564.074 846.091 563.87 846.127 563.655L846.15 563.528C846.168 563.425 846.191 563.304 846.217 563.165L846.282 562.836C846.346 562.522 846.419 562.175 846.503 561.797L846.574 561.48C846.889 560.093 847.285 558.565 847.769 556.928C849.256 551.892 851.26 546.856 853.855 542.153C855.085 539.924 856.424 537.82 857.875 535.862Z" fill="#253368"/>
<path d="M864.736 486.517C864.886 486.662 864.897 486.899 864.765 487.057L864.747 487.076C864.74 487.084 864.723 487.102 864.698 487.13L864.601 487.236L864.545 487.298C864.376 487.488 864.18 487.717 863.958 487.984C863.323 488.75 862.613 489.672 861.849 490.75C859.661 493.836 857.472 497.553 855.428 501.904C852.025 509.148 849.374 517.411 847.768 526.7C845.817 537.979 845.494 550.3 847.091 563.673C847.117 563.89 846.963 564.087 846.748 564.113C846.533 564.139 846.337 563.985 846.311 563.768C844.705 550.318 845.03 537.919 846.994 526.564C848.613 517.203 851.285 508.873 854.718 501.565C856.783 497.171 858.996 493.414 861.21 490.29L861.381 490.05C862.064 489.097 862.702 488.269 863.283 487.564L863.356 487.477C863.564 487.225 863.752 487.006 863.917 486.82L863.961 486.77C864.012 486.713 864.058 486.662 864.099 486.617L864.181 486.529C864.331 486.371 864.579 486.366 864.736 486.517Z" fill="#253368"/>
<path d="M830.755 509.971C830.94 509.858 831.182 509.918 831.294 510.105L831.333 510.171C831.365 510.225 831.402 510.289 831.444 510.363L831.506 510.471C831.611 510.658 831.729 510.872 831.859 511.114L831.967 511.315C832.367 512.064 832.804 512.93 833.271 513.912L833.335 514.046C834.859 517.263 836.382 521.024 837.804 525.299C841.783 537.266 844.204 550.85 844.295 565.804C844.296 566.023 844.121 566.201 843.905 566.202C843.688 566.203 843.511 566.027 843.51 565.809C843.42 550.942 841.013 537.441 837.059 525.55C835.674 521.384 834.192 517.711 832.709 514.562L832.627 514.387C832.12 513.317 831.648 512.383 831.222 511.59L831.094 511.352C830.971 511.126 830.861 510.928 830.763 510.757L830.717 510.676L830.622 510.515C830.51 510.328 830.569 510.084 830.755 509.971Z" fill="#253368"/>
<path fill-rule="evenodd" clip-rule="evenodd" d="M860.969 585.425H827.035C825.2 585.425 823.7 583.913 823.7 582.065V557.124C823.7 555.276 825.2 553.764 827.035 553.764H860.969C862.803 553.764 864.304 555.276 864.304 557.124V582.065C864.304 583.913 862.803 585.425 860.969 585.425Z" fill="#253368"/>
<path fill-rule="evenodd" clip-rule="evenodd" d="M752.689 339.773L750.442 323.087L735.342 324.976L735.651 341.068C735.744 345.928 739.898 349.726 744.771 349.405C749.712 349.08 753.347 344.659 752.689 339.773Z" fill="#FFC999"/>
<path fill-rule="evenodd" clip-rule="evenodd" d="M731.584 319.514C730.637 318.637 729.228 318.451 728.294 319.566C726.789 321.361 728.588 327.665 732.894 327.716C734.513 327.41 733.062 320.884 731.584 319.514Z" fill="#FFC999"/>
<path d="M729.724 320.447C729.596 320.431 729.48 320.522 729.464 320.649C729.45 320.763 729.522 320.868 729.629 320.9L729.666 320.907C729.702 320.912 729.779 320.931 729.883 320.976C730.066 321.053 730.25 321.176 730.424 321.356C730.737 321.679 730.981 322.149 731.122 322.794C731.159 322.961 731.144 323.003 730.999 323.095L730.898 323.157C730.599 323.339 730.45 323.529 730.438 323.887C730.419 324.445 730.664 324.87 731.075 325.167C731.306 325.334 731.535 325.427 731.697 325.467C731.821 325.498 731.948 325.422 731.979 325.298C732.01 325.173 731.934 325.048 731.809 325.017L731.769 325.005C731.744 324.997 731.711 324.985 731.672 324.969C731.561 324.924 731.45 324.865 731.348 324.791C731.055 324.58 730.89 324.294 730.903 323.903C730.909 323.746 730.952 323.676 731.091 323.584L731.198 323.518C731.534 323.314 731.667 323.106 731.577 322.695C731.418 321.968 731.134 321.421 730.759 321.034C730.382 320.645 729.997 320.481 729.724 320.447Z" fill="#DD936F"/>
<path fill-rule="evenodd" clip-rule="evenodd" d="M753.733 317.87C754.539 316.862 755.906 316.471 756.995 317.435C758.751 318.988 757.912 325.488 753.661 326.175C752.014 326.111 752.476 319.443 753.733 317.87Z" fill="#FFC999"/>
<path d="M755.703 318.396C755.496 318.454 755.206 318.616 754.922 318.935C754.521 319.385 754.262 320.03 754.205 320.894C754.179 321.291 754.32 321.476 754.644 321.625L754.775 321.681C754.958 321.759 755.02 321.82 755.052 321.988C755.127 322.394 754.989 322.714 754.701 322.973C754.617 323.049 754.525 323.114 754.434 323.166L754.365 323.204C754.345 323.213 754.331 323.22 754.321 323.224C754.202 323.273 754.146 323.409 754.195 323.527C754.245 323.645 754.381 323.701 754.5 323.652C754.634 323.597 754.824 323.488 755.014 323.317C755.412 322.958 755.617 322.484 755.51 321.904C755.45 321.585 755.297 321.415 755.028 321.286L754.89 321.226C754.683 321.14 754.657 321.112 754.67 320.924C754.72 320.16 754.94 319.614 755.27 319.243C755.399 319.098 755.536 318.991 755.671 318.915C755.717 318.889 755.756 318.871 755.784 318.859L755.828 318.843C755.952 318.809 756.025 318.681 755.99 318.558C755.96 318.448 755.855 318.379 755.745 318.389L755.703 318.396Z" fill="#DD936F"/>
<path fill-rule="evenodd" clip-rule="evenodd" d="M731.451 321.238C732.314 332.766 737.121 337.27 743.938 336.763C750.238 336.295 754.782 330.352 754.19 319.184C753.739 310.664 751.189 304.677 741.45 305.4C731.223 306.159 730.814 312.73 731.451 321.238Z" fill="#FFC999"/>
<path d="M749.489 334.416C749.407 334.318 749.26 334.305 749.161 334.387C747.725 335.587 745.606 336.346 743.46 336.505C741.193 336.674 739.505 336.296 737.755 335.241C737.645 335.175 737.502 335.21 737.435 335.319C737.369 335.428 737.404 335.571 737.514 335.637C739.348 336.744 741.133 337.143 743.494 336.968C745.732 336.802 747.944 336.009 749.46 334.743C749.559 334.66 749.572 334.514 749.489 334.416Z" fill="#DD936F"/>
<path fill-rule="evenodd" clip-rule="evenodd" d="M752.158 315.353C753.176 316.6 753.689 318.712 753.93 320.108C753.963 320.301 754.245 320.29 754.262 320.095C754.457 317.891 754.635 312.501 753.707 309.471C752.249 304.704 746.119 301.168 742.635 301.244C741.218 301.274 738.791 301.56 736.398 303.931C733.897 306.409 732.282 306.273 730.71 309.715C729.639 312.061 730.81 318.392 731.377 321.407C731.421 321.638 731.758 321.62 731.776 321.386C731.882 319.963 732.165 317.998 732.905 316.966C732.997 315.079 733.234 311.539 733.234 311.539C737.359 310.227 746.693 309.808 751.57 310.361L752.158 315.353Z" fill="#253368"/>
<path d="M739.774 315.95C738.244 315.682 736.494 315.645 734.634 315.987C734.28 316.051 734.047 316.389 734.112 316.741C734.177 317.092 734.516 317.325 734.87 317.26C736.565 316.949 738.162 316.982 739.548 317.225C739.733 317.258 739.901 317.292 740.049 317.326L740.213 317.366L740.352 317.404C740.695 317.509 741.059 317.318 741.165 316.977C741.272 316.635 741.079 316.272 740.736 316.167L740.621 316.133C740.428 316.08 740.142 316.015 739.774 315.95Z" fill="#253368"/>
<path d="M744.922 316.501C744.819 316.453 744.698 316.487 744.634 316.576L744.612 316.612L743.582 318.791C743.57 318.816 743.563 318.842 743.561 318.869L743.561 318.91L744.175 325.911L742.217 326.062C742.102 326.071 742.012 326.163 742.003 326.274L742.003 326.311C742.012 326.426 742.103 326.515 742.215 326.524L742.253 326.525L744.445 326.356C744.561 326.347 744.651 326.254 744.659 326.142L744.659 326.104L744.031 318.932L745.034 316.81C745.082 316.707 745.048 316.586 744.958 316.522L744.922 316.501Z" fill="#DD936F"/>
<path d="M750.909 314.766C750.349 314.713 749.699 314.742 748.973 314.84C748.37 314.921 747.732 315.048 747.08 315.207C746.749 315.288 746.431 315.373 746.131 315.459L745.729 315.579L745.44 315.671C745.1 315.785 744.917 316.152 745.032 316.491C745.146 316.83 745.515 317.012 745.856 316.898L746.142 316.807L746.284 316.764C746.626 316.662 746.999 316.56 747.389 316.465C748 316.316 748.594 316.198 749.148 316.123C749.782 316.038 750.337 316.013 750.784 316.055C751.142 316.09 751.46 315.829 751.494 315.473C751.528 315.117 751.267 314.801 750.909 314.766Z" fill="#253368"/>
<path d="M744.888 318.801L740.87 319.099C740.614 319.118 740.421 319.34 740.44 319.596C740.458 319.834 740.654 320.017 740.889 320.025L740.939 320.023L744.957 319.726C745.214 319.707 745.406 319.484 745.387 319.229C745.369 318.991 745.174 318.808 744.939 318.8L744.888 318.801Z" fill="#253368"/>
<path d="M744.687 320.693C743.657 320.272 742.651 320.351 741.754 320.734C741.47 320.855 741.261 320.979 741.137 321.069C740.93 321.22 740.885 321.511 741.037 321.717C741.189 321.923 741.481 321.968 741.688 321.817C741.758 321.766 741.908 321.677 742.121 321.587C742.806 321.294 743.56 321.235 744.334 321.551C744.572 321.648 744.844 321.534 744.942 321.298C745.039 321.061 744.925 320.79 744.687 320.693Z" fill="#253368"/>
<path fill-rule="evenodd" clip-rule="evenodd" d="M745.193 318.467L752.216 317.836C752.707 317.792 753.14 318.15 753.18 318.639C753.256 319.55 753.337 321.015 753.213 322.286C753.066 323.785 751.817 324.808 750.317 325.012C748.444 325.268 746.756 325.421 745.814 324.527C744.38 323.163 744.477 320.697 744.387 319.404C744.355 318.929 744.718 318.51 745.193 318.467Z" fill="white"/>
<path d="M745.179 318.313L752.202 317.682L752.275 317.678L752.339 317.678C752.857 317.699 753.291 318.099 753.335 318.626C753.445 319.942 753.473 321.22 753.368 322.301C753.219 323.817 751.975 324.942 750.338 325.165L749.832 325.231C747.61 325.503 746.503 325.395 745.707 324.638C745.053 324.017 744.664 323.152 744.46 322.055L744.428 321.878C744.359 321.476 744.324 321.126 744.292 320.564L744.236 319.467C744.235 319.449 744.234 319.432 744.233 319.414C744.195 318.856 744.619 318.364 745.179 318.313ZM752.294 317.986L752.239 317.989L745.207 318.621C744.815 318.656 744.516 319.003 744.542 319.393L744.563 319.771L744.588 320.29C744.628 321.086 744.666 321.471 744.765 321.999C744.958 323.037 745.322 323.845 745.922 324.415C746.678 325.134 747.831 325.196 750.296 324.859C751.798 324.654 752.925 323.635 753.059 322.271C753.162 321.213 753.134 319.95 753.026 318.651C752.994 318.271 752.672 317.985 752.294 317.986Z" fill="#253368"/>
<path d="M753.131 317.566L744.406 318.121C744.149 318.137 743.954 318.357 743.971 318.613C743.986 318.851 744.18 319.036 744.414 319.046L744.465 319.046L753.191 318.491C753.448 318.475 753.642 318.254 753.626 317.999C753.611 317.76 753.417 317.576 753.182 317.565L753.131 317.566Z" fill="#253368"/>
<path d="M748.222 319.607C747.483 319.662 746.98 320.434 747.044 321.299C747.058 321.477 747.214 321.611 747.393 321.598C747.572 321.584 747.706 321.429 747.693 321.251C747.652 320.71 747.935 320.278 748.271 320.253C748.608 320.228 748.952 320.614 748.992 321.155C749.006 321.333 749.162 321.467 749.341 321.453C749.52 321.44 749.654 321.285 749.641 321.106C749.578 320.27 749.002 319.598 748.296 319.604L748.222 319.607Z" fill="#5C4E4A"/>
<path fill-rule="evenodd" clip-rule="evenodd" d="M733.263 319.353L740.286 318.722C740.776 318.678 741.209 319.036 741.249 319.524C741.326 320.435 741.406 321.901 741.282 323.172C741.135 324.671 739.886 325.693 738.386 325.898C736.513 326.154 734.825 326.307 733.883 325.412C732.448 324.049 732.545 321.583 732.457 320.29C732.424 319.814 732.787 319.396 733.263 319.353Z" fill="white"/>
<path d="M733.249 319.199L740.272 318.568L740.345 318.563L740.409 318.564C740.927 318.584 741.361 318.984 741.404 319.512C741.514 320.824 741.542 322.106 741.436 323.186C741.288 324.703 740.044 325.828 738.407 326.051L738.065 326.096C735.733 326.394 734.592 326.299 733.776 325.524C733.122 324.902 732.733 324.038 732.529 322.941L732.497 322.764C732.423 322.332 732.388 321.961 732.354 321.325L732.309 320.407C732.307 320.37 732.304 320.335 732.302 320.3C732.263 319.742 732.688 319.249 733.249 319.199ZM740.363 318.872L740.294 318.876L733.277 319.507C732.883 319.542 732.584 319.889 732.612 320.279L732.629 320.58L732.663 321.303C732.701 322.013 732.741 322.385 732.834 322.885C733.027 323.923 733.39 324.73 733.99 325.301C734.747 326.02 735.9 326.082 738.365 325.745C739.867 325.54 740.994 324.521 741.128 323.157C741.231 322.098 741.203 320.832 741.095 319.537C741.063 319.156 740.742 318.87 740.363 318.872Z" fill="#253368"/>
<path d="M737.388 320.412C736.649 320.467 736.145 321.238 736.209 322.104C736.222 322.282 736.378 322.416 736.557 322.403C736.736 322.39 736.871 322.234 736.857 322.056C736.817 321.515 737.1 321.082 737.436 321.057C737.773 321.032 738.116 321.418 738.157 321.959C738.17 322.137 738.326 322.271 738.505 322.258C738.684 322.244 738.819 322.089 738.805 321.911C738.743 321.074 738.167 320.403 737.461 320.408L737.388 320.412Z" fill="#5C4E4A"/>
<path d="M741.201 318.452L732.475 319.007C732.219 319.023 732.024 319.243 732.04 319.499C732.056 319.737 732.249 319.922 732.484 319.932L732.535 319.932L741.26 319.377C741.517 319.361 741.712 319.14 741.695 318.885C741.68 318.646 741.486 318.461 741.252 318.451L741.201 318.452Z" fill="#253368"/>
<path fill-rule="evenodd" clip-rule="evenodd" d="M739.754 327.894C743.313 327.952 746.571 327.388 746.571 327.388C746.571 327.388 745.916 329.596 743.267 329.793C740.619 329.989 739.754 327.894 739.754 327.894Z" fill="white"/>
<path d="M746.883 327.479C746.781 327.825 746.532 328.32 746.082 328.815C745.412 329.551 744.49 330.027 743.291 330.116C741.992 330.212 740.973 329.81 740.219 329.082C739.812 328.689 739.567 328.294 739.453 328.017C739.364 327.802 739.526 327.567 739.759 327.57C741.365 327.596 743.029 327.499 744.642 327.321C745.144 327.266 745.604 327.206 746.011 327.147L746.516 327.069C746.753 327.028 746.951 327.249 746.883 327.479ZM745.978 327.879L746.025 327.799L745.673 327.848C745.374 327.888 745.053 327.927 744.713 327.965L744.221 328.016C743.067 328.131 741.894 328.204 740.736 328.219L740.327 328.221L740.358 328.265C740.45 328.385 740.555 328.504 740.672 328.618C741.297 329.221 742.137 329.552 743.243 329.47C744.269 329.394 745.038 328.997 745.6 328.38C745.747 328.219 745.872 328.05 745.978 327.879Z" fill="#FF7946"/>
<path d="M744.81 330.872C744.746 330.76 744.604 330.721 744.492 330.784L744.414 330.825L744.373 330.845C744.272 330.892 744.158 330.94 744.033 330.985C743.519 331.169 742.995 331.243 742.516 331.147C742.347 331.112 742.187 331.057 742.036 330.979C741.922 330.92 741.781 330.964 741.722 331.078C741.663 331.191 741.707 331.331 741.821 331.39C742.012 331.489 742.213 331.558 742.424 331.601C742.999 331.717 743.603 331.632 744.191 331.421C744.431 331.335 744.615 331.248 744.722 331.188C744.834 331.124 744.873 330.983 744.81 330.872Z" fill="#DD936F"/>
<path fill-rule="evenodd" clip-rule="evenodd" d="M710.409 593.029C702.074 596.527 697.796 591.49 697.796 591.49C697.796 591.49 697.56 589.727 699.018 587.757C700.843 585.292 704.909 584.414 709.728 579.696C713.43 576.072 715.872 570.431 715.872 570.431C718.547 566.502 727.074 571.18 727.074 571.18C727.074 571.18 727.219 579.299 727.047 583.944C727.047 583.944 726.738 586.502 720.342 587.417C715.557 588.101 715.402 590.934 710.409 593.029Z" fill="#253368"/>
<path fill-rule="evenodd" clip-rule="evenodd" d="M770.906 593.029C779.241 596.527 783.52 591.49 783.52 591.49C783.52 591.49 783.756 589.727 782.297 587.757C780.472 585.292 776.407 584.414 771.587 579.696C767.885 576.072 765.443 570.431 765.443 570.431C762.768 566.502 754.242 571.18 754.242 571.18C754.242 571.18 754.097 579.299 754.269 583.944C754.269 583.944 754.577 586.502 760.973 587.417C765.759 588.101 765.914 590.934 770.906 593.029Z" fill="#253368"/>
<path fill-rule="evenodd" clip-rule="evenodd" d="M679.622 345.683C679.117 350.071 682.107 354.047 686.381 354.671L722.371 359.922C727.528 360.675 732.308 356.91 732.917 351.615C733.527 346.319 729.724 341.599 724.527 341.199L688.253 338.407C683.945 338.076 680.127 341.295 679.622 345.683Z" fill="#FFC999"/>
<path fill-rule="evenodd" clip-rule="evenodd" d="M695.8 357.756L721.355 361.138C726.99 361.963 732.191 357.978 732.832 352.343C733.473 346.709 732.986 341.632 727.308 341.182L698.292 339.225L695.8 357.756Z" fill="#597EF7"/>
<path fill-rule="evenodd" clip-rule="evenodd" d="M726.448 397.233L719.274 344.849C720.363 343.744 724.301 341.067 733.114 341.804C736.043 342.048 742.88 345.672 745.959 345.735C748.042 345.778 754.4 341.602 756.12 341.978C766.13 344.166 769.06 345.624 774.431 347.325L765.503 395.544C765.503 395.544 768.231 404.589 763.105 404.726C723.564 405.786 728.845 405.28 728.845 405.28C728.845 405.28 723.973 404.316 726.448 397.233Z" fill="#597EF7"/>
<path fill-rule="evenodd" clip-rule="evenodd" d="M752.746 339.024L756.608 341.978L751.725 350.729L745.443 345.167L752.746 339.024Z" fill="#597EF7"/>
<path d="M756.769 341.94C756.626 341.859 756.447 341.898 756.35 342.024L756.325 342.061L751.64 350.223L745.657 344.977C745.535 344.869 745.354 344.87 745.233 344.972L745.198 345.006C745.09 345.128 745.091 345.308 745.194 345.428L745.227 345.463L751.509 350.971C751.652 351.096 751.868 351.072 751.981 350.928L752.007 350.889L756.89 342.382C756.979 342.227 756.925 342.029 756.769 341.94Z" fill="#253368"/>
<path fill-rule="evenodd" clip-rule="evenodd" d="M735.63 339.024L732.861 342.281L738.54 351.215L745.576 345.164L735.63 339.024Z" fill="#597EF7"/>
<path d="M733.44 343.259C733.341 343.11 733.14 343.068 732.99 343.166C732.853 343.255 732.806 343.429 732.873 343.572L732.896 343.614L738.024 351.392C738.121 351.54 738.317 351.581 738.464 351.492L738.503 351.464L745.268 345.893L746.315 397.483L746.36 397.804L746.4 398.125C746.42 398.292 746.44 398.469 746.459 398.653C746.542 399.464 746.595 400.272 746.602 401.024C746.615 402.495 746.449 403.576 746.093 404.049C745.985 404.192 746.014 404.395 746.158 404.502C746.301 404.609 746.505 404.58 746.613 404.437C747.085 403.811 747.267 402.629 747.252 401.018C747.245 400.244 747.191 399.417 747.106 398.587L747.066 398.222C747.053 398.104 747.039 397.99 747.025 397.881L746.968 397.46C746.967 397.452 746.966 397.445 746.965 397.44L746.962 397.428L745.905 345.21C745.899 344.954 745.616 344.811 745.408 344.941L745.372 344.967L738.369 350.735L733.44 343.259Z" fill="#253368"/>
<path fill-rule="evenodd" clip-rule="evenodd" d="M743.911 352.916C743.99 353.487 743.665 354.003 743.187 354.068C742.708 354.133 742.257 353.722 742.179 353.151C742.101 352.579 742.425 352.064 742.903 351.999C743.382 351.934 743.833 352.344 743.911 352.916Z" fill="white"/>
<path fill-rule="evenodd" clip-rule="evenodd" d="M744.045 362.762C744.123 363.334 743.798 363.849 743.32 363.914C742.842 363.979 742.391 363.569 742.313 362.997C742.234 362.425 742.559 361.91 743.037 361.845C743.515 361.78 743.967 362.191 744.045 362.762Z" fill="white"/>
<path fill-rule="evenodd" clip-rule="evenodd" d="M744.533 373.623C744.611 374.194 744.287 374.71 743.809 374.774C743.33 374.839 742.879 374.429 742.801 373.858C742.723 373.286 743.047 372.771 743.525 372.705C744.004 372.64 744.455 373.052 744.533 373.623Z" fill="white"/>
<path fill-rule="evenodd" clip-rule="evenodd" d="M744.919 395.397C744.997 395.969 744.672 396.484 744.194 396.549C743.716 396.614 743.265 396.204 743.187 395.632C743.109 395.061 743.433 394.545 743.911 394.48C744.389 394.415 744.841 394.826 744.919 395.397Z" fill="white"/>
<path fill-rule="evenodd" clip-rule="evenodd" d="M745.021 383.182C745.099 383.753 744.775 384.269 744.297 384.334C743.819 384.398 743.367 383.988 743.289 383.417C743.211 382.845 743.536 382.33 744.014 382.264C744.492 382.2 744.943 382.611 745.021 383.182Z" fill="white"/>
<path d="M724.755 359.699L736.799 359.4C736.974 359.396 737.121 359.53 737.132 359.704L737.703 368.997C737.71 369.107 737.66 369.213 737.57 369.278L731.222 373.896C731.102 373.983 730.939 373.979 730.824 373.885L725.812 369.809C725.748 369.757 725.706 369.682 725.695 369.6L724.441 360.065C724.416 359.875 724.562 359.704 724.755 359.699ZM736.502 360.055L725.133 360.337L726.323 369.388L731.042 373.226L737.043 368.86L736.502 360.055Z" fill="#253368"/>
<path fill-rule="evenodd" clip-rule="evenodd" d="M726.345 409.015L765.637 408.609L764.863 404.01L726.871 404.381L726.345 409.015Z" fill="#ADC6FF"/>
<path fill-rule="evenodd" clip-rule="evenodd" d="M765.317 407.323C765.317 407.323 770.55 418.987 770.011 434.103C763.352 438.476 749.97 440.97 749.97 440.97C748.972 441.485 742.997 441.221 741.985 440.784C741.985 440.784 723.756 435.249 722.033 432.499C723.011 418.249 726.408 408.366 726.408 408.366" fill="#ADC6FF"/>
<path fill-rule="evenodd" clip-rule="evenodd" d="M744.34 405.994C744.418 406.566 744.094 407.081 743.616 407.147C743.137 407.211 742.686 406.801 742.608 406.229C742.53 405.657 742.855 405.142 743.333 405.077C743.811 405.012 744.262 405.423 744.34 405.994Z" fill="white"/>
<path fill-rule="evenodd" clip-rule="evenodd" d="M776.195 404.77C780.886 404.242 784.311 400.107 783.936 395.422L780.789 355.975C780.338 350.323 775.273 346.166 769.614 346.803C763.954 347.44 759.949 352.617 760.777 358.227L766.554 397.378C767.24 402.028 771.505 405.297 776.195 404.77Z" fill="#FFC999"/>
<path fill-rule="evenodd" clip-rule="evenodd" d="M760.187 358.647C759.358 353.037 763.954 347.197 769.614 346.56C775.273 345.923 780.338 350.08 780.789 355.732L783.161 382.631C783.161 382.631 764.901 383.766 764.295 383.766L760.187 358.647Z" fill="#597EF7"/>
<path fill-rule="evenodd" clip-rule="evenodd" d="M759.043 502.587C764.67 502.564 769.261 498.096 769.409 492.496L769.992 429.197C770.053 422.581 764.594 417.232 757.949 417.397C751.426 417.56 746.286 422.984 746.501 429.477L748.599 492.657C748.833 498.223 753.447 502.61 759.043 502.587Z" fill="#ADC6FF"/>
<path fill-rule="evenodd" clip-rule="evenodd" d="M753.143 572.002L749.006 495.084C748.68 489.169 753.438 484.21 759.388 484.262C765.133 484.314 769.726 489.032 769.599 494.75L768.064 571.873C768.064 571.873 762.114 575.33 753.143 572.002Z" fill="#ADC6FF"/>
<path fill-rule="evenodd" clip-rule="evenodd" d="M726.331 506.056C720.726 505.551 716.54 500.703 716.879 495.112L721.785 431.999C722.298 425.403 728.2 420.542 734.805 421.279C741.29 422.001 745.941 427.846 745.163 434.296L737.595 497.06C736.881 502.586 731.904 506.56 726.331 506.056Z" fill="#ADC6FF"/>
<path fill-rule="evenodd" clip-rule="evenodd" d="M727.119 574.373L737.398 499.369C738.236 493.504 733.925 488.154 727.993 487.696C722.265 487.253 717.279 491.558 716.912 497.266L712.915 572.945C712.915 572.945 717.894 576.918 727.119 574.373Z" fill="#ADC6FF"/>
<path fill-rule="evenodd" clip-rule="evenodd" d="M715.949 320.861L724.195 315.363C724.195 315.363 728.106 305.647 730.08 304.135C732.055 302.624 734.627 302.919 736.799 301.949C738.971 300.979 738.486 303.363 735.774 304.713C733.063 306.061 731.96 305.908 731.302 308.662C730.643 311.415 731.642 321.236 727.659 322.984C726.238 324.284 725.122 325.277 724.249 326.033C722.342 327.685 719.386 327.433 717.883 325.41C717.846 325.361 717.81 325.312 717.774 325.262C716.224 323.11 713.593 322.089 715.949 320.861Z" fill="#FFC999"/>
<path d="M738.631 302.314C738.906 301.377 738.158 301.006 736.993 301.526C736.876 301.579 736.824 301.716 736.876 301.833C736.929 301.949 737.067 302.002 737.184 301.949C738.039 301.567 738.324 301.709 738.184 302.184C737.99 302.846 737.143 303.705 735.96 304.293L735.757 304.391C735.076 304.716 733.803 305.276 733.706 305.322C732.384 305.954 731.812 306.625 731.4 308.25L731.365 308.396C731.261 308.828 731.182 309.412 731.089 310.352L730.849 312.96L730.794 313.513C730.72 314.23 730.643 314.869 730.555 315.484L730.492 315.912C729.905 319.708 728.901 322.067 727.214 322.807C727.097 322.859 727.043 322.995 727.095 323.113C727.147 323.23 727.284 323.283 727.402 323.231C729.356 322.373 730.418 319.752 731.016 315.549C731.105 314.927 731.182 314.284 731.257 313.561L731.373 312.355L731.521 310.721C731.626 309.609 731.71 308.955 731.818 308.504C732.188 306.957 732.644 306.367 733.797 305.794L733.946 305.722C734.209 305.603 735.609 304.986 736.169 304.708C737.458 304.066 738.397 303.115 738.631 302.314Z" fill="#DD936F"/>
<path d="M720.648 356.04C720.469 356.06 720.341 356.22 720.362 356.398L720.513 357.694L720.64 358.712C720.997 361.4 723.519 378.881 725.7 394.267L726.113 397.183L726.073 397.268C725.156 399.303 725.236 401.339 725.938 403.204L725.999 403.363C726.129 403.689 726.268 403.981 726.407 404.236L726.475 404.358C726.528 404.45 726.571 404.518 726.6 404.562C726.7 404.71 726.902 404.75 727.052 404.65C727.201 404.551 727.241 404.35 727.141 404.201L727.088 404.117C727.058 404.068 727.021 404.004 726.978 403.926C726.851 403.694 726.724 403.425 726.604 403.125C725.886 401.318 725.798 399.341 726.741 397.373C726.769 397.315 726.779 397.251 726.77 397.188L721.563 360.637C721.401 359.483 721.294 358.712 721.257 358.415L721.111 357.213C721.078 356.937 721.044 356.644 721.008 356.324C720.989 356.162 720.852 356.041 720.692 356.037L720.648 356.04Z" fill="#253368"/>
<path fill-rule="evenodd" clip-rule="evenodd" d="M743.701 489.965L789.132 488.747C790.336 488.715 791.286 487.717 791.253 486.518L790.395 454.777C790.362 453.578 789.36 452.632 788.156 452.665L742.724 453.882C741.521 453.915 740.571 454.913 740.603 456.112L741.462 487.853C741.494 489.051 742.496 489.997 743.701 489.965Z" fill="#4E5C93"/>
<path fill-rule="evenodd" clip-rule="evenodd" d="M745.247 489.923L790.679 488.705C791.882 488.673 792.832 487.675 792.8 486.476L791.941 454.735C791.909 453.537 790.907 452.591 789.703 452.623L744.271 453.841C743.067 453.873 742.118 454.871 742.149 456.07L743.009 487.811C743.041 489.01 744.043 489.956 745.247 489.923Z" fill="#253368"/>
<path fill-rule="evenodd" clip-rule="evenodd" d="M766.393 453.429C767.838 453.905 767.499 455.178 767.686 458.327C767.803 460.295 767.32 462.862 767.84 464.483C768.375 466.155 776.103 467.011 777.85 455.976C777.85 455.976 779.59 443.137 775.982 440.636C772.714 438.372 767.107 442.851 767.107 442.851C767.107 442.851 766.047 444.271 763.933 448.197L761.898 453.247L766.393 453.429Z" fill="#FFC999"/>
<path d="M770.473 453.904C770.358 453.903 770.264 453.994 770.262 454.108L770.259 454.264C770.256 454.393 770.251 454.542 770.245 454.709C770.226 455.189 770.198 455.724 770.158 456.3C770.044 457.945 769.856 459.59 769.578 461.124C769.374 462.253 769.127 463.279 768.836 464.177C768.801 464.286 768.861 464.403 768.97 464.438C769.08 464.473 769.197 464.413 769.232 464.305C769.53 463.387 769.78 462.344 769.988 461.197C770.268 459.647 770.458 457.988 770.573 456.328L770.605 455.841C770.624 455.524 770.64 455.221 770.652 454.936L770.669 454.485L770.678 454.114C770.68 454 770.588 453.906 770.473 453.904Z" fill="#4E5C93"/>
<path d="M772.931 454.568C772.816 454.568 772.723 454.66 772.723 454.775C772.721 455.654 772.648 456.647 772.513 457.734C772.367 458.9 772.154 460.141 771.89 461.414C771.734 462.17 771.568 462.899 771.401 463.583L771.317 463.921C771.249 464.194 771.185 464.438 771.129 464.652L771.057 464.914C771.026 465.024 771.091 465.138 771.202 465.169C771.313 465.2 771.427 465.135 771.458 465.025L771.531 464.758L771.68 464.183L771.721 464.021C771.918 463.237 772.115 462.386 772.298 461.498C772.564 460.214 772.779 458.963 772.926 457.785C773.063 456.682 773.137 455.673 773.139 454.775C773.139 454.661 773.046 454.568 772.931 454.568Z" fill="#4E5C93"/>
<path d="M775.67 455.04C775.556 455.03 775.455 455.115 775.445 455.229L775.406 455.613C775.397 455.692 775.388 455.776 775.377 455.866C775.317 456.378 775.24 456.953 775.142 457.578C774.864 459.366 774.484 461.198 773.987 462.969C773.956 463.079 774.021 463.193 774.132 463.224C774.242 463.255 774.357 463.191 774.388 463.08C774.89 461.292 775.273 459.444 775.554 457.642L775.633 457.114C775.683 456.77 775.726 456.445 775.764 456.139L775.82 455.658L775.86 455.265C775.87 455.151 775.785 455.05 775.67 455.04Z" fill="#4E5C93"/>
<path fill-rule="evenodd" clip-rule="evenodd" d="M767.183 442.984L777.606 443.822L783.76 398.111C784.352 393.205 780.708 388.801 775.757 388.442C770.807 388.082 766.558 391.914 766.43 396.853L767.183 442.984Z" fill="#FFC999"/>
<path d="M761.69 453.243C761.687 453.357 761.778 453.452 761.893 453.454L762.629 453.471C763.07 453.483 763.512 453.495 763.934 453.509L764.964 453.547C765.624 453.575 766.11 453.605 766.369 453.635C767.529 453.772 767.639 455.433 767.165 460.508L767.041 461.842C766.975 462.585 766.93 463.177 766.899 463.743C766.893 463.857 766.981 463.955 767.096 463.961C767.211 463.967 767.309 463.879 767.315 463.765L767.333 463.456C767.359 463.038 767.393 462.593 767.438 462.075L767.679 459.461C767.846 457.584 767.884 456.709 767.83 455.77C767.741 454.208 767.323 453.33 766.418 453.224L766.229 453.205C765.848 453.172 765.224 453.14 764.416 453.111L763.627 453.085L762.497 453.054L761.902 453.04C761.787 453.038 761.692 453.128 761.69 453.243Z" fill="#4E5C93"/>
<path d="M761.977 362.859L761.933 362.861C761.769 362.879 761.648 363.015 761.644 363.175L761.646 363.219L763.961 383.86C763.978 384.017 764.106 384.136 764.261 384.147H764.303L783.169 383.012C783.349 383.001 783.485 382.848 783.474 382.669C783.464 382.506 783.334 382.378 783.174 382.366L783.13 382.366L764.573 383.482L762.292 363.147C762.276 362.999 762.161 362.885 762.02 362.863L761.977 362.859Z" fill="#253368"/>
<path d="M696.941 346.195C696.778 346.179 696.63 346.287 696.593 346.442L696.586 346.485L695.476 357.725C695.461 357.884 695.563 358.028 695.714 358.069L695.757 358.077L721.383 361.517C721.561 361.541 721.724 361.417 721.748 361.24C721.77 361.077 721.667 360.927 721.513 360.884L721.47 360.875L696.154 357.477L697.233 346.549C697.249 346.386 697.141 346.239 696.985 346.202L696.941 346.195Z" fill="#253368"/>
<path fill-rule="evenodd" clip-rule="evenodd" d="M724.796 325.579L720.28 318.129L683.725 338.998C679.81 341.232 678.484 346.415 680.814 350.377C683.144 354.339 688.184 355.472 691.881 352.866L724.796 325.579Z" fill="#FFC999"/>
<path d="M707.562 339.95C707.466 339.837 707.303 339.813 707.18 339.887L707.14 339.915L695.699 349.575C695.573 349.681 695.558 349.869 695.665 349.994C695.761 350.107 695.923 350.131 696.046 350.057L696.086 350.029L707.527 340.369C707.653 340.263 707.668 340.075 707.562 339.95Z" fill="#253368"/>
<path d="M726.408 408.377C726.28 408.377 726.176 408.481 726.176 408.609C726.176 408.724 726.26 408.82 726.371 408.838L726.408 408.841H765.637C765.766 408.841 765.87 408.737 765.87 408.609C765.87 408.494 765.786 408.398 765.675 408.38L765.637 408.377H726.408Z" fill="#597EF7"/>
<path d="M726.893 403.687C726.714 403.687 726.568 403.831 726.568 404.01C726.568 404.174 726.691 404.31 726.849 404.331L726.893 404.334H764.863C765.042 404.334 765.188 404.189 765.188 404.01C765.188 403.846 765.065 403.711 764.907 403.689L764.863 403.687H726.893Z" fill="#253368"/>
<path d="M746.353 404.011C746.237 404.011 746.141 404.095 746.123 404.205L746.12 404.243V440.906C746.12 441.034 746.224 441.138 746.353 441.138C746.469 441.138 746.565 441.053 746.583 440.943L746.586 440.906V404.243C746.586 404.115 746.482 404.011 746.353 404.011Z" fill="#597EF7"/>
<path d="M741.991 440.552C741.862 440.549 741.756 440.65 741.753 440.778C741.75 440.893 741.832 440.991 741.942 441.011L741.98 441.015L749.965 441.202C750.093 441.205 750.2 441.103 750.203 440.975C750.206 440.86 750.124 440.763 750.013 440.742L749.976 440.738L741.991 440.552Z" fill="#597EF7"/>
<path d="M740.575 408.832C740.459 408.832 740.363 408.916 740.345 409.027L740.342 409.064V427.482C740.342 428.957 741.101 430.326 742.346 431.113L742.464 431.185L745.828 433.164C745.939 433.229 746.082 433.193 746.147 433.082C746.205 432.984 746.183 432.861 746.099 432.789L746.065 432.765L742.701 430.786C741.566 430.118 740.855 428.92 740.81 427.613L740.808 427.482V409.064C740.808 408.936 740.704 408.832 740.575 408.832Z" fill="#597EF7"/>
<g opacity="0.1">
<path d="M818.5 353.083C847.541 353.083 871.083 329.541 871.083 300.5C871.083 271.459 847.541 247.917 818.5 247.917C789.459 247.917 765.917 271.459 765.917 300.5C765.917 329.541 789.459 353.083 818.5 353.083Z" fill="#4E5C93"/>
<path d="M818.5 349.327C845.466 349.327 867.327 327.466 867.327 300.5C867.327 273.534 845.466 251.673 818.5 251.673C791.534 251.673 769.673 273.534 769.673 300.5C769.673 327.466 791.534 349.327 818.5 349.327Z" fill="#A3B5D6"/>
<path d="M818.5 347.567C844.494 347.567 865.566 326.494 865.566 300.5C865.566 274.506 844.494 253.434 818.5 253.434C792.506 253.434 771.434 274.506 771.434 300.5C771.434 326.494 792.506 347.567 818.5 347.567Z" fill="#E4EBF7"/>
<path d="M818.5 270.561C819.537 270.561 820.378 271.401 820.378 272.439V299.123H816.622V272.439C816.622 271.401 817.463 270.561 818.5 270.561Z" fill="#253368"/>
<path d="M837.622 300.5C837.622 301.537 836.782 302.378 835.744 302.378H818.5V298.622H835.744C836.782 298.622 837.622 299.463 837.622 300.5Z" fill="#253368"/>
<path d="M818.5 304.843C820.898 304.843 822.843 302.898 822.843 300.5C822.843 298.102 820.898 296.157 818.5 296.157C816.102 296.157 814.157 298.102 814.157 300.5C814.157 302.898 816.102 304.843 818.5 304.843Z" fill="#A3B5D6"/>
<path d="M820.373 261.063C820.373 260.026 819.532 259.185 818.495 259.185C817.458 259.185 816.617 260.026 816.617 261.063V264.819C816.617 265.856 817.458 266.697 818.495 266.697C819.532 266.697 820.373 265.856 820.373 264.819V261.063Z" fill="#CCD7EE"/>
<path d="M789.282 271.288C790.016 270.555 791.205 270.555 791.938 271.288L794.594 273.944C795.327 274.677 795.327 275.866 794.594 276.6C793.861 277.333 792.672 277.333 791.938 276.6L789.282 273.944C788.549 273.21 788.549 272.021 789.282 271.288Z" fill="#CCD7EE"/>
<path d="M777.185 300.505C777.185 299.467 778.026 298.627 779.063 298.627H782.819C783.856 298.627 784.697 299.467 784.697 300.505C784.697 301.542 783.856 302.383 782.819 302.383H779.063C778.026 302.383 777.185 301.542 777.185 300.505Z" fill="#CCD7EE"/>
<path d="M789.289 329.718C788.555 328.985 788.555 327.796 789.289 327.062L791.945 324.406C792.678 323.673 793.867 323.673 794.6 324.406C795.334 325.14 795.334 326.329 794.6 327.062L791.945 329.718C791.211 330.451 790.022 330.451 789.289 329.718Z" fill="#CCD7EE"/>
<path d="M816.627 339.937C816.627 340.974 817.468 341.815 818.505 341.815C819.542 341.815 820.383 340.974 820.383 339.937V336.181C820.383 335.144 819.542 334.303 818.505 334.303C817.468 334.303 816.627 335.144 816.627 336.181V339.937Z" fill="#CCD7EE"/>
<path d="M847.717 329.711C846.984 330.444 845.795 330.444 845.062 329.711L842.406 327.055C841.672 326.322 841.672 325.133 842.406 324.399C843.139 323.666 844.328 323.666 845.062 324.399L847.717 327.055C848.451 327.788 848.451 328.977 847.717 329.711Z" fill="#CCD7EE"/>
<path d="M859.815 300.495C859.815 301.532 858.974 302.373 857.937 302.373H854.181C853.144 302.373 852.303 301.532 852.303 300.495C852.303 299.458 853.144 298.617 854.181 298.617H857.937C858.974 298.617 859.815 299.458 859.815 300.495Z" fill="#CCD7EE"/>
<path d="M847.712 271.283C848.445 272.016 848.445 273.205 847.712 273.939L845.056 276.595C844.322 277.328 843.133 277.328 842.4 276.595C841.667 275.861 841.667 274.672 842.4 273.939L845.056 271.283C845.789 270.55 846.978 270.55 847.712 271.283Z" fill="#CCD7EE"/>
</g>
</svg>
