<svg width="176" height="34" viewBox="0 0 176 34" fill="none" xmlns="http://www.w3.org/2000/svg">
<g filter="url(#filter0_d_165_11365)">
<path fill-rule="evenodd" clip-rule="evenodd" d="M53.6123 3C53.8799 3 54.0372 3.12095 54.123 3.27362C54.2073 3.42381 54.2213 3.60259 54.2088 3.722C54.2084 3.98658 54.1103 4.15118 53.9847 4.24794C53.8607 4.3435 53.7125 4.37086 53.6127 4.36684C49.6126 4.64476 47.936 7.78338 47.5978 9.31747C47.2604 10.8856 47.2091 12.4856 47.2257 13.0888L47.2257 13.0914L47.2253 13.0939C47.0253 14.1937 46.3427 15.101 46.0255 15.4182L46.0248 15.4189L46.024 15.4196C45.5777 15.7965 45.3334 16.0803 45.209 16.281C45.1468 16.3813 45.1151 16.46 45.1027 16.5185C45.0901 16.5776 45.0979 16.6125 45.1092 16.6294L45.113 16.6351L45.1133 16.642C45.1325 17.065 45.3583 17.2485 45.4657 17.2893C46.0531 17.2912 46.4313 17.677 46.6646 18.1512C46.8933 18.6162 46.9855 19.1711 47.0011 19.5501C47.6238 19.5379 47.8127 19.8133 47.822 19.9717L47.8221 19.9732C47.8221 20.1679 47.6725 20.2859 47.4988 20.3541C47.3342 20.4188 47.1398 20.4426 47.002 20.4451C47.0006 20.9592 46.9555 21.2959 46.8986 21.5085C46.8698 21.6165 46.8377 21.6933 46.8062 21.7453C46.7793 21.7896 46.7509 21.8191 46.7226 21.8317C46.4943 22.3927 46.6285 22.8532 46.7234 23.0141C46.9195 23.1991 47.2995 23.4017 47.6987 23.5806C48.0985 23.7597 48.514 23.9135 48.7743 24.0003C49.6836 24.3301 50.5136 24.9729 51.1803 25.6409C51.8471 26.309 52.3528 27.0039 52.6148 27.4405L52.6172 27.4446L52.618 27.4494C52.6492 27.6468 52.5818 27.7816 52.4831 27.8683C52.3859 27.9538 52.26 27.9912 52.1735 27.9999L52.1722 28H34.8278L34.8266 27.9999C34.7401 27.9912 34.6142 27.9538 34.5169 27.8683C34.4183 27.7816 34.3509 27.6468 34.382 27.4494L34.3828 27.4446L34.3853 27.4405C34.6472 27.0039 35.1529 26.309 35.8198 25.6409C36.4865 24.9729 37.3158 24.3303 38.2252 24.0005C38.4854 23.9137 38.9015 23.7597 39.3014 23.5806C39.7006 23.4017 40.0806 23.1991 40.2767 23.0141C40.3715 22.8532 40.5057 22.3927 40.2774 21.8317C40.2492 21.8191 40.2208 21.7896 40.1939 21.7453C40.1623 21.6933 40.1302 21.6165 40.1014 21.5085C40.0446 21.2959 39.9995 20.9592 39.9981 20.4451C39.8602 20.4426 39.6658 20.4188 39.5013 20.3541C39.3275 20.2859 39.178 20.1679 39.178 19.9732L39.178 19.9717C39.1873 19.8133 39.3762 19.5379 39.999 19.5501C40.0145 19.1711 40.1067 18.6162 40.3355 18.1512C40.5687 17.677 40.9469 17.2912 41.5343 17.2893C41.6417 17.2485 41.8675 17.065 41.8867 16.642L41.8871 16.6351L41.8909 16.6294C41.9021 16.6125 41.9099 16.5776 41.8973 16.5185C41.8849 16.46 41.8533 16.3813 41.791 16.281C41.6666 16.0803 41.4223 15.7965 40.976 15.4196L40.9752 15.4189L40.9745 15.4182C40.6573 15.101 39.9748 14.1937 39.7748 13.0939L39.7743 13.0914L39.7744 13.0888C39.7909 12.4856 39.7396 10.8856 39.4022 9.31747C39.064 7.78338 37.3875 4.64476 33.3874 4.36684C33.2875 4.37086 33.1393 4.3435 33.0153 4.24794C32.8897 4.15118 32.7916 3.98658 32.7913 3.722C32.7787 3.60259 32.7928 3.42381 32.8771 3.27362C32.9628 3.12095 33.1201 3 33.3877 3H53.6123Z" fill="url(#paint0_linear_165_11365)" shape-rendering="crispEdges"/>
</g>
<path d="M65.7827 21L68.2427 7H76.8727L76.5127 9.1H70.1527L69.5227 12.67H73.6227L73.2227 14.86H69.1427L68.0527 21H65.7827ZM77.7733 21.24C76.82 21.24 76.0667 20.97 75.5133 20.43C74.9667 19.89 74.6933 19.1733 74.6933 18.28C74.6933 17.52 74.8767 16.8567 75.2433 16.29C75.61 15.7233 76.12 15.2833 76.7733 14.97C77.4333 14.6567 78.2033 14.5 79.0833 14.5C79.5233 14.5 79.9567 14.5533 80.3833 14.66C80.81 14.7667 81.1667 14.9167 81.4533 15.11L81.5933 14.4C81.7133 13.7667 81.6433 13.2833 81.3833 12.95C81.1233 12.61 80.69 12.44 80.0833 12.44C79.5967 12.44 79.0667 12.5333 78.4933 12.72C77.92 12.9 77.3733 13.1567 76.8533 13.49L76.5533 11.71C77.18 11.3233 77.8133 11.0333 78.4533 10.84C79.1 10.64 79.7467 10.54 80.3933 10.54C81.1867 10.54 81.8533 10.7 82.3933 11.02C82.9333 11.34 83.3167 11.79 83.5433 12.37C83.7767 12.9433 83.8267 13.6133 83.6933 14.38L82.5333 21H80.4233L80.5633 20.18C80.2367 20.5067 79.8233 20.7667 79.3233 20.96C78.8233 21.1467 78.3067 21.24 77.7733 21.24ZM78.3333 19.33C78.7667 19.33 79.2133 19.2367 79.6733 19.05C80.1333 18.8567 80.5433 18.5933 80.9033 18.26L81.1433 16.87C80.8633 16.6967 80.5467 16.56 80.1933 16.46C79.84 16.3533 79.48 16.3 79.1133 16.3C78.64 16.3 78.23 16.3733 77.8833 16.52C77.5433 16.66 77.28 16.8633 77.0933 17.13C76.9067 17.39 76.8133 17.6967 76.8133 18.05C76.8133 18.4433 76.95 18.7567 77.2233 18.99C77.4967 19.2167 77.8667 19.33 78.3333 19.33ZM89.3111 21.24C88.1645 21.24 87.2478 20.8433 86.5611 20.05C85.8811 19.25 85.5411 18.18 85.5411 16.84C85.5411 15.6067 85.7611 14.5167 86.2011 13.57C86.6478 12.6233 87.2611 11.8833 88.0411 11.35C88.8278 10.81 89.7311 10.54 90.7511 10.54C91.6378 10.54 92.3945 10.7833 93.0211 11.27C93.6545 11.75 94.0678 12.4067 94.2611 13.24L92.1611 13.94C92.0678 13.5067 91.8778 13.1767 91.5911 12.95C91.3045 12.7167 90.9378 12.6 90.4911 12.6C89.9645 12.6 89.4911 12.7767 89.0711 13.13C88.6578 13.4833 88.3311 13.97 88.0911 14.59C87.8578 15.2033 87.7411 15.9067 87.7411 16.7C87.7411 17.4667 87.8911 18.07 88.1911 18.51C88.4978 18.9433 88.9145 19.16 89.4411 19.16C89.9145 19.16 90.3345 19.0333 90.7011 18.78C91.0678 18.52 91.3611 18.1467 91.5811 17.66L93.4811 18.33C93.1211 19.2367 92.5711 19.95 91.8311 20.47C91.0978 20.9833 90.2578 21.24 89.3111 21.24ZM99.5021 21.24C98.6887 21.24 97.9787 21.0667 97.3721 20.72C96.7721 20.3667 96.3054 19.8667 95.9721 19.22C95.6387 18.5733 95.4721 17.8033 95.4721 16.91C95.4721 16.07 95.5987 15.27 95.8521 14.51C96.1054 13.7433 96.4654 13.0633 96.9321 12.47C97.4054 11.87 97.9754 11.4 98.6421 11.06C99.3087 10.7133 100.059 10.54 100.892 10.54C101.672 10.54 102.342 10.7 102.902 11.02C103.462 11.34 103.892 11.7967 104.192 12.39C104.499 12.9833 104.652 13.6967 104.652 14.53C104.652 14.9233 104.615 15.3033 104.542 15.67C104.475 16.0367 104.385 16.3933 104.272 16.74H97.6821C97.6821 17.2733 97.7621 17.7333 97.9221 18.12C98.0821 18.5 98.3154 18.7933 98.6221 19C98.9287 19.2 99.3087 19.3 99.7621 19.3C100.155 19.3 100.555 19.2167 100.962 19.05C101.375 18.8767 101.749 18.6333 102.082 18.32L103.162 19.78C102.682 20.2267 102.142 20.5833 101.542 20.85C100.949 21.11 100.269 21.24 99.5021 21.24ZM98.0021 14.87H102.512C102.559 14.3967 102.522 13.98 102.402 13.62C102.282 13.26 102.079 12.9767 101.792 12.77C101.512 12.5633 101.149 12.46 100.702 12.46C100.222 12.46 99.7987 12.5633 99.4321 12.77C99.0721 12.9767 98.7721 13.2633 98.5321 13.63C98.2921 13.99 98.1154 14.4033 98.0021 14.87ZM107.399 21L107.139 7H109.389V15.62C109.389 15.7933 109.389 15.9667 109.389 16.14C109.389 16.3067 109.385 16.4733 109.379 16.64C109.439 16.4733 109.499 16.3133 109.559 16.16C109.625 16 109.699 15.82 109.779 15.62L113.449 7H115.319L115.989 15.67C116.002 15.8167 116.012 15.9833 116.019 16.17C116.032 16.3567 116.039 16.5167 116.039 16.65C116.085 16.51 116.135 16.36 116.189 16.2C116.242 16.0333 116.302 15.8667 116.369 15.7L119.499 7H121.859L116.579 21H114.529L113.769 12.42C113.762 12.3067 113.752 12.1767 113.739 12.03C113.732 11.8833 113.725 11.7333 113.719 11.58C113.719 11.42 113.715 11.2733 113.709 11.14C113.675 11.2667 113.619 11.4367 113.539 11.65C113.459 11.8567 113.369 12.0733 113.269 12.3L109.449 21H107.399ZM121.533 21L123.333 10.78H125.493L123.693 21H121.533ZM124.673 9.24C124.373 9.24 124.119 9.13667 123.913 8.93C123.713 8.72333 123.613 8.47 123.613 8.17C123.613 7.77 123.759 7.42 124.053 7.12C124.346 6.82 124.689 6.67 125.083 6.67C125.396 6.67 125.649 6.77 125.843 6.97C126.043 7.17 126.143 7.42667 126.143 7.74C126.143 8.14 125.993 8.49 125.693 8.79C125.399 9.09 125.059 9.24 124.673 9.24ZM129.491 21.24C128.711 21.24 128.154 20.9933 127.821 20.5C127.487 20 127.404 19.28 127.571 18.34L128.551 12.7H126.931L127.271 10.78H128.881L129.501 7.32L131.781 6.56L131.041 10.78H133.311L132.981 12.7H130.711L129.751 18.05C129.671 18.53 129.677 18.86 129.771 19.04C129.871 19.22 130.091 19.31 130.431 19.31C130.671 19.31 130.907 19.2767 131.141 19.21C131.374 19.1433 131.654 19.03 131.981 18.87L131.511 20.8C130.957 21.0933 130.284 21.24 129.491 21.24ZM133.447 21L135.837 7.32L138.147 6.56L137.207 11.85C137.54 11.4367 137.937 11.1167 138.397 10.89C138.857 10.6567 139.333 10.54 139.827 10.54C140.6 10.54 141.223 10.7167 141.697 11.07C142.17 11.4233 142.487 11.9433 142.647 12.63C142.813 13.31 142.807 14.15 142.627 15.15L141.587 21H139.447L140.487 15.14C140.64 14.2733 140.6 13.6267 140.367 13.2C140.133 12.7733 139.707 12.56 139.087 12.56C138.48 12.56 137.953 12.7833 137.507 13.23C137.067 13.67 136.78 14.2533 136.647 14.98L135.587 21H133.447Z" fill="white"/>
<defs>
<filter id="filter0_d_165_11365" x="30.7873" y="1" width="29.4255" height="33" filterUnits="userSpaceOnUse" color-interpolation-filters="sRGB">
<feFlood flood-opacity="0" result="BackgroundImageFix"/>
<feColorMatrix in="SourceAlpha" type="matrix" values="0 0 0 0 0 0 0 0 0 0 0 0 0 0 0 0 0 0 127 0" result="hardAlpha"/>
<feOffset dx="2" dy="2"/>
<feGaussianBlur stdDeviation="2"/>
<feComposite in2="hardAlpha" operator="out"/>
<feColorMatrix type="matrix" values="0 0 0 0 0 0 0 0 0 0 0 0 0 0 0 0 0 0 0.12 0"/>
<feBlend mode="normal" in2="BackgroundImageFix" result="effect1_dropShadow_165_11365"/>
<feBlend mode="normal" in="SourceGraphic" in2="effect1_dropShadow_165_11365" result="shape"/>
</filter>
<linearGradient id="paint0_linear_165_11365" x1="55.2028" y1="20.4453" x2="32.7873" y2="12.9901" gradientUnits="userSpaceOnUse">
<stop stop-color="#D9D9D9" stop-opacity="0"/>
<stop offset="0.0001" stop-color="#00D1FF"/>
<stop offset="0.973958" stop-color="#0052D9"/>
</linearGradient>
</defs>
</svg>
