<svg width="146" height="102" viewBox="0 0 146 102" fill="none" xmlns="http://www.w3.org/2000/svg">
<mask id="mask0_69806_226046" style="mask-type:alpha" maskUnits="userSpaceOnUse" x="0" y="42" width="88" height="60">
<path d="M0 42H88V102H0V42Z" fill="#97A3B7"/>
</mask>
<g mask="url(#mask0_69806_226046)">
<path d="M0 42H88V102H0V42Z" fill="#97A3B7"/>
<g filter="url(#filter0_f_69806_226046)">
<rect x="-18" y="64" width="80" height="60" fill="#E3E6EB"/>
</g>
<g filter="url(#filter1_f_69806_226046)">
<rect x="50" y="34" width="80" height="60" fill="#E3E6EB"/>
</g>
</g>
<path d="M19 73L12 80L19 87" stroke="white" stroke-width="2"/>
<path d="M39 87L46 80L39 73" stroke="white" stroke-width="2"/>
<path d="M32.3647 67.4434L25.6355 92.5574" stroke="white" stroke-width="2"/>
<path d="M33 0H121V60H33V0Z" fill="#266FE8"/>
<mask id="mask1_69806_226046" style="mask-type:alpha" maskUnits="userSpaceOnUse" x="33" y="10" width="88" height="50">
<path d="M33 10H121V60H33V10Z" fill="#0052D9"/>
</mask>
<g mask="url(#mask1_69806_226046)">
<path d="M33 10H121V60H33V10Z" fill="#0052D9"/>
<g opacity="0.3" filter="url(#filter2_f_69806_226046)">
<path d="M0 42H88V102H0V42Z" fill="#97A3B7"/>
</g>
</g>
<path fill-rule="evenodd" clip-rule="evenodd" d="M75.25 21C82.0155 21 87.5 26.4845 87.5 33.25C87.5 35.6827 86.7909 37.9498 85.5681 39.8558L91 45.2877L87.2877 49L81.8558 43.5681C79.9498 44.7909 77.6827 45.5 75.25 45.5C68.4845 45.5 63 40.0155 63 33.25C63 26.4845 68.4845 21 75.25 21ZM75.25 24.5C70.4175 24.5 66.5 28.4175 66.5 33.25C66.5 38.0825 70.4175 42 75.25 42C80.0825 42 84 38.0825 84 33.25C84 28.4175 80.0825 24.5 75.25 24.5Z" fill="white"/>
<rect x="38" y="4" width="2" height="2" fill="white"/>
<rect x="44" y="4" width="2" height="2" fill="white"/>
<rect x="50" y="4" width="66" height="2" fill="white"/>
<path fill-rule="evenodd" clip-rule="evenodd" d="M123 36C110.85 36 101 45.8497 101 58C101 62.6039 102.414 66.8776 104.832 70.4102L97 78.5L109.495 75.3681C113.222 78.2709 117.909 80 123 80C135.15 80 145 70.1503 145 58C145 45.8497 135.15 36 123 36Z" fill="white"/>
<path d="M101 58H101.5H101ZM104.832 70.4102L105.191 70.758L105.475 70.4647L105.245 70.1278L104.832 70.4102ZM97 78.5L96.6408 78.1522L95.4221 79.411L97.1216 78.985L97 78.5ZM109.495 75.3681L109.802 74.9736L109.61 74.8238L109.373 74.8831L109.495 75.3681ZM123 80V80.5V80ZM145 58H144.5H145ZM101.5 58C101.5 46.1259 111.126 36.5 123 36.5V35.5C110.574 35.5 100.5 45.5736 100.5 58H101.5ZM105.245 70.1278C102.882 66.6757 101.5 62.5 101.5 58H100.5C100.5 62.7079 101.946 67.0794 104.419 70.6926L105.245 70.1278ZM104.473 70.0624L96.6408 78.1522L97.3592 78.8478L105.191 70.758L104.473 70.0624ZM97.1216 78.985L109.616 75.8531L109.373 74.8831L96.8784 78.015L97.1216 78.985ZM123 79.5C118.024 79.5 113.445 77.8105 109.802 74.9736L109.187 75.7626C113 78.7314 117.794 80.5 123 80.5V79.5ZM144.5 58C144.5 69.8741 134.874 79.5 123 79.5V80.5C135.426 80.5 145.5 70.4264 145.5 58H144.5ZM123 36.5C134.874 36.5 144.5 46.1259 144.5 58H145.5C145.5 45.5736 135.426 35.5 123 35.5V36.5Z" fill="#181818"/>
<defs>
<filter id="filter0_f_69806_226046" x="-68" y="14" width="180" height="160" filterUnits="userSpaceOnUse" color-interpolation-filters="sRGB">
<feFlood flood-opacity="0" result="BackgroundImageFix"/>
<feBlend mode="normal" in="SourceGraphic" in2="BackgroundImageFix" result="shape"/>
<feGaussianBlur stdDeviation="25" result="effect1_foregroundBlur_69806_226046"/>
</filter>
<filter id="filter1_f_69806_226046" x="0" y="-16" width="180" height="160" filterUnits="userSpaceOnUse" color-interpolation-filters="sRGB">
<feFlood flood-opacity="0" result="BackgroundImageFix"/>
<feBlend mode="normal" in="SourceGraphic" in2="BackgroundImageFix" result="shape"/>
<feGaussianBlur stdDeviation="25" result="effect1_foregroundBlur_69806_226046"/>
</filter>
<filter id="filter2_f_69806_226046" x="-6" y="36" width="100" height="72" filterUnits="userSpaceOnUse" color-interpolation-filters="sRGB">
<feFlood flood-opacity="0" result="BackgroundImageFix"/>
<feBlend mode="normal" in="SourceGraphic" in2="BackgroundImageFix" result="shape"/>
<feGaussianBlur stdDeviation="3" result="effect1_foregroundBlur_69806_226046"/>
</filter>
</defs>
</svg>
