<svg width="64" height="64" viewBox="0 0 64 64" fill="none" xmlns="http://www.w3.org/2000/svg">
<g clip-path="url(#clip0_9_31)">
<path d="M46.2222 24.8889C46.2222 15.0667 35.8778 7.11111 23.1111 7.11111C10.3444 7.11111 0 15.0667 0 24.8889C0 28.7 1.56667 32.2111 4.22222 35.1111C2.73333 38.4667 0.277778 41.1333 0.244444 41.1667C0 41.4222 -0.0666667 41.8 0.0777778 42.1333C0.222222 42.4667 0.533333 42.6667 0.888889 42.6667C4.95556 42.6667 8.32222 41.3 10.7444 39.8889C14.3222 41.6333 18.5556 42.6667 23.1111 42.6667C35.8778 42.6667 46.2222 34.7111 46.2222 24.8889ZM59.7778 49.3333C62.4333 46.4444 64 42.9222 64 39.1111C64 31.6778 58.0556 25.3111 49.6333 22.6556C49.7333 23.3889 49.7778 24.1333 49.7778 24.8889C49.7778 36.6556 37.8111 46.2222 23.1111 46.2222C21.9111 46.2222 20.7444 46.1333 19.5889 46.0111C23.0889 52.4 31.3111 56.8889 40.8889 56.8889C45.4444 56.8889 49.6778 55.8667 53.2556 54.1111C55.6778 55.5222 59.0444 56.8889 63.1111 56.8889C63.4667 56.8889 63.7889 56.6778 63.9222 56.3556C64.0667 56.0333 64 55.6556 63.7556 55.3889C63.7222 55.3556 61.2667 52.7 59.7778 49.3333Z" fill="white"/>
</g>
<defs>
<clipPath id="clip0_9_31">
<rect width="64" height="64" fill="white"/>
</clipPath>
</defs>
</svg>
