<svg width="21" height="20" viewBox="0 0 21 20" fill="none" xmlns="http://www.w3.org/2000/svg">
<path d="M19.4709 10.8956L17.0401 2.61878V2.61655C16.8705 2.10539 16.4665 1.80182 15.962 1.80182C15.4397 1.80182 15.0133 2.10316 14.8526 2.58753L13.2589 7.342H7.74993L6.15618 2.58753C5.99547 2.10316 5.56913 1.80182 5.04681 1.80182C4.53118 1.80182 4.09815 2.13218 3.96645 2.61878L1.53788 10.8956C1.43967 11.2237 1.56467 11.5965 1.83922 11.8041L10.0647 17.9737C10.1227 18.0541 10.2031 18.1143 10.2968 18.1478L10.4888 18.2907L10.6785 18.1478C10.7879 18.1099 10.8794 18.0429 10.9441 17.9491L19.1673 11.8018C19.4441 11.5965 19.5691 11.2237 19.4709 10.8956ZM15.8504 2.88664C15.8727 2.84646 15.9151 2.84423 15.9285 2.84423C15.9531 2.84423 15.9843 2.85093 16.0044 2.91119L17.3303 7.37102H14.3504L15.8504 2.88664ZM4.97092 2.90896C4.991 2.85093 5.02225 2.84423 5.04681 2.84423C5.10708 2.84423 5.11154 2.84646 5.1227 2.88218L6.62493 7.37325H3.68074L4.97092 2.90896ZM2.616 11.0407L3.24547 8.86878L7.76333 14.9L2.616 11.0407ZM4.26556 8.44244H6.991L9.01779 14.7884L4.26556 8.44244ZM10.52 15.8911L8.12717 8.44244H12.9106L10.52 15.8911ZM14.0446 8.44244H16.712L12.0178 14.7103L14.0446 8.44244ZM13.1361 15.0027L17.7633 8.82637L18.4218 11.0407L13.1361 15.0027Z" fill="black" fill-opacity="0.85"/>
</svg>
