<svg width="965" height="810" viewBox="0 0 965 810" fill="none" xmlns="http://www.w3.org/2000/svg">
<circle cx="768.424" cy="396.424" r="282.693" fill="#597EF7"/>
<circle cx="249.243" cy="496.243" r="162.19" fill="#FAAD14"/>
<path d="M841.2 579H638.8C633.94 579 630 583.029 630 588C630 592.971 633.94 597 638.8 597H841.2C846.06 597 850 592.971 850 588C850 583.029 846.06 579 841.2 579Z" fill="#E4EBF7"/>
<path d="M318.18 570H188.82C183.949 570 180 574.029 180 579C180 583.971 183.949 588 188.82 588H318.18C323.051 588 327 583.971 327 579C327 574.029 323.051 570 318.18 570Z" fill="#E4EBF7"/>
<path fill-rule="evenodd" clip-rule="evenodd" d="M708.771 279.157H284.512V249.775C284.512 243.402 289.679 238.234 296.052 238.234H697.232C703.605 238.234 708.771 243.402 708.771 249.775V279.157Z" fill="#253368"/>
<path fill-rule="evenodd" clip-rule="evenodd" d="M314.262 257.448C314.262 261.448 311.039 264.691 307.064 264.691C303.09 264.691 299.868 261.448 299.868 257.448C299.868 253.448 303.09 250.205 307.064 250.205C311.039 250.205 314.262 253.448 314.262 257.448Z" fill="#FF7946"/>
<path fill-rule="evenodd" clip-rule="evenodd" d="M341.133 257.448C341.133 261.448 337.911 264.691 333.936 264.691C329.961 264.691 326.739 261.448 326.739 257.448C326.739 253.448 329.961 250.205 333.936 250.205C337.911 250.205 341.133 253.448 341.133 257.448Z" fill="#FAAD14"/>
<path fill-rule="evenodd" clip-rule="evenodd" d="M368.004 257.448C368.004 261.448 364.782 264.691 360.807 264.691C356.833 264.691 353.611 261.448 353.611 257.448C353.611 253.448 356.833 250.205 360.807 250.205C364.782 250.205 368.004 253.448 368.004 257.448Z" fill="#7CB305"/>
<path fill-rule="evenodd" clip-rule="evenodd" d="M296.937 562.394C289.84 562.394 284.086 557.234 284.086 550.869V276.444H708.367V550.869C708.367 557.234 702.613 562.394 695.516 562.394H296.937Z" fill="#E4EBF7"/>
<path d="M675.217 297.487H315.878C313.049 297.487 310.757 299.789 310.757 302.629V533.389C310.757 536.229 313.049 538.531 315.878 538.531H675.217C678.046 538.531 680.338 536.229 680.338 533.389V302.629C680.338 299.789 678.046 297.487 675.217 297.487Z" fill="white"/>
<path d="M487.927 331.922H354.573C349.312 331.922 345.048 336.204 345.048 341.487C345.048 346.77 349.312 351.052 354.573 351.052H487.927C493.188 351.052 497.453 346.77 497.453 341.487C497.453 336.204 493.188 331.922 487.927 331.922Z" fill="#FF7946"/>
<path d="M602.231 446.705H354.573C349.312 446.705 345.048 450.987 345.048 456.27C345.048 461.553 349.312 465.835 354.573 465.835H602.231C607.491 465.835 611.756 461.553 611.756 456.27C611.756 450.987 607.491 446.705 602.231 446.705Z" fill="#ADC6FF"/>
<path d="M564.13 484.966H354.573C349.312 484.966 345.048 489.248 345.048 494.531C345.048 499.814 349.312 504.096 354.573 504.096H564.13C569.39 504.096 573.655 499.814 573.655 494.531C573.655 489.248 569.39 484.966 564.13 484.966Z" fill="#7CB305"/>
<path d="M526.028 408.444H354.573C349.312 408.444 345.048 412.726 345.048 418.009C345.048 423.292 349.312 427.574 354.573 427.574H526.028C531.289 427.574 535.554 423.292 535.554 418.009C535.554 412.726 531.289 408.444 526.028 408.444Z" fill="#FAAD14"/>
<path d="M640.332 370.183H354.573C349.312 370.183 345.048 374.465 345.048 379.748C345.048 385.031 349.312 389.313 354.573 389.313H640.332C645.593 389.313 649.857 385.031 649.857 379.748C649.857 374.465 645.593 370.183 640.332 370.183Z" fill="#597EF7"/>
<path fill-rule="evenodd" clip-rule="evenodd" d="M249.982 462.473C249.982 462.473 249.4 472.135 240.559 471.452C231.544 470.757 232.514 461.004 232.514 461.004C232.514 461.004 232.075 454.943 232.704 446.791C233.195 440.421 233.95 432.102 234.653 428.057C235.411 423.69 239.435 420.809 243.575 421.129C249.869 421.614 252.004 426.685 251.865 431.091C251.729 435.377 251.526 442.428 251.271 447.147C250.783 456.223 249.982 462.473 249.982 462.473Z" fill="#ADC6FF"/>
<path fill-rule="evenodd" clip-rule="evenodd" d="M269.719 474.257C270.783 478.23 279.632 476.881 279.632 476.881L283.969 480.412C284.657 480.887 284.951 480.424 285.325 480.509C286.332 480.738 286.574 479.681 286.574 479.681C286.959 479.594 287.457 479.988 287.827 479.064C287.827 479.064 288.544 479.174 288.789 478.33C288.881 478.016 287.496 473.761 286.67 471.272C286.306 470.179 285.36 469.384 284.222 469.213L273.631 467.618C273.631 467.618 268.288 468.913 269.719 474.257Z" fill="#C99382"/>
<path d="M278.982 474.108C278.861 474.056 278.721 474.113 278.669 474.234C278.623 474.341 278.663 474.464 278.757 474.526L278.795 474.546L281.923 475.881L285.046 480.182C285.115 480.276 285.24 480.305 285.342 480.256L285.379 480.234C285.473 480.166 285.503 480.04 285.454 479.939L285.432 479.902L282.27 475.549C282.253 475.525 282.232 475.505 282.208 475.49L282.171 475.469L278.982 474.108Z" fill="#9B6160"/>
<path d="M281.109 472.796C280.994 472.731 280.849 472.772 280.784 472.886C280.727 472.988 280.753 473.114 280.839 473.187L280.875 473.211L283.746 474.829L286.292 479.281C286.35 479.382 286.472 479.425 286.578 479.387L286.617 479.369C286.719 479.311 286.761 479.19 286.724 479.083L286.706 479.044L284.127 474.536C284.113 474.511 284.095 474.489 284.073 474.471L284.038 474.446L281.109 472.796Z" fill="#9B6160"/>
<path d="M283.169 471.583C283.066 471.501 282.916 471.519 282.835 471.622C282.762 471.714 282.768 471.842 282.843 471.927L282.874 471.956L284.808 473.486L287.13 478.264C287.181 478.369 287.299 478.42 287.408 478.389L287.448 478.374C287.554 478.323 287.604 478.204 287.574 478.096L287.558 478.055L285.212 473.229C285.201 473.207 285.188 473.188 285.172 473.17L285.145 473.146L283.169 471.583Z" fill="#9B6160"/>
<path fill-rule="evenodd" clip-rule="evenodd" d="M241.635 455.73C241.635 455.73 232.725 453.856 230.916 461.25C229.05 468.877 237.514 471.07 237.514 471.07C237.514 471.07 243.508 472.467 250.888 474.221C255.393 475.291 260.392 476.374 264.134 476.639C268.186 476.927 269.103 474.855 270.007 471.157C271.081 466.766 271.079 464.842 267.328 463.337C263.752 461.902 258.725 460.61 254.873 459.432C247.531 457.187 241.635 455.73 241.635 455.73Z" fill="#ADC6FF"/>
<path fill-rule="evenodd" clip-rule="evenodd" d="M271.874 476.04L273.966 467.49L268.34 465.46L265.946 475.242L271.874 476.04Z" fill="#ADC6FF"/>
<path fill-rule="evenodd" clip-rule="evenodd" d="M278.038 491.685C260.341 487.088 242.001 482.516 227.328 479.213C227.328 479.213 216.255 478.609 215.669 488.715C215.096 498.622 227.058 501.565 227.058 501.565L275.114 509.034C275.114 509.034 282.954 510.164 284.264 501.465C285.458 493.53 278.038 491.685 278.038 491.685Z" fill="#597EF7"/>
<path fill-rule="evenodd" clip-rule="evenodd" d="M274.92 538.508C271.778 537.878 268.87 540.34 268.981 543.542C269.109 547.227 269.256 552.205 269.342 557.568C269.431 563.087 269.515 567.661 269.91 568.242C271.65 570.801 275.127 571.753 278.7 574.289C281.528 576.296 282.016 577.249 285.62 577.924C290.728 578.881 288.347 576.714 282.675 569.86C277.622 563.754 277.962 560.89 277.962 560.89L278.902 543.646C279.036 541.182 277.34 538.993 274.92 538.508Z" fill="#C99382"/>
<path fill-rule="evenodd" clip-rule="evenodd" d="M282.162 568.239C285.853 572.341 290.082 575.583 289.98 577.531C289.877 579.479 288.341 581.238 281.987 578.984C277.639 577.44 278.883 576.507 274.733 573.807C272.66 572.458 271.904 572.603 269.993 571.034C268.898 569.625 269.391 562.784 269.391 562.784L276.665 570.754C276.665 570.754 274.774 567.042 276.328 566.237C277.881 565.433 279.312 564.885 280.229 565.545C281.145 566.205 282.162 568.239 282.162 568.239Z" fill="#7D4556"/>
<path fill-rule="evenodd" clip-rule="evenodd" d="M285.763 501.6C283.378 530.558 280.662 558.892 280.662 558.892L268.403 558.883L266.488 500.558C266.488 500.558 267.563 493.866 277.033 492.647C285.742 491.527 285.763 501.6 285.763 501.6Z" fill="#597EF7"/>
<path fill-rule="evenodd" clip-rule="evenodd" d="M197.837 492.306C198.94 480.626 199.233 474.62 200.542 472.426C228.694 473.231 235.706 472.86 235.706 472.86C235.706 472.86 235.993 476.992 237.29 489.711C237.29 489.711 228.623 505.504 217.439 505.504C207.355 505.504 197.837 492.306 197.837 492.306Z" fill="#597EF7"/>
<path fill-rule="evenodd" clip-rule="evenodd" d="M200.542 472.426L201.075 467.129L235.546 467.542L235.707 472.848C235.707 472.848 217.463 473.551 200.542 472.426Z" fill="#597EF7"/>
<path fill-rule="evenodd" clip-rule="evenodd" d="M216.04 402.298C216.04 402.298 211.252 399.364 213.169 394.151C211.227 389.492 213.956 386.813 213.956 386.813C213.956 386.813 214.352 380.846 218.325 380.708C221.124 374.708 227.968 377.46 227.968 377.46C227.968 377.46 232.606 374.046 238.729 379.35C243.381 379.752 243.515 377.439 244.932 379.124C246.349 380.808 246.829 384.61 244.757 385.993C248.129 387.651 244.713 392.97 244.713 392.97C244.713 392.97 245.681 396.198 241.586 398.383C237.491 400.568 235.599 408.03 228.873 410.069C222.401 412.031 215.764 409.657 216.04 402.298Z" fill="#7D4556"/>
<path fill-rule="evenodd" clip-rule="evenodd" d="M217.992 413.627L219.938 403.415L233.496 405.818L233.162 414.827C233.014 418.849 229.578 421.957 225.561 421.702C225.484 421.698 225.408 421.693 225.331 421.688C221.223 421.429 217.492 417.712 217.992 413.627Z" fill="#C99382"/>
<path fill-rule="evenodd" clip-rule="evenodd" d="M223.592 387.826C223.592 387.826 224.326 391.49 221.493 392.326C221.896 397.043 219.863 396.597 219.863 396.597C219.863 396.597 216.67 392.366 214.366 395.972C212.176 399.397 215.777 404.562 219.208 403.832C224.745 413.044 236.122 413.696 239.994 407.789C242.346 404.199 241.602 398.907 241.935 396.432C242.753 390.351 241.661 388.487 241.661 388.487C241.661 388.487 239.322 388.942 236.809 386.987C234.037 388.966 230.154 386.892 230.154 386.892C230.154 386.892 227.468 390.201 223.592 387.826Z" fill="#C99382"/>
<path d="M217.263 396.724C216.48 396.556 215.941 396.751 215.644 397.19C215.511 397.387 215.456 397.582 215.444 397.725C215.431 397.868 215.537 397.993 215.68 398.006C215.822 398.018 215.948 397.912 215.96 397.77C215.966 397.707 215.998 397.593 216.074 397.481C216.248 397.223 216.572 397.106 217.155 397.231C217.705 397.348 218.161 397.773 218.425 398.34C218.535 398.578 218.598 398.818 218.605 399.007C218.611 399.146 218.586 399.217 218.581 399.219C218.047 399.513 217.629 399.936 217.49 400.404C217.312 401.004 217.6 401.59 218.357 402.078C218.477 402.155 218.638 402.121 218.715 402C218.793 401.88 218.758 401.72 218.638 401.642C218.06 401.269 217.882 400.907 217.987 400.551C218.081 400.236 218.405 399.908 218.831 399.674C219.692 399.203 218.68 397.026 217.263 396.724Z" fill="#9B6160"/>
<path d="M218.027 398.629C217.788 398.6 217.54 398.592 217.304 398.615C216.661 398.68 216.229 398.979 216.231 399.579C216.232 399.722 216.348 399.837 216.492 399.837C216.635 399.836 216.75 399.72 216.75 399.576C216.749 399.309 216.946 399.172 217.355 399.131C217.549 399.112 217.76 399.119 217.965 399.144L218.059 399.157C218.085 399.161 218.106 399.164 218.119 399.167C218.26 399.194 218.396 399.102 218.423 398.962C218.45 398.821 218.358 398.685 218.218 398.658L218.12 398.642C218.093 398.638 218.062 398.634 218.027 398.629Z" fill="#9B6160"/>
<path fill-rule="evenodd" clip-rule="evenodd" d="M232.582 396.365C232.366 398.854 230.175 400.698 227.685 400.483C225.196 400.268 223.353 398.076 223.568 395.587C223.782 393.098 225.975 391.254 228.464 391.469C230.954 391.684 232.797 393.876 232.582 396.365Z" fill="white"/>
<path d="M228.491 391.151C231.156 391.381 233.13 393.728 232.9 396.393C232.669 399.057 230.323 401.03 227.658 400.801C224.994 400.571 223.02 398.224 223.251 395.559C223.476 392.939 225.751 390.986 228.361 391.142L228.491 391.151ZM223.886 395.614C223.686 397.928 225.399 399.966 227.713 400.166C230.027 400.365 232.064 398.652 232.264 396.338C232.464 394.024 230.751 391.986 228.437 391.786C226.123 391.586 224.085 393.3 223.886 395.614Z" fill="#7D4556"/>
<path fill-rule="evenodd" clip-rule="evenodd" d="M243.549 396.887C243.334 399.377 241.143 401.22 238.653 401.005C236.164 400.79 234.32 398.598 234.535 396.109C234.75 393.62 236.942 391.776 239.431 391.991C241.921 392.206 243.764 394.398 243.549 396.887Z" fill="white"/>
<path d="M239.459 391.673C242.124 391.904 244.097 394.25 243.867 396.915C243.636 399.58 241.29 401.552 238.625 401.323C235.961 401.093 233.987 398.746 234.218 396.081C234.444 393.461 236.718 391.508 239.328 391.664L239.459 391.673ZM234.853 396.136C234.652 398.45 236.366 400.488 238.68 400.688C240.994 400.887 243.031 399.174 243.232 396.86C243.432 394.546 241.718 392.508 239.404 392.308C237.09 392.109 235.052 393.823 234.853 396.136Z" fill="#7D4556"/>
<path d="M233.694 395.626C233.57 395.697 233.526 395.855 233.597 395.98L233.662 396.098C233.715 396.195 233.774 396.305 233.838 396.427C234.02 396.777 234.202 397.148 234.371 397.527C234.524 397.868 234.659 398.198 234.772 398.511C235.153 399.565 235.241 400.327 235.002 400.602C234.734 400.911 234.383 401.094 233.964 401.169C233.536 401.246 233.07 401.208 232.616 401.097C232.445 401.055 232.318 401.014 232.252 400.988C232.118 400.936 231.968 401.002 231.916 401.135C231.864 401.269 231.93 401.419 232.063 401.471L232.152 401.503C232.238 401.532 232.353 401.567 232.492 401.601C233.011 401.728 233.547 401.771 234.056 401.68C234.586 401.584 235.043 401.346 235.393 400.942C235.809 400.464 235.706 399.569 235.26 398.335C235.142 398.009 235.002 397.667 234.844 397.315C234.67 396.926 234.484 396.546 234.298 396.188L234.174 395.954L234.048 395.724C233.977 395.599 233.819 395.556 233.694 395.626Z" fill="#9B6160"/>
<path fill-rule="evenodd" clip-rule="evenodd" d="M228.916 402.63C228.916 402.63 233.045 403.467 236.065 403.248C236.065 403.248 234.973 406.155 232.025 405.54C229.407 404.994 228.916 402.63 228.916 402.63Z" fill="white"/>
<path d="M228.97 402.363L229.512 402.464C229.942 402.54 230.417 402.617 230.922 402.688C232.002 402.84 233.066 402.947 234.059 402.991C234.785 403.023 235.451 403.019 236.045 402.976C236.243 402.962 236.39 403.158 236.32 403.344L236.285 403.43C236.249 403.513 236.197 403.621 236.128 403.749C235.969 404.044 235.77 404.339 235.53 404.615C234.653 405.623 233.468 406.119 231.969 405.807C230.891 405.582 230.067 405.052 229.47 404.312C229.186 403.96 228.972 403.583 228.818 403.205C228.725 402.977 228.672 402.796 228.649 402.686C228.609 402.494 228.778 402.325 228.97 402.363ZM229.417 403.001L229.316 402.982L229.323 403C229.457 403.33 229.645 403.661 229.894 403.97C230.415 404.615 231.13 405.075 232.081 405.273C233.37 405.542 234.363 405.126 235.119 404.258L235.242 404.109C235.361 403.959 235.466 403.804 235.56 403.647L235.618 403.545L235.609 403.545C235.12 403.564 234.594 403.56 234.035 403.535C233.022 403.491 231.942 403.381 230.846 403.227C230.335 403.155 229.854 403.078 229.417 403.001Z" fill="#7D4556"/>
<path d="M236.245 390.503C236.114 390.427 235.948 390.472 235.872 390.602C235.797 390.732 235.841 390.899 235.971 390.974C237.369 391.785 239.154 392.114 241.025 391.769C241.173 391.742 241.271 391.6 241.243 391.452C241.216 391.304 241.074 391.206 240.926 391.233C239.186 391.554 237.532 391.25 236.245 390.503Z" fill="#7D4556"/>
<path d="M233.96 394.648C233.447 394.582 232.906 394.582 232.397 394.623L232.201 394.641L232.116 394.651L232.2 395.283L232.381 395.264C232.402 395.262 232.425 395.26 232.448 395.258C232.916 395.221 233.416 395.22 233.878 395.28C234.155 395.316 234.402 395.373 234.611 395.451L234.713 395.491L234.966 394.906C234.676 394.781 234.338 394.697 233.96 394.648Z" fill="#7D4556"/>
<path d="M239.134 395.417C238.358 395.35 237.79 395.687 237.43 396.271C237.24 396.579 237.144 396.883 237.109 397.098C237.08 397.272 237.198 397.436 237.372 397.464C237.545 397.493 237.709 397.375 237.738 397.201L237.748 397.15C237.756 397.117 237.768 397.074 237.784 397.023C237.829 396.88 237.891 396.737 237.972 396.606C238.214 396.214 238.562 396.007 239.079 396.052C239.551 396.093 239.822 396.332 239.968 396.735C240.046 396.951 240.077 397.181 240.077 397.381L240.074 397.498C240.059 397.674 240.188 397.828 240.364 397.843C240.525 397.857 240.668 397.749 240.702 397.596L240.71 397.539C240.71 397.533 240.711 397.525 240.712 397.507C240.726 397.212 240.692 396.862 240.567 396.518C240.342 395.895 239.871 395.48 239.134 395.417Z" fill="#7D4556"/>
<path d="M228.291 394.48C227.515 394.413 226.948 394.751 226.587 395.335C226.397 395.643 226.301 395.946 226.266 396.162C226.237 396.335 226.355 396.499 226.528 396.528C226.686 396.554 226.836 396.459 226.884 396.311L226.914 396.177C226.921 396.151 226.93 396.121 226.941 396.087C226.986 395.944 227.048 395.801 227.129 395.67C227.371 395.278 227.719 395.071 228.236 395.116C228.708 395.156 228.979 395.395 229.125 395.799C229.203 396.014 229.234 396.245 229.235 396.444L229.231 396.562C229.216 396.737 229.346 396.892 229.522 396.907C229.682 396.921 229.826 396.813 229.86 396.66L229.868 396.591L229.869 396.571C229.883 396.276 229.849 395.926 229.725 395.582C229.499 394.959 229.029 394.544 228.291 394.48Z" fill="#7D4556"/>
<path d="M223.568 395.587L219.114 395.202" stroke="#7D4556" stroke-width="1.383"/>
<path d="M231.379 390.059C231.322 389.92 231.164 389.852 231.024 389.909C230.525 390.11 229.934 390.252 229.269 390.339C228.262 390.472 227.182 390.472 226.171 390.392L225.962 390.374L225.638 390.34C225.489 390.32 225.352 390.426 225.332 390.575C225.313 390.724 225.418 390.861 225.567 390.88L225.719 390.898L225.911 390.917C225.98 390.923 226.052 390.929 226.128 390.935C227.174 391.018 228.29 391.017 229.34 390.879C230.047 390.786 230.682 390.634 231.228 390.414C231.367 390.358 231.435 390.199 231.379 390.059Z" fill="#7D4556"/>
<path d="M231.802 408.351C231.659 408.345 231.538 408.455 231.531 408.599L231.522 408.733C231.517 408.807 231.509 408.899 231.498 409.004C231.465 409.31 231.417 409.615 231.352 409.899C231.217 410.489 231.022 410.892 230.808 411.01C230.683 411.078 230.636 411.236 230.705 411.361C230.774 411.487 230.932 411.533 231.057 411.464C231.445 411.252 231.691 410.742 231.857 410.015C231.928 409.709 231.978 409.384 232.013 409.059L232.034 408.843L232.049 408.622C232.056 408.479 231.945 408.358 231.802 408.351Z" fill="#9B6160"/>
<path d="M232.706 409.24C232.563 409.239 232.446 409.354 232.444 409.497L232.438 409.707C232.436 409.752 232.434 409.802 232.431 409.857C232.415 410.128 232.389 410.399 232.351 410.651C232.313 410.9 232.265 411.115 232.207 411.284C232.16 411.42 232.232 411.567 232.368 411.614C232.503 411.66 232.65 411.588 232.697 411.453C232.767 411.25 232.821 411.006 232.864 410.729C232.905 410.46 232.932 410.173 232.948 409.886L232.959 409.659C232.961 409.594 232.962 409.541 232.963 409.502C232.964 409.359 232.849 409.242 232.706 409.24Z" fill="#9B6160"/>
<path d="M230.604 409.424C230.467 409.382 230.322 409.459 230.28 409.596L230.259 409.663C230.245 409.704 230.227 409.756 230.205 409.816C230.143 409.983 230.074 410.151 229.999 410.306C229.859 410.593 229.715 410.798 229.601 410.877L229.568 410.896C229.439 410.959 229.386 411.114 229.449 411.243C229.512 411.372 229.667 411.425 229.796 411.362C230.051 411.237 230.264 410.947 230.465 410.532C230.549 410.36 230.625 410.177 230.692 409.994L230.751 409.825C230.761 409.794 230.77 409.768 230.776 409.748C230.818 409.611 230.741 409.466 230.604 409.424Z" fill="#9B6160"/>
<path d="M233.493 409.044C233.366 409.063 233.273 409.172 233.271 409.296L233.274 409.338L233.5 410.889C233.521 411.03 233.652 411.128 233.794 411.108C233.922 411.089 234.014 410.981 234.016 410.856L234.013 410.814L233.787 409.264C233.769 409.136 233.66 409.044 233.535 409.042L233.493 409.044Z" fill="#9B6160"/>
<path d="M224.593 408.93C224.474 408.851 224.313 408.885 224.235 409.004C224.156 409.124 224.189 409.285 224.309 409.363C224.713 409.628 225.129 409.868 225.556 410.085C228.16 411.408 230.878 411.783 233.213 411.623L233.431 411.607C233.629 411.59 233.77 411.574 233.846 411.562C233.988 411.541 234.085 411.409 234.064 411.267C234.042 411.125 233.91 411.028 233.769 411.049L233.65 411.065C233.599 411.07 233.537 411.077 233.464 411.083L233.388 411.09C231.092 411.281 228.377 410.937 225.791 409.623C225.38 409.414 224.981 409.183 224.593 408.93Z" fill="#9B6160"/>
<path d="M229.914 400.821C229.874 400.684 229.73 400.605 229.592 400.646L229.473 400.684C229.381 400.714 229.278 400.75 229.168 400.791C228.853 400.909 228.537 401.047 228.242 401.205C227.252 401.734 226.684 402.36 226.821 403.118C226.847 403.259 226.982 403.352 227.123 403.327C227.264 403.301 227.357 403.166 227.332 403.025C227.248 402.567 227.677 402.095 228.486 401.663C228.76 401.517 229.055 401.387 229.35 401.277L229.491 401.225C229.6 401.187 229.685 401.159 229.739 401.143C229.876 401.103 229.955 400.958 229.914 400.821Z" fill="#9B6160"/>
<path fill-rule="evenodd" clip-rule="evenodd" d="M217.284 414.111L215.836 416.798C215.836 416.798 205.791 418.003 200.886 420.958C196.45 423.629 197.009 451.832 197.692 461.324C195.302 472.468 204.218 471.569 204.218 471.569L236.038 474.194C236.038 474.194 240.695 471.549 238.379 463.696C238.973 457.31 249.342 426.684 245.337 422.678C242.222 419.564 234.704 418.955 234.704 418.955L234.2 415.832C234.2 415.832 229.374 415.281 217.284 414.111Z" fill="#ADC6FF"/>
<path d="M243.805 434.873C243.66 434.859 243.53 434.966 243.516 435.112C243.242 437.925 242.708 441.283 241.957 445.072C241.533 447.206 241.047 449.444 240.511 451.752C239.878 454.476 239.204 457.174 238.526 459.75L238.127 461.25C238.013 461.672 237.904 462.075 237.799 462.458L237.526 463.446L237.295 464.265C237.255 464.406 237.336 464.552 237.477 464.593C237.618 464.633 237.765 464.552 237.805 464.411L238.082 463.426L238.311 462.598C238.468 462.023 238.636 461.402 238.812 460.74C239.567 457.905 240.323 454.905 241.027 451.872C241.565 449.558 242.052 447.315 242.477 445.175L242.647 444.305C243.313 440.855 243.789 437.778 244.044 435.163C244.058 435.017 243.951 434.887 243.805 434.873Z" fill="#597EF7"/>
<path d="M218.312 418.282C218.17 418.245 218.025 418.329 217.988 418.471C217.95 418.613 218.035 418.758 218.176 418.795C223.144 420.104 228.02 420.439 232.126 420.216L232.467 420.197C232.677 420.183 232.867 420.17 233.035 420.156L233.372 420.125C233.384 420.123 233.394 420.122 233.402 420.121C233.548 420.105 233.653 419.974 233.636 419.828C233.62 419.683 233.488 419.578 233.343 419.594L233.111 419.617L232.728 419.648C232.635 419.654 232.537 419.661 232.434 419.667C228.31 419.924 223.355 419.611 218.312 418.282Z" fill="#597EF7"/>
<path fill-rule="evenodd" clip-rule="evenodd" d="M249.836 544.169C246.422 543.605 243.373 546.369 243.611 549.822C243.884 553.794 244.225 559.162 244.514 564.948C244.812 570.902 245.071 575.836 245.519 576.449C247.49 579.147 251.28 580.048 255.23 582.654C258.355 584.717 258.917 585.728 262.832 586.324C268.381 587.17 265.731 584.919 259.357 577.728C253.68 571.322 253.941 568.218 253.941 568.218L254.323 549.57C254.377 546.905 252.467 544.604 249.836 544.169Z" fill="#C99382"/>
<path fill-rule="evenodd" clip-rule="evenodd" d="M258.745 575.997C262.879 580.289 267.563 583.633 267.523 585.74C267.484 587.847 265.89 589.801 258.949 587.601C254.199 586.094 255.507 585.042 250.929 582.279C248.643 580.899 247.832 581.083 245.712 579.459C244.477 577.98 244.758 570.577 244.758 570.577L252.902 578.913C252.902 578.913 250.724 574.976 252.373 574.051C254.02 573.125 255.545 572.481 256.558 573.159C257.572 573.838 258.745 575.997 258.745 575.997Z" fill="#7D4556"/>
<path fill-rule="evenodd" clip-rule="evenodd" d="M259.837 503.524C258.35 534.87 256.482 565.555 256.482 565.555L243.25 566.007L238.993 503.122C238.993 503.122 239.776 493.725 250.078 494.188C259.373 494.605 259.837 503.524 259.837 503.524Z" fill="#597EF7"/>
<path fill-rule="evenodd" clip-rule="evenodd" d="M254.283 493.258C239.976 487.953 221.705 484.096 208.469 481.405C208.469 481.405 198.54 482.729 197.868 492.487C197.211 502.052 207.999 504.486 207.999 504.486L251.394 510.073C251.394 510.073 258.475 510.898 259.782 502.473C260.974 494.788 254.283 493.258 254.283 493.258Z" fill="#597EF7"/>
<path d="M200.173 473.877C200.03 473.877 199.913 473.993 199.913 474.137C199.913 474.266 200.007 474.372 200.131 474.393L200.173 474.396H235.474C235.617 474.396 235.733 474.28 235.733 474.137C235.733 474.008 235.639 473.901 235.516 473.881L235.474 473.877H200.173Z" fill="#253368"/>
<path d="M200.563 477.901C200.42 477.901 200.303 478.017 200.303 478.16C200.303 478.289 200.397 478.396 200.521 478.416L200.563 478.419H235.993C236.136 478.419 236.252 478.303 236.252 478.16C236.252 478.031 236.158 477.924 236.035 477.904L235.993 477.901H200.563Z" fill="#253368"/>
<path d="M224.884 473.813C224.755 473.819 224.653 473.918 224.639 474.042L224.637 474.084L224.832 478.172C224.839 478.315 224.96 478.426 225.103 478.419C225.232 478.413 225.335 478.314 225.349 478.19L225.35 478.148L225.155 474.059C225.148 473.916 225.027 473.806 224.884 473.813Z" fill="#253368"/>
<path fill-rule="evenodd" clip-rule="evenodd" d="M256.306 493.13L216.421 484.48L256.989 474.668L289.652 485.133L256.306 493.13Z" fill="#CCD7EE"/>
<path fill-rule="evenodd" clip-rule="evenodd" d="M257.982 490.41L229.015 484.128L257.792 476.908L282.2 484.602L257.982 490.41Z" fill="#4E5C93"/>
<path fill-rule="evenodd" clip-rule="evenodd" d="M216.328 486.558L216.412 484.493L257.137 492.99L256.317 495.154L216.328 486.558Z" fill="#253368"/>
<path d="M263.052 478.946L239.572 486.077C239.481 486.104 239.429 486.201 239.457 486.292C239.481 486.372 239.558 486.422 239.638 486.414L239.673 486.407L263.153 479.277C263.244 479.249 263.296 479.153 263.268 479.061C263.244 478.981 263.167 478.932 263.087 478.939L263.052 478.946Z" fill="#CCD7EE"/>
<path d="M260.073 477.547L233.845 485.035C233.753 485.061 233.7 485.156 233.726 485.248C233.749 485.329 233.825 485.379 233.906 485.373L233.94 485.367L260.168 477.88C260.26 477.854 260.313 477.758 260.287 477.666C260.264 477.586 260.188 477.535 260.107 477.541L260.073 477.547Z" fill="#CCD7EE"/>
<path d="M263.279 481.06L243.544 487.354C243.453 487.383 243.403 487.48 243.432 487.571C243.457 487.65 243.535 487.699 243.615 487.69L243.649 487.683L263.385 481.389C263.475 481.36 263.526 481.263 263.497 481.172C263.471 481.092 263.394 481.044 263.314 481.053L263.279 481.06Z" fill="#CCD7EE"/>
<path d="M268.542 481.888L248.807 488.182C248.716 488.211 248.665 488.308 248.694 488.399C248.72 488.478 248.797 488.527 248.877 488.518L248.912 488.511L268.647 482.217C268.738 482.188 268.788 482.091 268.759 482C268.734 481.92 268.656 481.872 268.576 481.88L268.542 481.888Z" fill="#CCD7EE"/>
<path d="M273.383 482.996L253.647 489.29C253.556 489.319 253.506 489.416 253.535 489.507C253.56 489.587 253.638 489.635 253.718 489.627L253.752 489.62L273.488 483.326C273.579 483.297 273.629 483.199 273.6 483.108C273.574 483.029 273.497 482.981 273.417 482.989L273.383 482.996Z" fill="#CCD7EE"/>
<path d="M233.867 483.132C233.773 483.115 233.683 483.177 233.666 483.271C233.652 483.353 233.697 483.432 233.772 483.462L233.806 483.472L258.644 487.974C258.738 487.991 258.828 487.929 258.845 487.835C258.86 487.753 258.814 487.674 258.739 487.644L258.705 487.634L233.867 483.132Z" fill="#CCD7EE"/>
<path d="M239.526 481.49C239.432 481.473 239.342 481.535 239.325 481.629C239.31 481.711 239.356 481.79 239.431 481.82L239.465 481.83L264.303 486.332C264.397 486.349 264.487 486.287 264.504 486.193C264.519 486.111 264.473 486.032 264.399 486.002L264.365 485.992L239.526 481.49Z" fill="#CCD7EE"/>
<path d="M246.478 480.574C246.384 480.557 246.294 480.619 246.277 480.713C246.262 480.795 246.308 480.875 246.383 480.905L246.416 480.914L271.255 485.417C271.348 485.434 271.438 485.371 271.455 485.277C271.47 485.195 271.424 485.116 271.35 485.086L271.316 485.076L246.478 480.574Z" fill="#CCD7EE"/>
<path d="M251.325 477.376C251.231 477.359 251.141 477.421 251.124 477.515C251.11 477.597 251.155 477.677 251.23 477.706L251.264 477.716L276.102 482.219C276.196 482.236 276.286 482.173 276.303 482.079C276.318 481.997 276.272 481.918 276.198 481.888L276.164 481.878L251.325 477.376Z" fill="#CCD7EE"/>
<path fill-rule="evenodd" clip-rule="evenodd" d="M256.349 495.157L258.149 495.417L289.731 487.425L305.243 435.679L271.442 440.458L256.349 495.157Z" fill="#253368"/>
<path fill-rule="evenodd" clip-rule="evenodd" d="M258.213 495.423L291.517 487.011C291.821 486.935 292.063 486.703 292.154 486.403L307.117 436.677C307.306 436.052 306.782 435.442 306.136 435.534L274.071 440.113C273.721 440.163 273.432 440.417 273.337 440.759L258.213 495.423Z" fill="#4E5C93"/>
<path fill-rule="evenodd" clip-rule="evenodd" d="M209.971 461.607C209.971 461.607 208.881 471.224 200.088 470.078C191.122 468.908 192.604 459.22 192.604 459.22C192.604 459.22 192.485 453.144 193.542 445.037C194.369 438.702 195.561 430.434 196.475 426.431C197.463 422.111 201.632 419.446 205.75 419.983C212.009 420.799 213.874 425.975 213.503 430.368C213.142 434.64 212.568 441.671 212.066 446.371C211.1 455.407 209.971 461.607 209.971 461.607Z" fill="#ADC6FF"/>
<path fill-rule="evenodd" clip-rule="evenodd" d="M235.405 473.966C236.563 478.29 246.194 476.822 246.194 476.822L250.914 480.665C251.661 481.181 251.983 480.678 252.389 480.77C253.486 481.02 253.748 479.868 253.748 479.868C254.168 479.774 254.71 480.203 255.112 479.198C255.112 479.198 255.893 479.318 256.16 478.398C256.259 478.056 254.752 473.426 253.852 470.717C253.457 469.527 252.428 468.663 251.188 468.476L239.663 466.741C239.663 466.741 233.847 468.148 235.405 473.966Z" fill="#C99382"/>
<path d="M245.486 473.803C245.354 473.747 245.202 473.808 245.145 473.94C245.095 474.058 245.139 474.193 245.245 474.26L245.282 474.28L248.686 475.734L252.085 480.414C252.16 480.517 252.297 480.549 252.407 480.495L252.448 480.471C252.551 480.396 252.582 480.26 252.529 480.149L252.505 480.109L249.063 475.371C249.045 475.346 249.022 475.325 248.996 475.308L248.955 475.285L245.486 473.803Z" fill="#9B6160"/>
<path d="M247.801 472.376C247.676 472.306 247.518 472.35 247.448 472.475C247.385 472.586 247.413 472.723 247.508 472.801L247.546 472.828L250.672 474.589L253.441 479.433C253.505 479.544 253.637 479.59 253.753 479.549L253.795 479.53C253.906 479.467 253.952 479.334 253.911 479.218L253.892 479.176L251.086 474.269C251.07 474.242 251.05 474.218 251.026 474.198L250.988 474.172L247.801 472.376Z" fill="#9B6160"/>
<path d="M250.043 471.055C249.93 470.967 249.767 470.986 249.679 471.098C249.6 471.198 249.606 471.338 249.687 471.43L249.721 471.462L251.826 473.126L254.354 478.326C254.41 478.442 254.541 478.497 254.661 478.462L254.7 478.446C254.816 478.39 254.871 478.259 254.835 478.139L254.82 478.1L252.266 472.846C252.255 472.823 252.24 472.802 252.222 472.783L252.194 472.756L250.043 471.055Z" fill="#9B6160"/>
<path fill-rule="evenodd" clip-rule="evenodd" d="M204.839 453.802C204.839 453.802 195.143 451.762 193.173 459.81C191.142 468.11 200.354 470.497 200.354 470.497C200.354 470.497 206.878 472.018 214.909 473.926C219.813 475.091 225.254 476.269 229.326 476.558C233.736 476.871 234.733 474.616 235.718 470.592C236.887 465.814 236.885 463.719 232.802 462.081C228.91 460.52 223.438 459.113 219.248 457.831C211.257 455.387 204.839 453.802 204.839 453.802Z" fill="#ADC6FF"/>
<path fill-rule="evenodd" clip-rule="evenodd" d="M237.749 475.907L240.027 466.601L233.903 464.393L231.298 475.038L237.749 475.907Z" fill="#ADC6FF"/>
<path d="M213.439 435.653C213.294 435.637 213.163 435.742 213.147 435.888L213.069 436.56C212.891 438.015 212.542 440.463 212.04 443.827L210.289 455.381C210.271 455.513 210.353 455.638 210.481 455.674C212.859 456.33 215.288 457.029 217.733 457.767L219.404 458.272L224.938 459.889L225.839 460.156C228.622 460.986 230.62 461.648 232.314 462.327C234.305 463.126 235.274 464.019 235.599 465.303C235.617 465.374 235.664 465.433 235.727 465.469L235.766 465.487L239.323 466.769L237.16 475.611L233.296 475.092C233.23 475.083 233.164 475.099 233.111 475.136L233.073 475.167C232.179 476.061 230.901 476.432 228.956 476.294C225.524 476.05 221.115 475.212 214.946 473.755L209.824 472.541L200.025 470.239C199.883 470.206 199.74 470.295 199.707 470.437C199.674 470.58 199.762 470.723 199.905 470.756L204.17 471.754C206.266 472.246 208.438 472.758 210.646 473.28L215.188 474.356C221.194 475.768 225.518 476.582 228.918 476.823C230.875 476.962 232.252 476.607 233.253 475.725L233.353 475.634L237.325 476.169C237.445 476.185 237.558 476.119 237.604 476.012L237.618 475.969L239.895 466.664C239.924 466.547 239.87 466.427 239.768 466.37L239.727 466.351L236.076 465.034L236.044 464.931C235.628 463.628 234.59 462.7 232.687 461.907L232.512 461.835L232.152 461.693C230.635 461.101 228.87 460.515 226.543 459.813L224.521 459.216C223.365 458.881 220.743 458.118 219.432 457.728L218.936 457.578C216.484 456.828 214.042 456.116 211.646 455.447L210.848 455.225L212.526 444.158C213.14 440.058 213.532 437.28 213.675 435.944C213.69 435.799 213.585 435.668 213.439 435.653Z" fill="#597EF7"/>
<path fill-rule="evenodd" clip-rule="evenodd" d="M732.689 339.773L730.442 323.087L715.342 324.976L715.651 341.068C715.744 345.928 719.898 349.726 724.771 349.405C729.712 349.08 733.347 344.659 732.689 339.773Z" fill="#FFC999"/>
<path fill-rule="evenodd" clip-rule="evenodd" d="M711.584 319.514C710.637 318.637 709.228 318.451 708.294 319.566C706.789 321.361 708.588 327.665 712.894 327.716C714.513 327.41 713.062 320.884 711.584 319.514Z" fill="#FFC999"/>
<path d="M709.724 320.447C709.596 320.431 709.48 320.522 709.464 320.649C709.45 320.763 709.522 320.868 709.629 320.9L709.666 320.907C709.702 320.912 709.779 320.931 709.883 320.976C710.066 321.053 710.25 321.176 710.424 321.356C710.737 321.68 710.981 322.149 711.122 322.794C711.159 322.961 711.144 323.003 710.999 323.095L710.898 323.157C710.599 323.339 710.45 323.529 710.438 323.887C710.419 324.445 710.664 324.87 711.075 325.167C711.306 325.334 711.535 325.427 711.697 325.467C711.821 325.498 711.948 325.422 711.979 325.298C712.01 325.174 711.934 325.048 711.809 325.017L711.769 325.005C711.744 324.997 711.711 324.985 711.672 324.969C711.561 324.924 711.45 324.865 711.348 324.792C711.055 324.58 710.89 324.294 710.903 323.903C710.909 323.746 710.952 323.676 711.091 323.584L711.198 323.518C711.534 323.314 711.667 323.106 711.577 322.695C711.418 321.968 711.134 321.421 710.759 321.034C710.382 320.645 709.997 320.481 709.724 320.447Z" fill="#DD936F"/>
<path fill-rule="evenodd" clip-rule="evenodd" d="M733.733 317.87C734.539 316.862 735.906 316.471 736.995 317.435C738.751 318.988 737.912 325.488 733.661 326.175C732.014 326.111 732.476 319.443 733.733 317.87Z" fill="#FFC999"/>
<path d="M735.703 318.396C735.496 318.454 735.206 318.616 734.922 318.935C734.521 319.385 734.262 320.03 734.205 320.894C734.179 321.291 734.32 321.476 734.644 321.625L734.775 321.681C734.958 321.759 735.02 321.82 735.052 321.988C735.127 322.394 734.989 322.714 734.701 322.973C734.617 323.049 734.525 323.114 734.434 323.166L734.365 323.204C734.345 323.213 734.331 323.22 734.321 323.224C734.202 323.273 734.146 323.409 734.195 323.527C734.245 323.645 734.381 323.701 734.5 323.652C734.634 323.597 734.824 323.488 735.014 323.317C735.412 322.958 735.617 322.484 735.51 321.904C735.45 321.585 735.297 321.415 735.028 321.286L734.89 321.226C734.683 321.14 734.657 321.112 734.67 320.924C734.72 320.16 734.94 319.614 735.27 319.243C735.399 319.098 735.536 318.991 735.671 318.915C735.717 318.889 735.756 318.871 735.784 318.859L735.828 318.843C735.952 318.809 736.025 318.681 735.99 318.558C735.96 318.448 735.855 318.379 735.745 318.389L735.703 318.396Z" fill="#DD936F"/>
<path fill-rule="evenodd" clip-rule="evenodd" d="M711.451 321.238C712.314 332.766 717.121 337.27 723.938 336.763C730.238 336.295 734.782 330.352 734.19 319.184C733.739 310.664 731.189 304.677 721.45 305.4C711.223 306.159 710.814 312.73 711.451 321.238Z" fill="#FFC999"/>
<path d="M729.489 334.416C729.407 334.318 729.26 334.305 729.161 334.387C727.725 335.587 725.606 336.346 723.46 336.505C721.193 336.674 719.505 336.296 717.755 335.241C717.645 335.175 717.502 335.21 717.435 335.319C717.369 335.428 717.404 335.571 717.514 335.637C719.348 336.744 721.133 337.143 723.494 336.968C725.732 336.802 727.944 336.009 729.46 334.743C729.559 334.66 729.572 334.514 729.489 334.416Z" fill="#DD936F"/>
<path fill-rule="evenodd" clip-rule="evenodd" d="M732.158 315.353C733.176 316.6 733.689 318.712 733.93 320.108C733.963 320.301 734.245 320.29 734.262 320.095C734.457 317.891 734.635 312.501 733.707 309.471C732.249 304.704 726.119 301.168 722.635 301.244C721.218 301.274 718.791 301.56 716.398 303.931C713.897 306.409 712.282 306.273 710.71 309.715C709.639 312.061 710.81 318.392 711.377 321.407C711.421 321.638 711.758 321.62 711.776 321.386C711.882 319.963 712.165 317.998 712.905 316.966C712.997 315.079 713.234 311.539 713.234 311.539C717.359 310.227 726.693 309.808 731.57 310.361L732.158 315.353Z" fill="#253368"/>
<path d="M719.774 315.95C718.244 315.682 716.494 315.645 714.634 315.987C714.28 316.051 714.047 316.389 714.112 316.741C714.177 317.092 714.516 317.325 714.87 317.26C716.565 316.949 718.162 316.982 719.548 317.225C719.733 317.258 719.901 317.292 720.049 317.326L720.213 317.366L720.352 317.404C720.695 317.509 721.059 317.318 721.165 316.977C721.272 316.635 721.079 316.272 720.736 316.167L720.621 316.133C720.428 316.08 720.142 316.015 719.774 315.95Z" fill="#253368"/>
<path d="M724.922 316.501C724.819 316.453 724.698 316.487 724.634 316.576L724.612 316.612L723.582 318.791C723.57 318.816 723.563 318.842 723.561 318.869L723.561 318.91L724.175 325.911L722.217 326.062C722.102 326.071 722.012 326.163 722.003 326.274L722.003 326.311C722.012 326.426 722.103 326.515 722.215 326.525L722.253 326.525L724.445 326.356C724.561 326.347 724.651 326.254 724.659 326.142L724.659 326.104L724.031 318.932L725.034 316.81C725.082 316.707 725.048 316.586 724.958 316.523L724.922 316.501Z" fill="#DD936F"/>
<path d="M730.909 314.766C730.349 314.713 729.699 314.742 728.973 314.84C728.37 314.921 727.732 315.048 727.08 315.207C726.749 315.288 726.431 315.373 726.131 315.459L725.729 315.579L725.44 315.671C725.1 315.785 724.917 316.152 725.032 316.491C725.146 316.83 725.515 317.012 725.856 316.898L726.142 316.807L726.284 316.764C726.626 316.662 726.999 316.56 727.389 316.465C728 316.316 728.594 316.198 729.148 316.123C729.782 316.038 730.337 316.013 730.784 316.055C731.142 316.09 731.46 315.829 731.494 315.473C731.528 315.117 731.267 314.801 730.909 314.766Z" fill="#253368"/>
<path d="M724.888 318.801L720.87 319.099C720.614 319.118 720.421 319.34 720.44 319.596C720.458 319.834 720.654 320.017 720.889 320.025L720.939 320.023L724.957 319.726C725.214 319.707 725.406 319.484 725.387 319.229C725.369 318.991 725.174 318.808 724.939 318.8L724.888 318.801Z" fill="#253368"/>
<path d="M724.687 320.693C723.657 320.272 722.651 320.351 721.754 320.734C721.47 320.855 721.261 320.979 721.137 321.069C720.93 321.22 720.885 321.511 721.037 321.717C721.189 321.923 721.481 321.968 721.688 321.817C721.758 321.766 721.908 321.677 722.121 321.587C722.806 321.294 723.56 321.235 724.334 321.551C724.572 321.648 724.844 321.534 724.942 321.298C725.039 321.061 724.925 320.79 724.687 320.693Z" fill="#253368"/>
<path fill-rule="evenodd" clip-rule="evenodd" d="M725.193 318.467L732.216 317.836C732.707 317.792 733.14 318.15 733.18 318.639C733.256 319.55 733.337 321.015 733.213 322.286C733.066 323.785 731.817 324.808 730.317 325.012C728.444 325.268 726.756 325.421 725.814 324.527C724.38 323.163 724.477 320.697 724.387 319.404C724.355 318.929 724.718 318.51 725.193 318.467Z" fill="white"/>
<path d="M725.179 318.313L732.202 317.682L732.275 317.678L732.339 317.678C732.857 317.699 733.291 318.099 733.335 318.626C733.445 319.942 733.473 321.22 733.368 322.301C733.219 323.817 731.975 324.942 730.338 325.165L729.832 325.231C727.61 325.503 726.503 325.395 725.707 324.638C725.053 324.017 724.664 323.152 724.46 322.055L724.428 321.879C724.359 321.476 724.324 321.126 724.292 320.564L724.236 319.467C724.235 319.449 724.234 319.432 724.233 319.414C724.195 318.856 724.619 318.364 725.179 318.313ZM732.294 317.986L732.239 317.989L725.207 318.621C724.815 318.656 724.516 319.003 724.542 319.393L724.563 319.771L724.588 320.29C724.628 321.086 724.666 321.471 724.765 321.999C724.958 323.037 725.322 323.845 725.922 324.415C726.678 325.134 727.831 325.196 730.296 324.859C731.798 324.654 732.925 323.635 733.059 322.271C733.162 321.213 733.134 319.95 733.026 318.651C732.994 318.271 732.672 317.985 732.294 317.986Z" fill="#253368"/>
<path d="M733.131 317.566L724.406 318.121C724.149 318.137 723.954 318.357 723.971 318.613C723.986 318.851 724.18 319.036 724.414 319.046L724.465 319.046L733.191 318.491C733.448 318.475 733.642 318.254 733.626 317.999C733.611 317.76 733.417 317.576 733.182 317.565L733.131 317.566Z" fill="#253368"/>
<path d="M728.222 319.607C727.483 319.662 726.98 320.434 727.044 321.299C727.058 321.477 727.214 321.611 727.393 321.598C727.572 321.584 727.706 321.429 727.693 321.251C727.652 320.71 727.935 320.278 728.271 320.253C728.608 320.228 728.952 320.614 728.992 321.155C729.006 321.333 729.162 321.467 729.341 321.453C729.52 321.44 729.654 321.285 729.641 321.106C729.578 320.27 729.002 319.598 728.296 319.604L728.222 319.607Z" fill="#5C4E4A"/>
<path fill-rule="evenodd" clip-rule="evenodd" d="M713.263 319.353L720.286 318.722C720.776 318.678 721.209 319.036 721.249 319.524C721.326 320.435 721.406 321.901 721.282 323.172C721.135 324.671 719.886 325.693 718.386 325.898C716.513 326.154 714.825 326.307 713.883 325.412C712.448 324.049 712.545 321.583 712.457 320.29C712.424 319.814 712.787 319.396 713.263 319.353Z" fill="white"/>
<path d="M713.249 319.199L720.272 318.568L720.345 318.563L720.409 318.564C720.927 318.584 721.361 318.984 721.404 319.512C721.514 320.824 721.542 322.106 721.436 323.187C721.288 324.703 720.044 325.828 718.407 326.051L718.065 326.096C715.733 326.394 714.592 326.299 713.776 325.524C713.122 324.902 712.733 324.038 712.529 322.941L712.497 322.764C712.423 322.332 712.388 321.961 712.354 321.325L712.309 320.407C712.307 320.37 712.304 320.335 712.302 320.3C712.263 319.742 712.688 319.249 713.249 319.199ZM720.363 318.872L720.294 318.876L713.277 319.507C712.883 319.542 712.584 319.889 712.612 320.279L712.629 320.58L712.663 321.303C712.701 322.013 712.741 322.385 712.834 322.885C713.027 323.923 713.39 324.73 713.99 325.301C714.747 326.02 715.9 326.082 718.365 325.745C719.867 325.54 720.994 324.521 721.128 323.157C721.231 322.098 721.203 320.832 721.095 319.537C721.063 319.156 720.742 318.87 720.363 318.872Z" fill="#253368"/>
<path d="M717.388 320.412C716.649 320.467 716.145 321.238 716.209 322.104C716.222 322.282 716.378 322.416 716.557 322.403C716.736 322.39 716.871 322.234 716.857 322.056C716.817 321.515 717.1 321.082 717.436 321.057C717.773 321.032 718.116 321.418 718.157 321.959C718.17 322.137 718.326 322.271 718.505 322.258C718.684 322.244 718.819 322.089 718.805 321.911C718.743 321.074 718.167 320.403 717.461 320.409L717.388 320.412Z" fill="#5C4E4A"/>
<path d="M721.201 318.452L712.475 319.007C712.219 319.023 712.024 319.243 712.04 319.499C712.056 319.737 712.249 319.922 712.484 319.932L712.535 319.932L721.26 319.377C721.517 319.361 721.712 319.14 721.695 318.885C721.68 318.646 721.486 318.461 721.252 318.451L721.201 318.452Z" fill="#253368"/>
<path fill-rule="evenodd" clip-rule="evenodd" d="M719.754 327.894C723.313 327.952 726.571 327.388 726.571 327.388C726.571 327.388 725.916 329.596 723.267 329.793C720.619 329.989 719.754 327.894 719.754 327.894Z" fill="white"/>
<path d="M726.883 327.48C726.781 327.825 726.532 328.32 726.082 328.815C725.412 329.551 724.49 330.027 723.291 330.116C721.992 330.212 720.973 329.81 720.219 329.082C719.812 328.689 719.567 328.294 719.453 328.017C719.364 327.802 719.526 327.567 719.759 327.57C721.365 327.596 723.029 327.499 724.642 327.321C725.144 327.266 725.604 327.206 726.011 327.147L726.516 327.069C726.753 327.028 726.951 327.249 726.883 327.48ZM725.978 327.879L726.025 327.799L725.673 327.848C725.374 327.888 725.053 327.927 724.713 327.965L724.221 328.016C723.067 328.131 721.894 328.204 720.736 328.219L720.327 328.221L720.358 328.265C720.45 328.385 720.555 328.504 720.672 328.618C721.297 329.221 722.137 329.552 723.243 329.47C724.269 329.394 725.038 328.997 725.6 328.38C725.747 328.219 725.872 328.05 725.978 327.879Z" fill="#FF7946"/>
<path d="M724.81 330.872C724.746 330.76 724.604 330.721 724.492 330.784L724.414 330.825L724.373 330.845C724.272 330.892 724.158 330.94 724.033 330.985C723.519 331.169 722.995 331.243 722.516 331.146C722.347 331.112 722.187 331.057 722.036 330.979C721.922 330.92 721.781 330.964 721.722 331.078C721.663 331.191 721.707 331.331 721.821 331.39C722.012 331.489 722.213 331.558 722.424 331.601C722.999 331.717 723.603 331.632 724.191 331.421C724.431 331.335 724.615 331.248 724.722 331.188C724.834 331.124 724.873 330.983 724.81 330.872Z" fill="#DD936F"/>
<path fill-rule="evenodd" clip-rule="evenodd" d="M690.409 593.029C682.074 596.527 677.796 591.49 677.796 591.49C677.796 591.49 677.56 589.727 679.018 587.757C680.843 585.292 684.909 584.414 689.728 579.696C693.43 576.072 695.872 570.431 695.872 570.431C698.547 566.502 707.074 571.18 707.074 571.18C707.074 571.18 707.219 579.299 707.047 583.944C707.047 583.944 706.738 586.502 700.342 587.416C695.557 588.101 695.402 590.933 690.409 593.029Z" fill="#253368"/>
<path fill-rule="evenodd" clip-rule="evenodd" d="M750.906 593.029C759.241 596.527 763.52 591.49 763.52 591.49C763.52 591.49 763.756 589.727 762.297 587.757C760.472 585.292 756.407 584.414 751.587 579.696C747.885 576.072 745.443 570.431 745.443 570.431C742.768 566.502 734.242 571.18 734.242 571.18C734.242 571.18 734.097 579.299 734.269 583.944C734.269 583.944 734.577 586.502 740.973 587.416C745.759 588.101 745.914 590.933 750.906 593.029Z" fill="#253368"/>
<path fill-rule="evenodd" clip-rule="evenodd" d="M659.622 345.683C659.117 350.071 662.107 354.047 666.381 354.671L702.371 359.922C707.528 360.675 712.308 356.91 712.917 351.615C713.527 346.319 709.724 341.599 704.527 341.199L668.253 338.407C663.945 338.076 660.127 341.295 659.622 345.683Z" fill="#FFC999"/>
<path fill-rule="evenodd" clip-rule="evenodd" d="M675.8 357.756L701.355 361.138C706.99 361.963 712.191 357.978 712.832 352.343C713.473 346.709 712.986 341.632 707.308 341.182L678.292 339.225L675.8 357.756Z" fill="#597EF7"/>
<path fill-rule="evenodd" clip-rule="evenodd" d="M706.448 397.233L699.274 344.849C700.363 343.744 704.301 341.067 713.114 341.804C716.043 342.048 722.88 345.672 725.959 345.735C728.042 345.778 734.4 341.602 736.12 341.978C746.13 344.166 749.06 345.624 754.431 347.325L745.503 395.544C745.503 395.544 748.231 404.589 743.105 404.726C703.564 405.786 708.845 405.28 708.845 405.28C708.845 405.28 703.973 404.316 706.448 397.233Z" fill="#597EF7"/>
<path fill-rule="evenodd" clip-rule="evenodd" d="M732.746 339.024L736.608 341.978L731.725 350.729L725.443 345.167L732.746 339.024Z" fill="#597EF7"/>
<path d="M736.769 341.94C736.626 341.859 736.447 341.898 736.35 342.024L736.325 342.061L731.64 350.223L725.657 344.977C725.535 344.869 725.354 344.87 725.233 344.972L725.198 345.006C725.09 345.128 725.091 345.308 725.194 345.428L725.227 345.463L731.509 350.971C731.652 351.096 731.868 351.072 731.981 350.928L732.007 350.889L736.89 342.382C736.979 342.227 736.925 342.029 736.769 341.94Z" fill="#253368"/>
<path fill-rule="evenodd" clip-rule="evenodd" d="M715.63 339.024L712.861 342.281L718.54 351.215L725.576 345.164L715.63 339.024Z" fill="#597EF7"/>
<path d="M713.44 343.259C713.341 343.11 713.14 343.068 712.99 343.166C712.853 343.255 712.806 343.429 712.873 343.572L712.896 343.614L718.024 351.392C718.121 351.54 718.317 351.581 718.464 351.492L718.503 351.464L725.268 345.893L726.315 397.483L726.36 397.804L726.4 398.125C726.42 398.292 726.44 398.469 726.459 398.653C726.542 399.464 726.595 400.272 726.602 401.024C726.615 402.495 726.449 403.576 726.093 404.049C725.985 404.192 726.014 404.395 726.158 404.502C726.301 404.609 726.505 404.58 726.613 404.437C727.085 403.811 727.267 402.629 727.252 401.018C727.245 400.244 727.191 399.417 727.106 398.587L727.066 398.222C727.053 398.104 727.039 397.99 727.025 397.881L726.968 397.46C726.967 397.452 726.966 397.445 726.965 397.44L726.962 397.428L725.905 345.21C725.899 344.954 725.616 344.811 725.408 344.941L725.372 344.967L718.369 350.735L713.44 343.259Z" fill="#253368"/>
<path fill-rule="evenodd" clip-rule="evenodd" d="M723.911 352.916C723.99 353.487 723.665 354.003 723.187 354.068C722.708 354.133 722.257 353.722 722.179 353.151C722.101 352.579 722.425 352.064 722.903 351.999C723.382 351.934 723.833 352.344 723.911 352.916Z" fill="white"/>
<path fill-rule="evenodd" clip-rule="evenodd" d="M724.045 362.762C724.123 363.334 723.798 363.849 723.32 363.914C722.842 363.979 722.391 363.569 722.313 362.997C722.234 362.425 722.559 361.91 723.037 361.845C723.515 361.78 723.967 362.191 724.045 362.762Z" fill="white"/>
<path fill-rule="evenodd" clip-rule="evenodd" d="M724.533 373.623C724.611 374.194 724.287 374.71 723.809 374.774C723.33 374.839 722.879 374.429 722.801 373.858C722.723 373.286 723.047 372.771 723.525 372.705C724.004 372.64 724.455 373.052 724.533 373.623Z" fill="white"/>
<path fill-rule="evenodd" clip-rule="evenodd" d="M724.919 395.397C724.997 395.969 724.672 396.484 724.194 396.549C723.716 396.614 723.265 396.204 723.187 395.632C723.109 395.061 723.433 394.545 723.911 394.48C724.389 394.415 724.841 394.826 724.919 395.397Z" fill="white"/>
<path fill-rule="evenodd" clip-rule="evenodd" d="M725.021 383.182C725.099 383.753 724.775 384.269 724.297 384.334C723.819 384.398 723.367 383.988 723.289 383.417C723.211 382.845 723.536 382.33 724.014 382.264C724.492 382.2 724.943 382.611 725.021 383.182Z" fill="white"/>
<path d="M704.755 359.699L716.799 359.4C716.974 359.396 717.121 359.53 717.132 359.704L717.703 368.997C717.71 369.107 717.66 369.213 717.57 369.278L711.222 373.896C711.102 373.983 710.939 373.979 710.824 373.885L705.812 369.809C705.748 369.757 705.706 369.682 705.695 369.6L704.441 360.065C704.416 359.874 704.562 359.704 704.755 359.699ZM716.502 360.055L705.133 360.337L706.323 369.388L711.042 373.226L717.043 368.86L716.502 360.055Z" fill="#253368"/>
<path fill-rule="evenodd" clip-rule="evenodd" d="M706.345 409.015L745.637 408.609L744.863 404.01L706.871 404.381L706.345 409.015Z" fill="#ADC6FF"/>
<path fill-rule="evenodd" clip-rule="evenodd" d="M745.317 407.323C745.317 407.323 750.55 418.987 750.011 434.103C743.352 438.476 729.97 440.97 729.97 440.97C728.972 441.485 722.997 441.221 721.985 440.784C721.985 440.784 703.756 435.249 702.033 432.499C703.011 418.249 706.408 408.366 706.408 408.366" fill="#ADC6FF"/>
<path fill-rule="evenodd" clip-rule="evenodd" d="M724.34 405.994C724.418 406.566 724.094 407.081 723.616 407.147C723.137 407.211 722.686 406.801 722.608 406.229C722.53 405.657 722.855 405.142 723.333 405.077C723.811 405.012 724.262 405.423 724.34 405.994Z" fill="white"/>
<path fill-rule="evenodd" clip-rule="evenodd" d="M756.195 404.77C760.886 404.242 764.311 400.107 763.936 395.422L760.789 355.975C760.338 350.323 755.273 346.166 749.614 346.803C743.954 347.44 739.949 352.617 740.777 358.227L746.554 397.378C747.24 402.028 751.505 405.297 756.195 404.77Z" fill="#FFC999"/>
<path fill-rule="evenodd" clip-rule="evenodd" d="M740.187 358.647C739.358 353.037 743.954 347.197 749.614 346.56C755.273 345.923 760.338 350.08 760.789 355.732L763.161 382.631C763.161 382.631 744.901 383.766 744.295 383.766L740.187 358.647Z" fill="#597EF7"/>
<path fill-rule="evenodd" clip-rule="evenodd" d="M739.043 502.587C744.67 502.564 749.261 498.096 749.409 492.496L749.992 429.197C750.053 422.581 744.594 417.232 737.949 417.397C731.426 417.56 726.286 422.984 726.501 429.476L728.599 492.657C728.833 498.223 733.447 502.61 739.043 502.587Z" fill="#ADC6FF"/>
<path fill-rule="evenodd" clip-rule="evenodd" d="M733.143 572.002L729.006 495.084C728.68 489.169 733.438 484.21 739.388 484.262C745.133 484.314 749.726 489.032 749.599 494.75L748.064 571.873C748.064 571.873 742.114 575.33 733.143 572.002Z" fill="#ADC6FF"/>
<path fill-rule="evenodd" clip-rule="evenodd" d="M706.331 506.056C700.726 505.551 696.54 500.703 696.879 495.112L701.785 431.999C702.298 425.403 708.2 420.542 714.805 421.279C721.29 422.001 725.941 427.846 725.163 434.296L717.595 497.06C716.881 502.586 711.904 506.56 706.331 506.056Z" fill="#ADC6FF"/>
<path fill-rule="evenodd" clip-rule="evenodd" d="M707.119 574.373L717.398 499.369C718.236 493.504 713.925 488.154 707.993 487.696C702.265 487.253 697.279 491.558 696.912 497.266L692.915 572.945C692.915 572.945 697.894 576.918 707.119 574.373Z" fill="#ADC6FF"/>
<path fill-rule="evenodd" clip-rule="evenodd" d="M695.949 320.861L704.195 315.363C704.195 315.363 708.106 305.647 710.08 304.135C712.055 302.624 714.627 302.919 716.799 301.949C718.971 300.979 718.486 303.363 715.774 304.713C713.063 306.061 711.96 305.908 711.302 308.662C710.643 311.415 711.642 321.236 707.659 322.984C706.238 324.284 705.122 325.277 704.249 326.033C702.342 327.685 699.386 327.433 697.883 325.41C697.846 325.361 697.81 325.312 697.774 325.262C696.224 323.11 693.593 322.089 695.949 320.861Z" fill="#FFC999"/>
<path d="M718.631 302.314C718.906 301.377 718.158 301.006 716.993 301.526C716.876 301.579 716.824 301.716 716.876 301.833C716.929 301.949 717.067 302.002 717.184 301.949C718.039 301.567 718.324 301.709 718.184 302.184C717.99 302.846 717.143 303.705 715.96 304.293L715.757 304.391C715.076 304.716 713.803 305.276 713.706 305.322C712.384 305.954 711.812 306.625 711.4 308.25L711.365 308.396C711.261 308.828 711.182 309.412 711.089 310.352L710.849 312.96L710.794 313.513C710.72 314.23 710.643 314.869 710.555 315.484L710.492 315.912C709.905 319.708 708.901 322.067 707.214 322.807C707.097 322.859 707.043 322.995 707.095 323.113C707.147 323.23 707.284 323.283 707.402 323.231C709.356 322.373 710.418 319.752 711.016 315.549C711.105 314.927 711.182 314.284 711.257 313.561L711.373 312.355L711.521 310.721C711.626 309.609 711.71 308.955 711.818 308.504C712.188 306.957 712.644 306.367 713.797 305.794L713.946 305.722C714.209 305.603 715.609 304.986 716.169 304.708C717.458 304.066 718.397 303.115 718.631 302.314Z" fill="#DD936F"/>
<path d="M700.648 356.04C700.469 356.06 700.341 356.22 700.362 356.398L700.513 357.694L700.64 358.712C700.997 361.4 703.519 378.881 705.7 394.267L706.113 397.183L706.073 397.268C705.156 399.303 705.236 401.339 705.938 403.204L705.999 403.363C706.129 403.689 706.268 403.981 706.407 404.236L706.475 404.358C706.528 404.45 706.571 404.518 706.6 404.562C706.7 404.71 706.902 404.75 707.052 404.65C707.201 404.551 707.241 404.35 707.141 404.201L707.088 404.117C707.058 404.068 707.021 404.005 706.978 403.926C706.851 403.694 706.724 403.425 706.604 403.125C705.886 401.318 705.798 399.341 706.741 397.373C706.769 397.315 706.779 397.251 706.77 397.188L701.563 360.637C701.401 359.483 701.294 358.712 701.257 358.415L701.111 357.213C701.078 356.937 701.044 356.644 701.008 356.324C700.989 356.162 700.852 356.041 700.692 356.037L700.648 356.04Z" fill="#253368"/>
<path fill-rule="evenodd" clip-rule="evenodd" d="M723.701 489.965L769.132 488.747C770.336 488.715 771.286 487.717 771.253 486.518L770.395 454.777C770.362 453.578 769.36 452.632 768.156 452.665L722.724 453.882C721.521 453.915 720.571 454.913 720.603 456.112L721.462 487.853C721.494 489.051 722.496 489.997 723.701 489.965Z" fill="#4E5C93"/>
<path fill-rule="evenodd" clip-rule="evenodd" d="M725.247 489.923L770.679 488.705C771.882 488.673 772.832 487.675 772.8 486.476L771.941 454.735C771.909 453.537 770.907 452.591 769.703 452.623L724.271 453.841C723.067 453.873 722.118 454.871 722.149 456.07L723.009 487.811C723.041 489.01 724.043 489.956 725.247 489.923Z" fill="#253368"/>
<path fill-rule="evenodd" clip-rule="evenodd" d="M746.393 453.429C747.838 453.905 747.499 455.178 747.686 458.327C747.803 460.295 747.32 462.862 747.84 464.483C748.375 466.155 756.103 467.011 757.85 455.976C757.85 455.976 759.59 443.137 755.982 440.636C752.714 438.372 747.107 442.851 747.107 442.851C747.107 442.851 746.047 444.271 743.933 448.197L741.898 453.247L746.393 453.429Z" fill="#FFC999"/>
<path d="M750.473 453.904C750.358 453.903 750.264 453.994 750.262 454.108L750.259 454.264C750.256 454.393 750.251 454.542 750.245 454.709C750.226 455.189 750.198 455.724 750.158 456.3C750.044 457.945 749.856 459.59 749.578 461.124C749.374 462.253 749.127 463.279 748.836 464.177C748.801 464.286 748.861 464.403 748.97 464.438C749.08 464.473 749.197 464.413 749.232 464.305C749.53 463.387 749.78 462.344 749.988 461.197C750.268 459.647 750.458 457.988 750.573 456.328L750.605 455.841C750.624 455.524 750.64 455.221 750.652 454.936L750.669 454.485L750.678 454.114C750.68 454 750.588 453.906 750.473 453.904Z" fill="#4E5C93"/>
<path d="M752.931 454.568C752.816 454.568 752.723 454.66 752.723 454.775C752.721 455.654 752.648 456.647 752.513 457.734C752.367 458.9 752.154 460.14 751.89 461.414C751.734 462.17 751.568 462.899 751.401 463.583L751.317 463.921C751.249 464.194 751.185 464.438 751.129 464.652L751.057 464.914C751.026 465.024 751.091 465.138 751.202 465.169C751.313 465.2 751.427 465.135 751.458 465.025L751.531 464.758L751.68 464.183L751.721 464.021C751.918 463.237 752.115 462.386 752.298 461.498C752.564 460.214 752.779 458.963 752.926 457.785C753.063 456.682 753.137 455.673 753.139 454.775C753.139 454.661 753.046 454.568 752.931 454.568Z" fill="#4E5C93"/>
<path d="M755.67 455.04C755.556 455.03 755.455 455.115 755.445 455.229L755.406 455.613C755.397 455.692 755.388 455.776 755.377 455.866C755.317 456.378 755.24 456.953 755.142 457.578C754.864 459.366 754.484 461.198 753.987 462.969C753.956 463.079 754.021 463.193 754.132 463.224C754.242 463.255 754.357 463.19 754.388 463.08C754.89 461.292 755.273 459.444 755.554 457.642L755.633 457.114C755.683 456.77 755.726 456.445 755.764 456.139L755.82 455.658L755.86 455.264C755.87 455.15 755.785 455.05 755.67 455.04Z" fill="#4E5C93"/>
<path fill-rule="evenodd" clip-rule="evenodd" d="M747.183 442.984L757.606 443.822L763.76 398.111C764.352 393.205 760.708 388.801 755.757 388.442C750.807 388.082 746.558 391.914 746.43 396.853L747.183 442.984Z" fill="#FFC999"/>
<path d="M741.69 453.243C741.687 453.357 741.778 453.452 741.893 453.454L742.629 453.471C743.07 453.483 743.512 453.495 743.934 453.509L744.964 453.547C745.624 453.575 746.11 453.605 746.369 453.635C747.529 453.772 747.639 455.433 747.165 460.508L747.041 461.842C746.975 462.585 746.93 463.177 746.899 463.743C746.893 463.857 746.981 463.955 747.096 463.961C747.211 463.967 747.309 463.879 747.315 463.765L747.333 463.456C747.359 463.038 747.393 462.593 747.438 462.075L747.679 459.461C747.846 457.584 747.884 456.709 747.83 455.77C747.741 454.208 747.323 453.33 746.418 453.224L746.229 453.205C745.848 453.172 745.224 453.14 744.416 453.111L743.627 453.085L742.497 453.054L741.902 453.04C741.787 453.038 741.692 453.128 741.69 453.243Z" fill="#4E5C93"/>
<path d="M741.977 362.859L741.933 362.861C741.769 362.879 741.648 363.015 741.644 363.175L741.646 363.219L743.961 383.86C743.978 384.017 744.106 384.136 744.261 384.147H744.303L763.169 383.012C763.349 383.001 763.485 382.848 763.474 382.669C763.464 382.506 763.334 382.378 763.174 382.366L763.13 382.366L744.573 383.482L742.292 363.147C742.276 362.999 742.161 362.885 742.02 362.863L741.977 362.859Z" fill="#253368"/>
<path d="M676.941 346.195C676.778 346.179 676.63 346.287 676.593 346.442L676.586 346.485L675.476 357.725C675.461 357.884 675.563 358.028 675.714 358.069L675.757 358.077L701.383 361.517C701.561 361.541 701.724 361.417 701.748 361.24C701.77 361.077 701.667 360.927 701.513 360.884L701.47 360.875L676.154 357.477L677.233 346.549C677.249 346.386 677.141 346.239 676.985 346.202L676.941 346.195Z" fill="#253368"/>
<path fill-rule="evenodd" clip-rule="evenodd" d="M704.796 325.579L700.28 318.129L663.725 338.998C659.81 341.232 658.484 346.415 660.814 350.377C663.144 354.339 668.184 355.472 671.881 352.866L704.796 325.579Z" fill="#FFC999"/>
<path d="M687.562 339.95C687.466 339.837 687.303 339.813 687.18 339.887L687.14 339.915L675.699 349.575C675.573 349.681 675.558 349.869 675.665 349.994C675.761 350.107 675.923 350.131 676.046 350.057L676.086 350.029L687.527 340.369C687.653 340.263 687.668 340.075 687.562 339.95Z" fill="#253368"/>
<path d="M706.408 408.377C706.28 408.377 706.176 408.481 706.176 408.609C706.176 408.724 706.26 408.82 706.371 408.838L706.408 408.841H745.637C745.766 408.841 745.87 408.737 745.87 408.609C745.87 408.494 745.786 408.398 745.675 408.38L745.637 408.377H706.408Z" fill="#597EF7"/>
<path d="M706.893 403.686C706.714 403.686 706.568 403.831 706.568 404.01C706.568 404.174 706.691 404.31 706.849 404.331L706.893 404.334H744.863C745.042 404.334 745.188 404.189 745.188 404.01C745.188 403.846 745.065 403.711 744.907 403.689L744.863 403.686H706.893Z" fill="#253368"/>
<path d="M726.353 404.011C726.237 404.011 726.141 404.095 726.123 404.205L726.12 404.243V440.906C726.12 441.034 726.224 441.138 726.353 441.138C726.469 441.138 726.565 441.053 726.583 440.943L726.586 440.906V404.243C726.586 404.115 726.482 404.011 726.353 404.011Z" fill="#597EF7"/>
<path d="M721.991 440.552C721.862 440.549 721.756 440.65 721.753 440.778C721.75 440.893 721.832 440.991 721.942 441.011L721.98 441.015L729.965 441.202C730.093 441.205 730.2 441.103 730.203 440.975C730.206 440.86 730.124 440.763 730.013 440.742L729.976 440.738L721.991 440.552Z" fill="#597EF7"/>
<path d="M720.575 408.832C720.459 408.832 720.363 408.916 720.345 409.027L720.342 409.064V427.482C720.342 428.957 721.101 430.326 722.346 431.113L722.464 431.185L725.828 433.164C725.939 433.229 726.082 433.193 726.147 433.082C726.205 432.984 726.183 432.861 726.099 432.789L726.065 432.765L722.701 430.786C721.566 430.118 720.855 428.92 720.81 427.613L720.808 427.482V409.064C720.808 408.936 720.704 408.832 720.575 408.832Z" fill="#597EF7"/>
<g opacity="0.1">
<path d="M798.5 353.083C827.541 353.083 851.083 329.541 851.083 300.5C851.083 271.459 827.541 247.917 798.5 247.917C769.459 247.917 745.917 271.459 745.917 300.5C745.917 329.541 769.459 353.083 798.5 353.083Z" fill="#4E5C93"/>
<path d="M798.5 349.327C825.466 349.327 847.327 327.466 847.327 300.5C847.327 273.534 825.466 251.673 798.5 251.673C771.534 251.673 749.673 273.534 749.673 300.5C749.673 327.466 771.534 349.327 798.5 349.327Z" fill="#A3B5D6"/>
<path d="M798.5 347.566C824.494 347.566 845.566 326.494 845.566 300.5C845.566 274.506 824.494 253.434 798.5 253.434C772.506 253.434 751.434 274.506 751.434 300.5C751.434 326.494 772.506 347.566 798.5 347.566Z" fill="#E4EBF7"/>
<path d="M798.5 270.561C799.537 270.561 800.378 271.401 800.378 272.439V299.123H796.622V272.439C796.622 271.401 797.463 270.561 798.5 270.561Z" fill="#253368"/>
<path d="M817.622 300.5C817.622 301.537 816.782 302.378 815.744 302.378H798.5V298.622H815.744C816.782 298.622 817.622 299.463 817.622 300.5Z" fill="#253368"/>
<path d="M798.5 304.843C800.898 304.843 802.843 302.898 802.843 300.5C802.843 298.102 800.898 296.157 798.5 296.157C796.102 296.157 794.157 298.102 794.157 300.5C794.157 302.898 796.102 304.843 798.5 304.843Z" fill="#A3B5D6"/>
<path d="M800.373 261.063C800.373 260.026 799.532 259.185 798.495 259.185C797.458 259.185 796.617 260.026 796.617 261.063V264.819C796.617 265.856 797.458 266.697 798.495 266.697C799.532 266.697 800.373 265.856 800.373 264.819V261.063Z" fill="#CCD7EE"/>
<path d="M769.282 271.288C770.016 270.555 771.205 270.555 771.938 271.288L774.594 273.944C775.327 274.677 775.327 275.866 774.594 276.6C773.861 277.333 772.672 277.333 771.938 276.6L769.282 273.944C768.549 273.21 768.549 272.021 769.282 271.288Z" fill="#CCD7EE"/>
<path d="M757.185 300.505C757.185 299.468 758.026 298.627 759.063 298.627H762.819C763.856 298.627 764.697 299.468 764.697 300.505C764.697 301.542 763.856 302.383 762.819 302.383H759.063C758.026 302.383 757.185 301.542 757.185 300.505Z" fill="#CCD7EE"/>
<path d="M769.289 329.718C768.555 328.985 768.555 327.796 769.289 327.062L771.945 324.406C772.678 323.673 773.867 323.673 774.6 324.406C775.334 325.14 775.334 326.329 774.6 327.062L771.945 329.718C771.211 330.452 770.022 330.452 769.289 329.718Z" fill="#CCD7EE"/>
<path d="M796.627 339.937C796.627 340.974 797.468 341.815 798.505 341.815C799.542 341.815 800.383 340.974 800.383 339.937V336.181C800.383 335.144 799.542 334.303 798.505 334.303C797.468 334.303 796.627 335.144 796.627 336.181V339.937Z" fill="#CCD7EE"/>
<path d="M827.717 329.711C826.984 330.444 825.795 330.444 825.062 329.711L822.406 327.055C821.672 326.322 821.672 325.133 822.406 324.399C823.139 323.666 824.328 323.666 825.062 324.399L827.717 327.055C828.451 327.788 828.451 328.977 827.717 329.711Z" fill="#CCD7EE"/>
<path d="M839.815 300.495C839.815 301.532 838.974 302.373 837.937 302.373H834.181C833.144 302.373 832.303 301.532 832.303 300.495C832.303 299.458 833.144 298.617 834.181 298.617H837.937C838.974 298.617 839.815 299.458 839.815 300.495Z" fill="#CCD7EE"/>
<path d="M827.712 271.283C828.445 272.016 828.445 273.205 827.712 273.939L825.056 276.595C824.322 277.328 823.133 277.328 822.4 276.595C821.667 275.861 821.667 274.672 822.4 273.939L825.056 271.283C825.789 270.55 826.978 270.55 827.712 271.283Z" fill="#CCD7EE"/>
</g>
</svg>
