<svg width="31" height="33" viewBox="0 0 31 33" fill="none" xmlns="http://www.w3.org/2000/svg">
<g filter="url(#filter0_d_22_9711)">
<path fill-rule="evenodd" clip-rule="evenodd" d="M23.6123 2C23.8799 2 24.0372 2.12095 24.123 2.27362C24.2073 2.42381 24.2213 2.60259 24.2088 2.722C24.2084 2.98658 24.1103 3.15118 23.9847 3.24794C23.8607 3.3435 23.7125 3.37086 23.6127 3.36684C19.6126 3.64476 17.936 6.78338 17.5978 8.31747C17.2604 9.88565 17.2091 11.4856 17.2257 12.0888L17.2257 12.0914L17.2253 12.0939C17.0253 13.1937 16.3427 14.101 16.0255 14.4182L16.0248 14.4189L16.024 14.4196C15.5777 14.7965 15.3334 15.0803 15.209 15.281C15.1468 15.3813 15.1151 15.46 15.1027 15.5185C15.0901 15.5776 15.0979 15.6125 15.1092 15.6294L15.113 15.6351L15.1133 15.642C15.1325 16.065 15.3583 16.2485 15.4657 16.2893C16.0531 16.2912 16.4313 16.677 16.6646 17.1512C16.8933 17.6162 16.9855 18.1711 17.0011 18.5501C17.6238 18.5379 17.8127 18.8133 17.822 18.9717L17.8221 18.9732C17.8221 19.1679 17.6725 19.2859 17.4988 19.3541C17.3342 19.4188 17.1398 19.4426 17.002 19.4451C17.0006 19.9592 16.9555 20.2959 16.8986 20.5085C16.8698 20.6165 16.8377 20.6933 16.8062 20.7453C16.7793 20.7896 16.7509 20.8191 16.7226 20.8317C16.4943 21.3927 16.6285 21.8532 16.7234 22.0141C16.9195 22.1991 17.2995 22.4017 17.6987 22.5806C18.0985 22.7597 18.514 22.9135 18.7743 23.0003C19.6836 23.3301 20.5136 23.9729 21.1803 24.6409C21.8471 25.309 22.3528 26.0039 22.6148 26.4405L22.6172 26.4446L22.618 26.4494C22.6492 26.6468 22.5818 26.7816 22.4831 26.8683C22.3859 26.9538 22.26 26.9912 22.1735 26.9999L22.1722 27H4.82782L4.82658 26.9999C4.74006 26.9912 4.61417 26.9538 4.51692 26.8683C4.41827 26.7816 4.35087 26.6468 4.38204 26.4494L4.3828 26.4446L4.38528 26.4405C4.64723 26.0039 5.15295 25.309 5.81979 24.6409C6.48649 23.9729 7.3158 23.3303 8.22515 23.0005C8.48545 22.9137 8.90153 22.7597 9.30138 22.5806C9.70059 22.4017 10.0806 22.1991 10.2767 22.0141C10.3715 21.8532 10.5057 21.3927 10.2774 20.8317C10.2492 20.8191 10.2208 20.7896 10.1939 20.7453C10.1623 20.6933 10.1302 20.6165 10.1014 20.5085C10.0446 20.2959 9.99947 19.9592 9.99808 19.4451C9.86022 19.4426 9.6658 19.4188 9.50126 19.3541C9.32751 19.2859 9.17796 19.1679 9.17796 18.9732L9.17801 18.9717C9.18732 18.8133 9.37624 18.5379 9.99897 18.5501C10.0145 18.1711 10.1067 17.6162 10.3355 17.1512C10.5687 16.677 10.9469 16.2912 11.5343 16.2893C11.6417 16.2485 11.8675 16.065 11.8867 15.642L11.8871 15.6351L11.8909 15.6294C11.9021 15.6125 11.9099 15.5776 11.8973 15.5185C11.8849 15.46 11.8533 15.3813 11.791 15.281C11.6666 15.0803 11.4223 14.7965 10.976 14.4196L10.9752 14.4189L10.9745 14.4182C10.6573 14.101 9.97476 13.1937 9.77479 12.0939L9.77432 12.0914L9.77439 12.0888C9.79092 11.4856 9.73964 9.88565 9.4022 8.31747C9.06404 6.78338 7.38746 3.64476 3.38736 3.36684C3.28751 3.37086 3.13934 3.3435 3.01531 3.24794C2.88972 3.15118 2.79161 2.98658 2.79128 2.722C2.77873 2.60259 2.79277 2.42381 2.87709 2.27362C2.9628 2.12095 3.12012 2 3.3877 2H23.6123Z" fill="url(#paint0_linear_22_9711)" shape-rendering="crispEdges"/>
</g>
<defs>
<filter id="filter0_d_22_9711" x="0.787292" y="0" width="29.4255" height="33" filterUnits="userSpaceOnUse" color-interpolation-filters="sRGB">
<feFlood flood-opacity="0" result="BackgroundImageFix"/>
<feColorMatrix in="SourceAlpha" type="matrix" values="0 0 0 0 0 0 0 0 0 0 0 0 0 0 0 0 0 0 127 0" result="hardAlpha"/>
<feOffset dx="2" dy="2"/>
<feGaussianBlur stdDeviation="2"/>
<feComposite in2="hardAlpha" operator="out"/>
<feColorMatrix type="matrix" values="0 0 0 0 0 0 0 0 0 0 0 0 0 0 0 0 0 0 0.12 0"/>
<feBlend mode="normal" in2="BackgroundImageFix" result="effect1_dropShadow_22_9711"/>
<feBlend mode="normal" in="SourceGraphic" in2="effect1_dropShadow_22_9711" result="shape"/>
</filter>
<linearGradient id="paint0_linear_22_9711" x1="25.2028" y1="19.4453" x2="2.78729" y2="11.9901" gradientUnits="userSpaceOnUse">
<stop stop-color="#D9D9D9" stop-opacity="0"/>
<stop offset="0.0001" stop-color="#00D1FF"/>
<stop offset="0.973958" stop-color="#0052D9"/>
</linearGradient>
</defs>
</svg>
