<svg width="33" height="48" viewBox="0 0 33 48" fill="none" xmlns="http://www.w3.org/2000/svg">
<path d="M16.5 33C21.4706 33 25.5 28.9706 25.5 24V9C25.5 4.02938 21.4706 0 16.5 0C11.5294 0 7.5 4.02938 7.5 9V24C7.5 28.9706 11.5294 33 16.5 33ZM31.5 18H30C29.1712 18 28.5 18.6712 28.5 19.5V24C28.5 31.0125 22.4541 36.6394 15.3009 35.9419C9.06656 35.3334 4.5 29.7291 4.5 23.4656V19.5C4.5 18.6712 3.82875 18 3 18H1.5C0.67125 18 0 18.6712 0 19.5V23.265C0 31.6688 5.99719 39.1603 14.25 40.2984V43.5H9C8.17125 43.5 7.5 44.1712 7.5 45V46.5C7.5 47.3288 8.17125 48 9 48H24C24.8288 48 25.5 47.3288 25.5 46.5V45C25.5 44.1712 24.8288 43.5 24 43.5H18.75V40.3341C26.7853 39.2316 33 32.3344 33 24V19.5C33 18.6712 32.3288 18 31.5 18Z" fill="white"/>
</svg>
