<svg width="48" height="48" viewBox="0 0 48 48" fill="none" xmlns="http://www.w3.org/2000/svg">
<path d="M41.6604 0H5.43396C3.99411 0.00430024 2.61446 0.578186 1.59632 1.59632C0.578186 2.61446 0.00430024 3.99411 0 5.43396V28.9811C0.00430024 30.421 0.578186 31.8006 1.59632 32.8188C2.61446 33.8369 3.99411 34.4108 5.43396 34.4151H20.8302V35.1034L12.5706 43.363C12.3167 43.6142 12.1151 43.9132 11.9776 44.2427C11.84 44.5723 11.7692 44.9259 11.7692 45.283C11.7692 45.6401 11.84 45.9937 11.9776 46.3233C12.1151 46.6529 12.3167 46.9519 12.5706 47.203C13.08 47.7118 13.7706 47.9976 14.4906 47.9976C15.2106 47.9976 15.9011 47.7118 16.4106 47.203L20.8302 42.7834V45.283C20.8302 46.0036 21.1164 46.6947 21.626 47.2042C22.1355 47.7137 22.8266 48 23.5472 48C24.2678 48 24.9588 47.7137 25.4684 47.2042C25.9779 46.6947 26.2642 46.0036 26.2642 45.283V42.7834L30.6838 47.203C31.1932 47.7118 31.8838 47.9976 32.6038 47.9976C33.3238 47.9976 34.0143 47.7118 34.5238 47.203C34.7777 46.9519 34.9792 46.6529 35.1168 46.3233C35.2543 45.9937 35.3252 45.6401 35.3252 45.283C35.3252 44.9259 35.2543 44.5723 35.1168 44.2427C34.9792 43.9132 34.7777 43.6142 34.5238 43.363L26.2642 35.1034V34.4151H41.6604C43.1002 34.4108 44.4799 33.8369 45.498 32.8188C46.5162 31.8006 47.09 30.421 47.0943 28.9811V5.43396C47.09 3.99411 46.5162 2.61446 45.498 1.59632C44.4799 0.578186 43.1002 0.00430024 41.6604 0ZM35.8642 13.766L30.4302 21.0113C30.1762 21.3529 29.8091 21.5932 29.3945 21.6894C28.9798 21.7855 28.5445 21.7314 28.166 21.5366L22.0981 18.5117L17.5879 23.0219C17.2435 23.357 16.7824 23.5453 16.3019 23.5472C16.0178 23.5503 15.7374 23.4817 15.4868 23.3479L11.8642 21.5366C11.6342 21.4409 11.4265 21.2987 11.254 21.119C11.0814 20.9394 10.9478 20.7261 10.8615 20.4924C10.7751 20.2588 10.7379 20.0099 10.7521 19.7612C10.7663 19.5125 10.8316 19.2694 10.944 19.0472C11.0564 18.8249 11.2134 18.6282 11.4053 18.4693C11.5971 18.3105 11.8197 18.1929 12.059 18.1239C12.2984 18.055 12.5494 18.0361 12.7963 18.0686C13.0433 18.101 13.2809 18.184 13.4943 18.3125L15.9396 19.526L20.4498 15.0158C20.721 14.747 21.0702 14.5706 21.4475 14.5121C21.8249 14.4535 22.2111 14.5157 22.5509 14.6898L28.4377 17.6242L32.966 11.5925C33.2543 11.2081 33.6834 10.9541 34.1589 10.8861C34.3944 10.8525 34.6342 10.8656 34.8646 10.9246C35.0951 10.9836 35.3116 11.0875 35.5019 11.2302C35.6922 11.3729 35.8525 11.5517 35.9737 11.7564C36.0949 11.9611 36.1746 12.1876 36.2082 12.4231C36.2419 12.6586 36.2288 12.8984 36.1697 13.1288C36.1107 13.3592 36.0069 13.5757 35.8642 13.766V13.766Z" fill="white"/>
</svg>
